<?xml version="1.0" encoding="UTF-8"?>
<!--Generator: Apple Native CoreSVG 175.5-->
<!DOCTYPE svg
PUBLIC "-//W3C//DTD SVG 1.1//EN"
       "http://www.w3.org/Graphics/SVG/1.1/DTD/svg11.dtd">
<svg version="1.1" xmlns="http://www.w3.org/2000/svg" xmlns:xlink="http://www.w3.org/1999/xlink" width="3300" height="2200">
 <!--glyph: "uni1013A2.medium", point size: 100.0, font version: "18.0d12e2", template writer version: "101"-->
 <g id="Notes">
  <rect height="2200" id="artboard" style="fill:white;opacity:1" width="3300" x="0" y="0"/>
  <line style="fill:none;stroke:black;opacity:1;stroke-width:0.5;" x1="263" x2="3036" y1="292" y2="292"/>
  <text style="stroke:none;fill:black;font-family:sans-serif;font-size:13;font-weight:bold;" transform="matrix(1 0 0 1 263 322)">Weight/Scale Variations</text>
  <text style="stroke:none;fill:black;font-family:sans-serif;font-size:13;text-anchor:middle;" transform="matrix(1 0 0 1 559.711 322)">Ultralight</text>
  <text style="stroke:none;fill:black;font-family:sans-serif;font-size:13;text-anchor:middle;" transform="matrix(1 0 0 1 856.422 322)">Thin</text>
  <text style="stroke:none;fill:black;font-family:sans-serif;font-size:13;text-anchor:middle;" transform="matrix(1 0 0 1 1153.13 322)">Light</text>
  <text style="stroke:none;fill:black;font-family:sans-serif;font-size:13;text-anchor:middle;" transform="matrix(1 0 0 1 1449.84 322)">Regular</text>
  <text style="stroke:none;fill:black;font-family:sans-serif;font-size:13;text-anchor:middle;" transform="matrix(1 0 0 1 1746.56 322)">Medium</text>
  <text style="stroke:none;fill:black;font-family:sans-serif;font-size:13;text-anchor:middle;" transform="matrix(1 0 0 1 2043.27 322)">Semibold</text>
  <text style="stroke:none;fill:black;font-family:sans-serif;font-size:13;text-anchor:middle;" transform="matrix(1 0 0 1 2339.98 322)">Bold</text>
  <text style="stroke:none;fill:black;font-family:sans-serif;font-size:13;text-anchor:middle;" transform="matrix(1 0 0 1 2636.69 322)">Heavy</text>
  <text style="stroke:none;fill:black;font-family:sans-serif;font-size:13;text-anchor:middle;" transform="matrix(1 0 0 1 2933.4 322)">Black</text>
  <line style="fill:none;stroke:black;opacity:1;stroke-width:0.5;" x1="263" x2="3036" y1="1903" y2="1903"/>
  <g transform="matrix(1 0 0 1 263 1933)">
   <path d="M9.24805 0.830078C13.5547 0.830078 17.1387-2.74414 17.1387-7.05078C17.1387-11.3574 13.5449-14.9316 9.23828-14.9316C4.94141-14.9316 1.36719-11.3574 1.36719-7.05078C1.36719-2.74414 4.95117 0.830078 9.24805 0.830078ZM9.24805-0.654297C5.70312-0.654297 2.87109-3.49609 2.87109-7.05078C2.87109-10.6055 5.69336-13.4473 9.23828-13.4473C12.793-13.4473 15.6445-10.6055 15.6445-7.05078C15.6445-3.49609 12.8027-0.654297 9.24805-0.654297ZM5.6543-7.05078C5.6543-6.62109 5.95703-6.32812 6.40625-6.32812L8.50586-6.32812L8.50586-4.20898C8.50586-3.76953 8.79883-3.4668 9.22852-3.4668C9.67773-3.4668 9.9707-3.76953 9.9707-4.20898L9.9707-6.32812L12.0898-6.32812C12.5293-6.32812 12.832-6.62109 12.832-7.05078C12.832-7.49023 12.5293-7.79297 12.0898-7.79297L9.9707-7.79297L9.9707-9.90234C9.9707-10.3516 9.67773-10.6543 9.22852-10.6543C8.79883-10.6543 8.50586-10.3516 8.50586-9.90234L8.50586-7.79297L6.40625-7.79297C5.95703-7.79297 5.6543-7.49023 5.6543-7.05078Z"/>
  </g>
  <g transform="matrix(1 0 0 1 281.867 1933)">
   <path d="M11.709 2.91016C17.1582 2.91016 21.6699-1.61133 21.6699-7.05078C21.6699-12.5 17.1484-17.0117 11.6992-17.0117C6.25977-17.0117 1.74805-12.5 1.74805-7.05078C1.74805-1.61133 6.26953 2.91016 11.709 2.91016ZM11.709 1.25C7.09961 1.25 3.41797-2.44141 3.41797-7.05078C3.41797-11.6602 7.08984-15.3516 11.6992-15.3516C16.3086-15.3516 20.0098-11.6602 20.0098-7.05078C20.0098-2.44141 16.3184 1.25 11.709 1.25ZM7.17773-7.05078C7.17773-6.57227 7.50977-6.25 8.00781-6.25L10.8789-6.25L10.8789-3.36914C10.8789-2.88086 11.2109-2.53906 11.6895-2.53906C12.1777-2.53906 12.5195-2.87109 12.5195-3.36914L12.5195-6.25L15.4004-6.25C15.8887-6.25 16.2305-6.57227 16.2305-7.05078C16.2305-7.53906 15.8887-7.88086 15.4004-7.88086L12.5195-7.88086L12.5195-10.752C12.5195-11.25 12.1777-11.5918 11.6895-11.5918C11.2109-11.5918 10.8789-11.25 10.8789-10.752L10.8789-7.88086L8.00781-7.88086C7.50977-7.88086 7.17773-7.53906 7.17773-7.05078Z"/>
  </g>
  <g transform="matrix(1 0 0 1 305.646 1933)">
   <path d="M14.9707 5.66406C21.9336 5.66406 27.6953-0.0976562 27.6953-7.05078C27.6953-14.0137 21.9238-19.7754 14.9609-19.7754C8.00781-19.7754 2.25586-14.0137 2.25586-7.05078C2.25586-0.0976562 8.01758 5.66406 14.9707 5.66406ZM14.9707 3.84766C8.93555 3.84766 4.08203-1.01562 4.08203-7.05078C4.08203-13.0957 8.92578-17.9492 14.9609-17.9492C21.0059-17.9492 25.8691-13.0957 25.8691-7.05078C25.8691-1.01562 21.0156 3.84766 14.9707 3.84766ZM9.19922-7.05078C9.19922-6.5332 9.57031-6.17188 10.1172-6.17188L14.0625-6.17188L14.0625-2.2168C14.0625-1.67969 14.4336-1.29883 14.9512-1.29883C15.4883-1.29883 15.8594-1.66992 15.8594-2.2168L15.8594-6.17188L19.8145-6.17188C20.3516-6.17188 20.7324-6.5332 20.7324-7.05078C20.7324-7.59766 20.3613-7.96875 19.8145-7.96875L15.8594-7.96875L15.8594-11.9141C15.8594-12.4609 15.4883-12.8418 14.9512-12.8418C14.4336-12.8418 14.0625-12.4609 14.0625-11.9141L14.0625-7.96875L10.1172-7.96875C9.57031-7.96875 9.19922-7.59766 9.19922-7.05078Z"/>
  </g>
  <text style="stroke:none;fill:black;font-family:sans-serif;font-size:13;font-weight:bold;" transform="matrix(1 0 0 1 263 1953)">Design Variations</text>
  <text style="stroke:none;fill:black;font-family:sans-serif;font-size:13;" transform="matrix(1 0 0 1 263 1971)">Symbols are supported in up to nine weights and three scales.</text>
  <text style="stroke:none;fill:black;font-family:sans-serif;font-size:13;" transform="matrix(1 0 0 1 263 1989)">For optimal layout with text and other symbols, vertically align</text>
  <text style="stroke:none;fill:black;font-family:sans-serif;font-size:13;" transform="matrix(1 0 0 1 263 2007)">symbols with the adjacent text.</text>
  <line style="fill:none;stroke:#00AEEF;stroke-width:0.5;opacity:1.0;" x1="776" x2="776" y1="1919" y2="1933"/>
  <g transform="matrix(1 0 0 1 776 1933)">
   <path d="M3.31055 0.15625C3.82812 0.15625 4.08203-0.0390625 4.26758-0.585938L5.52734-4.0332L11.2891-4.0332L12.5488-0.585938C12.7344-0.0390625 12.9883 0.15625 13.4961 0.15625C14.0137 0.15625 14.3457-0.15625 14.3457-0.644531C14.3457-0.810547 14.3164-0.966797 14.2383-1.17188L9.6582-13.3691C9.43359-13.9648 9.0332-14.2676 8.4082-14.2676C7.80273-14.2676 7.39258-13.9746 7.17773-13.3789L2.59766-1.16211C2.51953-0.957031 2.49023-0.800781 2.49023-0.634766C2.49023-0.146484 2.80273 0.15625 3.31055 0.15625ZM6.00586-5.51758L8.37891-12.0898L8.42773-12.0898L10.8008-5.51758Z"/>
  </g>
  <line style="fill:none;stroke:#00AEEF;stroke-width:0.5;opacity:1.0;" x1="793.197" x2="793.197" y1="1919" y2="1933"/>
  <text style="stroke:none;fill:black;font-family:sans-serif;font-size:13;font-weight:bold;" transform="matrix(1 0 0 1 776 1953)">Margins</text>
  <text style="stroke:none;fill:black;font-family:sans-serif;font-size:13;" transform="matrix(1 0 0 1 776 1971)">Leading and trailing margins on the left and right side of each symbol</text>
  <text style="stroke:none;fill:black;font-family:sans-serif;font-size:13;" transform="matrix(1 0 0 1 776 1989)">can be adjusted by modifying the x-location of the margin guidelines.</text>
  <text style="stroke:none;fill:black;font-family:sans-serif;font-size:13;" transform="matrix(1 0 0 1 776 2007)">Modifications are automatically applied proportionally to all</text>
  <text style="stroke:none;fill:black;font-family:sans-serif;font-size:13;" transform="matrix(1 0 0 1 776 2025)">scales and weights.</text>
  <g transform="matrix(1 0 0 1 1289 1933)">
   <path d="M2.8418 1.86523L4.54102 3.57422C5.40039 4.44336 6.38672 4.38477 7.31445 3.35938L18.0078-8.42773L17.041-9.4043L6.42578 2.27539C6.07422 2.67578 5.74219 2.77344 5.27344 2.30469L4.10156 1.14258C3.63281 0.683594 3.74023 0.341797 4.14062-0.0195312L15.6152-10.8203L14.6387-11.7871L3.04688-0.898438C2.06055 0.0195312 1.98242 0.996094 2.8418 1.86523ZM9.25781-16.3281C8.83789-15.918 8.80859-15.3418 9.04297-14.9512C9.27734-14.5898 9.73633-14.3555 10.3809-14.5215C11.8457-14.8633 13.3691-14.9219 14.7949-13.9844L14.209-12.5293C13.8672-11.6992 14.043-11.1133 14.5801-10.5664L16.875-8.25195C17.3633-7.76367 17.7734-7.74414 18.3398-7.8418L19.4043-8.03711L20.0684-7.36328L20.0293-6.80664C19.9902-6.30859 20.1172-5.92773 20.6055-5.44922L21.3672-4.70703C21.8457-4.22852 22.4609-4.19922 22.9297-4.66797L25.8398-7.58789C26.3086-8.05664 26.2891-8.65234 25.8105-9.13086L25.0391-9.89258C24.5605-10.3711 24.1895-10.5273 23.7109-10.4883L23.1348-10.4395L22.4902-11.0742L22.7344-12.1973C22.8613-12.7637 22.7051-13.2031 22.1191-13.7891L19.9219-15.9766C16.582-19.2969 12.1484-19.2188 9.25781-16.3281ZM10.752-15.957C13.1836-17.7344 16.4746-17.4316 18.7012-15.2051L21.1328-12.793C21.3672-12.5586 21.4062-12.373 21.3379-12.0312L21.0156-10.5469L22.5195-9.0625L23.5059-9.12109C23.7598-9.13086 23.8379-9.11133 24.0332-8.91602L24.6094-8.33984L22.168-5.89844L21.5918-6.47461C21.3965-6.66992 21.3672-6.74805 21.377-7.01172L21.4453-7.98828L19.9512-9.47266L18.4277-9.21875C18.1055-9.15039 17.959-9.17969 17.7148-9.41406L15.7129-11.416C15.459-11.6504 15.4297-11.8164 15.5859-12.1875L16.4648-14.2773C14.9023-15.7324 12.8711-16.3574 10.8398-15.7617C10.6836-15.7227 10.625-15.8496 10.752-15.957Z"/>
  </g>
  <text style="stroke:none;fill:black;font-family:sans-serif;font-size:13;font-weight:bold;" transform="matrix(1 0 0 1 1289 1953)">Exporting</text>
  <text style="stroke:none;fill:black;font-family:sans-serif;font-size:13;" transform="matrix(1 0 0 1 1289 1971)">Symbols should be outlined when exporting to ensure the</text>
  <text style="stroke:none;fill:black;font-family:sans-serif;font-size:13;" transform="matrix(1 0 0 1 1289 1989)">design is preserved when submitting to Xcode.</text>
  <text id="template-version" style="stroke:none;fill:black;font-family:sans-serif;font-size:13;text-anchor:end;" transform="matrix(1 0 0 1 3036 1933)">Template v.4.0</text>
  <text style="stroke:none;fill:black;font-family:sans-serif;font-size:13;text-anchor:end;" transform="matrix(1 0 0 1 3036 1951)">Requires Xcode 14 or greater</text>
  <text id="descriptive-name" style="stroke:none;fill:black;font-family:sans-serif;font-size:13;text-anchor:end;" transform="matrix(1 0 0 1 3036 1969)">Generated from dollarsign</text>
  <text style="stroke:none;fill:black;font-family:sans-serif;font-size:13;text-anchor:end;" transform="matrix(1 0 0 1 3036 1987)">Typeset at 100 points</text>
  <text style="stroke:none;fill:black;font-family:sans-serif;font-size:13;" transform="matrix(1 0 0 1 263 726)">Small</text>
  <text style="stroke:none;fill:black;font-family:sans-serif;font-size:13;" transform="matrix(1 0 0 1 263 1156)">Medium</text>
  <text style="stroke:none;fill:black;font-family:sans-serif;font-size:13;" transform="matrix(1 0 0 1 263 1586)">Large</text>
 </g>
 <g id="Guides">
  <g id="H-reference" style="fill:#27AAE1;stroke:none;" transform="matrix(1 0 0 1 339 696)">
   <path d="M0.993654 0L3.63775 0L29.3281-67.1323L30.0303-67.1323L30.0303-70.459L28.1226-70.459ZM11.6885-24.4799L46.9815-24.4799L46.2315-26.7285L12.4385-26.7285ZM55.1196 0L57.7637 0L30.6382-70.459L29.4326-70.459L29.4326-67.1323Z"/>
  </g>
  <line id="Baseline-S" style="fill:none;stroke:#27AAE1;opacity:1;stroke-width:0.5;" x1="263" x2="3036" y1="696" y2="696"/>
  <line id="Capline-S" style="fill:none;stroke:#27AAE1;opacity:1;stroke-width:0.5;" x1="263" x2="3036" y1="625.541" y2="625.541"/>
  <g id="H-reference" style="fill:#27AAE1;stroke:none;" transform="matrix(1 0 0 1 339 1126)">
   <path d="M0.993654 0L3.63775 0L29.3281-67.1323L30.0303-67.1323L30.0303-70.459L28.1226-70.459ZM11.6885-24.4799L46.9815-24.4799L46.2315-26.7285L12.4385-26.7285ZM55.1196 0L57.7637 0L30.6382-70.459L29.4326-70.459L29.4326-67.1323Z"/>
  </g>
  <line id="Baseline-M" style="fill:none;stroke:#27AAE1;opacity:1;stroke-width:0.5;" x1="263" x2="3036" y1="1126" y2="1126"/>
  <line id="Capline-M" style="fill:none;stroke:#27AAE1;opacity:1;stroke-width:0.5;" x1="263" x2="3036" y1="1055.54" y2="1055.54"/>
  <g id="H-reference" style="fill:#27AAE1;stroke:none;" transform="matrix(1 0 0 1 339 1556)">
   <path d="M0.993654 0L3.63775 0L29.3281-67.1323L30.0303-67.1323L30.0303-70.459L28.1226-70.459ZM11.6885-24.4799L46.9815-24.4799L46.2315-26.7285L12.4385-26.7285ZM55.1196 0L57.7637 0L30.6382-70.459L29.4326-70.459L29.4326-67.1323Z"/>
  </g>
  <line id="Baseline-L" style="fill:none;stroke:#27AAE1;opacity:1;stroke-width:0.5;" x1="263" x2="3036" y1="1556" y2="1556"/>
  <line id="Capline-L" style="fill:none;stroke:#27AAE1;opacity:1;stroke-width:0.5;" x1="263" x2="3036" y1="1485.54" y2="1485.54"/>
  <line id="left-margin-Regular-M" style="fill:none;stroke:#00AEEF;stroke-width:0.5;opacity:1.0;" x1="1406.65" x2="1406.65" y1="1030.79" y2="1150.12"/>
  <line id="right-margin-Regular-M" style="fill:none;stroke:#00AEEF;stroke-width:0.5;opacity:1.0;" x1="1493.03" x2="1493.03" y1="1030.79" y2="1150.12"/>
 </g>
 <g id="Symbols">
  <g id="Black-L" transform="matrix(1 0 0 1 2871.66 1556)">
   <path d="M60.7881 22.0052C88.3616 22.0052 107.4 8.63869 107.4-13.2816C107.4-30.9694 96.3622-40.1729 73.3005-45.2243L61.3191-47.825C49.0375-50.512 42.9617-53.9103 42.9617-60.6528C42.9617-67.4026 49.2977-72.0529 61.1338-72.0529C70.4174-72.0529 76.4257-68.412 79.8423-61.9547C83.0761-56.7579 87.0554-54.3809 92.5426-54.3809C99.7393-54.3809 104.185-58.2158 104.185-64.2188C104.185-66.0563 103.849-67.8795 103.237-69.6651C99.059-82.2649 84.1449-92.463 60.7249-92.463C35.1609-92.463 16.6879-79.0742 16.6879-58.1472C16.6879-40.269 28.3294-30.4642 50.1347-25.6714L62.1161-23.0707C75.705-20.0775 81.2434-17.4306 81.2434-10.2463C81.2434-2.43039 73.4584 1.59511 61.2398 1.59511C50.3141 1.59511 44.3409-2.25742 41.5361-8.60982C38.8447-13.5754 35.1383-16.5365 29.3406-16.5365C21.4662-16.5365 17.0769-11.9995 17.0769-5.2748C17.0769-3.66729 17.4702-1.7285 18.3151 0.325901C22.4194 11.3209 36.2089 22.0052 60.7881 22.0052ZM61.6382 35.5428C63.9598 35.5428 65.3919 34.0315 65.3919 31.5555L65.3919-102.233C65.3919-104.729 63.9598-106.241 61.6382-106.241C59.3154-106.241 57.8845-104.729 57.8845-102.233L57.8845 31.5555C57.8845 34.0315 59.3154 35.5428 61.6382 35.5428Z"/>
  </g>
  <g id="Heavy-L" transform="matrix(1 0 0 1 2576.39 1556)">
   <path d="M59.6478 21.7267C85.7664 21.7267 104.513 8.89161 104.513-12.5647C104.513-29.7231 93.7353-38.9233 70.8915-44.0402L58.9146-46.7009C46.1092-49.5645 39.8701-53.5782 39.8701-60.9485C39.8701-68.5411 47.0462-74.1377 59.8931-74.1377C70.1569-74.1377 76.9832-69.8353 80.3683-62.1847C83.0578-57.4915 86.5594-55.2999 91.4411-55.2999C97.7714-55.2999 101.624-58.7718 101.624-64.1571C101.624-65.7746 101.33-67.4191 100.796-69.0492C96.7255-82.0923 81.839-92.1801 59.5807-92.1801C34.9283-92.1801 17.0954-79.0515 17.0954-58.8818C17.0954-41.7343 28.3145-32.0746 49.9467-27.2123L61.9237-24.5515C76.0985-21.3448 81.8273-17.9954 81.8273-10.0505C81.8273-1.15368 73.4393 3.68429 60.0262 3.68429C48.0095 3.68429 41.0103-0.855052 38.188-8.56686C35.8843-13.0928 32.6103-15.7307 27.4866-15.7307C20.6622-15.7307 16.8426-11.7176 16.8426-5.76675C16.8426-4.31086 17.1763-2.58272 17.8883-0.770939C21.9357 11.3681 36.3769 21.7267 59.6478 21.7267ZM60.2354 35.6475C62.5987 35.6475 64.1493 34.0221 64.1493 31.5551L64.1493-102.025C64.1493-104.522 62.5987-106.148 60.2354-106.148C57.8665-106.148 56.3215-104.522 56.3215-102.025L56.3215 31.5551C56.3215 34.0221 57.8665 35.6475 60.2354 35.6475Z"/>
  </g>
  <g id="Bold-L" transform="matrix(1 0 0 1 2281.35 1556)">
   <path d="M58.316 21.3884C82.8525 21.3884 101.178 9.10227 101.178-11.6958C101.178-28.2084 90.7085-37.3861 68.1485-42.5577L56.1792-45.2803C42.5793-48.3815 36.0583-53.156 36.0583-61.3247C36.0583-70.0368 44.391-76.7642 58.4383-76.7642C69.9832-76.7642 77.9281-71.5802 81.2002-62.5063C83.2434-58.4728 86.1385-56.534 90.2597-56.534C95.5218-56.534 98.6373-59.5304 98.6373-64.1175C98.6373-65.4809 98.3889-66.9175 97.9476-68.3629C94.0375-81.8697 79.1818-91.8342 58.2339-91.8342C34.7109-91.8342 17.5727-79.0209 17.5727-59.7811C17.5727-43.5179 28.314-34.0499 49.731-29.118L61.7004-26.3953C76.7019-22.9124 82.7509-18.7021 82.7509-9.80468C82.7509 0.421713 73.4982 6.31844 58.6096 6.31844C45.1959 6.31844 36.8617 0.836822 34.076-8.5429C32.2488-12.4861 29.5201-14.7169 25.2413-14.7169C19.6932-14.7169 16.5804-11.3569 16.5804-6.3813C16.5804-5.09503 16.8449-3.61322 17.4029-2.08624C21.3439 11.3326 36.4577 21.3884 58.316 21.3884ZM58.6181 35.711C60.9531 35.711 62.5827 34.0143 62.5827 31.6296L62.5827-101.801C62.5827-104.224 60.9531-105.921 58.6181-105.921C56.2698-105.921 54.6535-104.224 54.6535-101.801L54.6535 31.6296C54.6535 34.0143 56.2698 35.711 58.6181 35.711Z"/>
  </g>
  <g id="Semibold-L" transform="matrix(1 0 0 1 1985.79 1556)">
   <path d="M57.3978 21.1552C80.8437 21.1552 98.8791 9.2475 98.8791-11.0968C98.8791-27.1643 88.6218-36.3265 66.2575-41.5356L54.2935-44.3009C40.1457-47.5659 33.4304-52.8648 33.4304-61.584C33.4304-71.0679 42.5606-78.5749 57.4353-78.5749C69.8635-78.5749 78.5795-72.783 81.7737-62.728C83.3714-59.1493 85.8483-57.3848 89.4453-57.3848C93.971-57.3848 96.578-60.0533 96.578-64.0902C96.578-65.2784 96.3615-66.5717 95.9839-67.8899C92.1844-81.7163 77.35-91.5957 57.3053-91.5957C34.5611-91.5957 17.9017-78.9998 17.9017-60.4011C17.9017-44.7476 28.3136-35.4117 49.5823-30.4317L61.5464-27.6665C77.1179-23.9931 83.3875-19.1893 83.3875-9.63524C83.3875 1.50778 73.5388 8.13441 57.6331 8.13441C43.2562 8.13441 34.0017 2.00319 31.2412-8.52638C29.7426-12.0678 27.3897-14.018 23.6934-14.018C19.0252-14.018 16.3997-11.1081 16.3997-6.80497C16.3997-5.63563 16.6164-4.32365 17.0683-2.993C20.9358 11.3081 36.5134 21.1552 57.3978 21.1552ZM57.5031 35.7548C59.8187 35.7548 61.5026 34.0089 61.5026 31.681L61.5026-101.647C61.5026-104.018 59.8187-105.764 57.5031-105.764C55.169-105.764 53.5035-104.018 53.5035-101.647L53.5035 31.681C53.5035 34.0089 55.169 35.7548 57.5031 35.7548Z"/>
  </g>
  <g id="Medium-L" transform="matrix(1 0 0 1 1689.95 1556)">
   <path d="M56.7016 20.9783C79.3205 20.9783 97.136 9.35761 97.136-10.6426C97.136-26.3725 87.0396-35.523 64.8237-40.7607L52.8636-43.5583C38.3005-46.9475 31.4379-52.6441 31.4379-61.7807C31.4379-71.8497 41.1727-79.9479 56.6749-79.9479C69.7727-79.9479 79.0735-73.6951 82.2086-62.8961C83.4684-59.6622 85.6282-58.0299 88.8278-58.0299C92.7951-58.0299 95.0166-60.4498 95.0166-64.0696C95.0166-65.1249 94.8242-66.3095 94.4949-67.5311C90.7793-81.5999 75.961-91.4149 56.6013-91.4149C34.4475-91.4149 18.1512-78.9837 18.1512-60.8712C18.1512-45.6799 28.3133-36.4443 49.4696-31.4279L61.4297-28.6303C77.4333-24.8126 83.8703-19.5587 83.8703-9.50676C83.8703 2.33128 73.5696 9.51135 56.8926 9.51135C41.7855 9.51135 31.8331 2.88758 29.0917-8.51386C27.8422-11.7506 25.7744-13.4881 22.5197-13.4881C18.5186-13.4881 16.2627-10.9196 16.2627-7.12622C16.2627-6.04553 16.4431-4.86232 16.8145-3.68055C20.6264 11.2896 36.5556 20.9783 56.7016 20.9783ZM56.6576 35.788C58.9584 35.788 60.6837 34.0048 60.6837 31.7199L60.6837-101.53C60.6837-103.862 58.9584-105.646 56.6576-105.646C54.3343-105.646 52.6316-103.862 52.6316-101.53L52.6316 31.7199C52.6316 34.0048 54.3343 35.788 56.6576 35.788Z"/>
  </g>
  <g id="Regular-L" transform="matrix(1 0 0 1 1394.37 1556)">
   <path d="M55.7936 20.7477C77.3338 20.7477 94.8624 9.50124 94.8624-10.0502C94.8624-25.3398 84.9758-34.4749 62.9535-39.7499L50.9986-42.5897C35.8938-46.1409 28.839-52.3562 28.839-62.0372C28.839-72.8696 39.3624-81.7387 55.6829-81.7387C69.6542-81.7387 79.7177-74.8848 82.7758-63.1154C83.5949-60.3313 85.3412-58.8714 88.0224-58.8714C91.2613-58.8714 92.9799-60.967 92.9799-64.0426C92.9799-64.9246 92.8191-65.9676 92.5527-67.0632C88.9466-81.4482 74.1493-91.179 55.6829-91.179C34.2993-91.179 18.4766-78.9628 18.4766-61.4844C18.4766-46.8961 28.3129-37.7912 49.3225-32.7273L61.2774-29.8875C77.8447-25.8814 84.5-20.0405 84.5-9.33918C84.5 3.40542 73.6097 11.3074 55.9268 11.3074C39.8671 11.3074 29.0045 4.04113 26.2881-8.49752C25.3635-11.3369 23.6674-12.7968 20.9888-12.7968C17.8579-12.7968 16.084-10.6736 16.084-7.54523C16.084-6.58019 16.2172-5.56494 16.4835-4.57734C20.2229 11.2654 36.6107 20.7477 55.7936 20.7477ZM55.5549 35.8313C57.8364 35.8313 59.6155 33.9995 59.6155 31.7707L59.6155-101.377C59.6155-103.659 57.8364-105.491 55.5549-105.491C53.2456-105.491 51.4943-103.659 51.4943-101.377L51.4943 31.7707C51.4943 33.9995 53.2456 35.8313 55.5549 35.8313Z"/>
  </g>
  <g id="Light-L" transform="matrix(1 0 0 1 1098.03 1556)">
   <path d="M55.3928 20.5568C77.2574 20.5568 94.118 8.98594 94.118-9.57308C94.118-24.481 84.346-33.4825 62.61-38.6238L50.6741-41.4255C34.0807-45.263 26.3197-51.9936 26.3197-62.3616C26.3197-74.4536 38.3891-83.8381 55.2058-83.8381C70.494-83.8381 82.008-75.9726 84.5126-63.5734C85.0645-61.4764 86.2955-60.341 88.385-60.341C90.9178-60.341 92.102-61.9404 92.102-64.2525C92.102-65.0773 91.9412-66.063 91.713-67.0823C88.3931-81.2383 73.5959-90.9691 55.2058-90.9691C34.6047-90.9691 18.6293-78.9247 18.6293-62.0379C18.6293-47.9267 28.4274-39.0317 49.2843-34.0251L61.2202-31.2234C79.0089-26.9501 86.4276-20.5749 86.4276-9.14833C86.4276 4.45511 74.1823 13.4258 55.5069 13.4258C38.1876 13.4258 25.989 4.91905 23.6734-8.66929C23.0541-10.8598 21.797-11.9953 19.7674-11.9953C17.3617-11.9953 16.084-10.3491 16.084-8.00328C16.084-7.03824 16.1981-6.09933 16.4263-5.20716C19.8602 10.6356 35.8473 20.5568 55.3928 20.5568ZM55.2113 35.4496C56.9585 35.4496 58.3559 34.0186 58.3559 32.3051L58.3559-101.435C58.3559-103.182 56.9585-104.613 55.2113-104.613C53.4174-104.613 52.0668-103.182 52.0668-101.435L52.0668 32.3051C52.0668 34.0186 53.4174 35.4496 55.2113 35.4496Z"/>
  </g>
  <g id="Thin-L" transform="matrix(1 0 0 1 801.813 1556)">
   <path d="M54.8627 20.3044C77.1564 20.3044 93.1336 8.30441 93.1336-8.94203C93.1336-23.3451 83.513-32.1699 62.1556-37.1346L50.245-39.8857C31.6827-44.1019 22.9878-51.514 22.9878-62.7907C22.9878-76.5487 37.1017-86.6147 54.5748-86.6147C71.6046-86.6147 85.037-77.4114 86.8096-64.1792C87.0081-62.9909 87.5576-62.2846 88.8646-62.2846C90.4634-62.2846 90.9409-63.2277 90.9409-64.5302C90.9409-65.2793 90.7801-66.1892 90.6023-67.1076C87.6611-80.9606 72.8638-90.6914 54.5748-90.6914C35.0085-90.6914 18.8312-78.8742 18.8312-62.7699C18.8312-49.2897 28.5789-40.6724 49.2339-35.7415L61.1444-32.9904C80.5487-28.3637 88.977-21.2817 88.977-8.89591C88.977 5.84341 74.9395 16.2277 54.9516 16.2277C35.9663 16.2277 22.0008 6.08017 20.2153-8.89646C19.9999-10.2288 19.3233-10.9351 18.1519-10.9351C16.7054-10.9351 16.084-9.92 16.084-8.60908C16.084-7.64404 16.1728-6.8061 16.3506-6.04014C19.3806 9.80259 34.8376 20.3044 54.8627 20.3044ZM54.757 34.9448C55.7974 34.9448 56.6899 34.0438 56.6899 33.0119L56.6899-101.51C56.6899-102.551 55.7974-103.452 54.757-103.452C53.6446-103.452 52.8241-102.551 52.8241-101.51L52.8241 33.0119C52.8241 34.0438 53.6446 34.9448 54.757 34.9448Z"/>
  </g>
  <g id="Ultralight-L" transform="matrix(1 0 0 1 505.354 1556)">
   <path d="M54.5912 20.1751C77.1047 20.1751 92.6294 7.95534 92.6294-8.61881C92.6294-22.7633 83.0864-31.4976 61.9229-36.3718L50.0252-39.0971C30.4545-43.5071 21.2812-51.2683 21.2812-63.0105C21.2812-77.6218 36.4424-88.0368 54.2516-88.0368C72.1735-88.0368 86.5884-78.1483 87.9861-64.4895C88.0036-63.7666 88.204-63.2801 89.1102-63.2801C90.2307-63.2801 90.3462-63.8871 90.3462-64.6724C90.3462-65.3827 90.1853-66.2538 90.0335-67.1205C87.2862-80.8184 72.4889-90.5492 54.2516-90.5492C35.2154-90.5492 18.9346-78.8483 18.9346-63.1449C18.9346-49.9879 28.6564-41.5128 49.208-36.6207L61.1057-33.8954C81.3373-29.0877 90.2828-21.6437 90.2828-8.76662C90.2828 6.55449 75.3274 17.6628 54.6671 17.6628C34.8286 17.6628 19.9581 6.6749 18.444-9.01282C18.4355-9.90553 18.0563-10.3921 17.3244-10.3921C16.3693-10.3921 16.084-9.70021 16.084-8.91937C16.084-7.95433 16.1599-7.1681 16.3118-6.46679C19.135 9.37594 34.3204 20.1751 54.5912 20.1751ZM54.5243 34.6862C55.2027 34.6862 55.8366 34.0568 55.8366 33.3739L55.8366-101.549C55.8366-102.228 55.2027-102.857 54.5243-102.857C53.7609-102.857 53.2119-102.228 53.2119-101.549L53.2119 33.3739C53.2119 34.0568 53.7609 34.6862 54.5243 34.6862Z"/>
  </g>
  <g id="Black-M" transform="matrix(1 0 0 1 2884.38 1126)">
   <path d="M48.0209 9.32611C70.6776 9.32611 85.5885-1.53015 85.5885-18.777C85.5885-32.8838 76.8281-39.9989 58.8128-43.838L49.5291-45.796C40.2624-47.7649 35.6-49.9385 35.6-54.7159C35.6-59.3915 39.9961-62.2509 48.3646-62.2509C54.893-62.2509 59.0413-59.8614 61.6405-55.799C64.5774-51.433 68.001-49.4762 72.6924-49.4762C78.9169-49.4762 82.7976-52.6919 82.7976-57.7702C82.7976-59.3751 82.5017-60.9334 81.9664-62.44C78.6757-71.7897 67.0974-79.7854 47.9649-79.7854C27.4819-79.7854 12.5993-69.2121 12.5993-52.4285C12.5993-38.0142 21.9762-30.3217 38.9979-26.676L48.2816-24.7179C58.4714-22.5462 62.702-21.027 62.702-16.0163C62.702-10.7737 57.0053-8.20841 48.4312-8.20841C40.7336-8.20841 36.8066-10.7709 34.7029-14.6663C32.326-18.8033 29.1423-21.3311 24.1593-21.3311C17.2546-21.3311 13.4316-17.4305 13.4316-11.6616C13.4316-10.2859 13.7849-8.61314 14.5485-6.82591C17.7358 0.709113 27.8048 9.32611 48.0209 9.32611ZM48.9127 19.4591C50.6031 19.4591 51.5591 18.4405 51.5591 16.5844L51.5591-87.3255C51.5591-89.1871 50.6031-90.2058 48.9127-90.2058C47.2226-90.2058 46.2663-89.1871 46.2663-87.3255L46.2663 16.5844C46.2663 18.4405 47.2226 19.4591 48.9127 19.4591Z"/>
  </g>
  <g id="Heavy-M" transform="matrix(1 0 0 1 2589.04 1126)">
   <path d="M46.9431 9.07147C68.1476 9.07147 82.8343-1.23537 82.8343-18.1202C82.8343-31.7447 74.3183-38.8688 56.4895-42.7843L47.2084-44.8046C37.5671-46.9196 32.8101-49.6474 32.8101-54.975C32.8101-60.3583 37.8849-64.0952 47.1957-64.0952C54.5608-64.0952 59.3751-61.1525 61.9944-55.9816C64.4239-52.0446 67.4281-50.239 71.5822-50.239C77.0249-50.239 80.3758-53.1457 80.3758-57.6905C80.3758-59.0856 80.1203-60.4746 79.6575-61.8362C76.4455-71.6403 64.8942-79.5282 46.8904-79.5282C27.2263-79.5282 12.9836-69.1935 12.9836-53.0955C12.9836-39.3515 21.9511-31.7815 38.8176-28.0626L48.0987-26.0422C58.7486-23.6865 63.095-21.5298 63.095-15.8425C63.095-9.62244 56.9338-6.36153 47.2835-6.36153C38.6356-6.36153 33.8289-9.48101 31.6711-14.6085C29.645-18.3755 26.8436-20.6174 22.4596-20.6174C16.5143-20.6174 13.2025-17.1849 13.2025-12.1003C13.2025-10.8728 13.4993-9.39889 14.1366-7.84005C17.2964 0.813384 28.0394 9.07147 46.9431 9.07147ZM47.5731 19.5967C49.3536 19.5967 50.4606 18.4296 50.4606 16.5347L50.4606-87.1176C50.4606-89.0289 49.3536-90.1959 47.5731-90.1959C45.7904-90.1959 44.6856-89.0289 44.6856-87.1176L44.6856 16.5347C44.6856 18.4296 45.7904 19.5967 47.5731 19.5967Z"/>
  </g>
  <g id="Bold-M" transform="matrix(1 0 0 1 2293.87 1126)">
   <path d="M45.7374 8.78662C65.3174 8.78662 79.7533-0.90561 79.7533-17.3855C79.7533-30.4704 71.5107-37.6047 53.8906-41.6056L44.6124-43.6956C34.552-45.9741 29.6892-49.3217 29.6892-55.2648C29.6892-61.4398 35.5232-66.1583 45.8882-66.1583C54.1893-66.1583 59.7484-62.5968 62.3903-56.1859C64.2522-52.7287 66.7873-51.0923 70.3402-51.0923C74.9083-51.0923 77.6667-53.6533 77.6667-57.6014C77.6667-58.7618 77.4564-59.9613 77.0747-61.1608C73.9509-71.4732 62.4297-79.2405 45.6883-79.2405C26.9405-79.2405 13.4134-69.1727 13.4134-53.8417C13.4134-40.8475 21.9231-33.4145 38.6159-29.6137L47.8942-27.5237C59.0588-24.9621 63.5346-22.0922 63.5346-15.6481C63.5346-8.33462 56.8538-4.29552 45.9996-4.29552C36.2887-4.29552 30.498-8.03806 28.2797-14.5438C26.646-17.897 24.2721-19.8189 20.5581-19.8189C15.6863-19.8189 12.9463-16.9102 12.9463-12.591C12.9463-11.5293 13.1799-10.2779 13.6758-8.9745C16.805 0.930025 28.3018 8.78662 45.7374 8.78662ZM46.0746 19.7505C47.9558 19.7505 49.2318 18.4174 49.2318 16.4791L49.2318-86.885C49.2318-88.8519 47.9558-90.185 46.0746-90.185C44.1882-90.185 42.9174-88.8519 42.9174-86.885L42.9174 16.4791C42.9174 18.4174 44.1882 19.7505 46.0746 19.7505Z"/>
  </g>
  <g id="Semibold-M" transform="matrix(1 0 0 1 1998.22 1126)">
   <path d="M44.9063 8.59024C63.3663 8.59024 77.6292-0.678277 77.6292-16.879C77.6292-29.5919 69.5751-36.7332 52.099-40.7931L42.8227-42.931C32.4734-45.3222 27.5376-49.0972 27.5376-55.4646C27.5376-62.1854 33.8951-67.5806 44.9868-67.5806C53.9331-67.5806 60.0058-63.5925 62.6633-56.3268C64.1339-53.2003 66.3455-51.6806 69.484-51.6806C73.4492-51.6806 75.799-54.0033 75.799-57.5399C75.799-58.5386 75.6199-59.6074 75.2941-60.6952C72.231-71.358 60.7306-79.0421 44.8597-79.0421C26.7434-79.0421 13.7098-69.1583 13.7098-54.3561C13.7098-41.8788 21.9037-34.5402 38.4769-30.683L47.7532-28.545C59.2726-25.8415 63.8377-22.48 63.8377-15.5141C63.8377-7.44681 56.7986-2.87124 45.1146-2.87124C34.6707-2.87124 28.2016-7.04329 25.9416-14.4992C24.5785-17.5672 22.4994-19.2685 19.2473-19.2685C15.1155-19.2685 12.7696-16.7208 12.7696-12.9292C12.7696-11.9819 12.9597-10.8838 13.3581-9.75659C16.4661 1.01044 28.4828 8.59024 44.9063 8.59024ZM45.0415 19.8565C46.9922 19.8565 48.3846 18.409 48.3846 16.4408L48.3846-86.7246C48.3846-88.7298 46.9922-90.1774 45.0415-90.1774C43.0837-90.1774 41.6984-88.7298 41.6984-86.7246L41.6984 16.4408C41.6984 18.409 43.0837 19.8565 45.0415 19.8565Z"/>
  </g>
  <g id="Medium-M" transform="matrix(1 0 0 1 1702.32 1126)">
   <path d="M44.276 8.44134C61.8869 8.44134 76.0187-0.505904 76.0187-16.4949C76.0187-28.9258 68.1075-36.0724 50.7405-40.1769L41.4657-42.3513C30.8973-44.828 25.9063-48.9269 25.9063-55.6161C25.9063-62.7507 32.6606-68.6591 44.3033-68.6591C53.7389-68.6591 60.201-64.3474 62.8703-56.4336C64.0441-53.5579 66.0106-52.1266 68.8348-52.1266C72.3428-52.1266 74.3829-54.2686 74.3829-57.4933C74.3829-58.3693 74.2274-59.3391 73.944-60.3421C70.927-71.2706 59.4424-78.8917 44.2314-78.8917C26.594-78.8917 13.9345-69.1475 13.9345-54.7461C13.9345-42.6608 21.8891-35.3938 38.3715-31.4938L47.6463-29.3194C59.4347-26.5083 64.0675-22.774 64.0675-15.4125C64.0675-6.77363 56.7568-1.79128 44.4434-1.79128C33.4439-1.79128 26.4605-6.28901 24.1688-14.4653C23.0109-17.3171 21.1552-18.8511 18.2534-18.8511C14.6826-18.8511 12.6357-16.5772 12.6357-13.1857C12.6357-12.325 12.7928-11.3433 13.1173-10.3496C16.2092 1.07141 28.6199 8.44134 44.276 8.44134ZM44.2582 19.9369C46.2616 19.9369 47.7423 18.4026 47.7423 16.4117L47.7423-86.603C47.7423-88.6373 46.2616-90.1717 44.2582-90.1717C42.2462-90.1717 40.7741-88.6373 40.7741-86.603L40.7741 16.4117C40.7741 18.4026 42.2462 19.9369 44.2582 19.9369Z"/>
  </g>
  <g id="Regular-M" transform="matrix(1 0 0 1 1406.65 1126)">
   <path d="M43.454 8.24713C59.9572 8.24713 73.918-0.281069 73.918-15.9939C73.918-28.0569 66.1932-35.2104 48.9685-39.3733L39.6956-41.5952C28.8416-44.1833 23.7784-48.7049 23.7784-55.8136C23.7784-63.4881 31.0504-70.0658 43.4118-70.0658C53.4855-70.0658 60.4556-65.3322 63.1402-56.5729C63.9271-54.0244 65.5736-52.7084 67.988-52.7084C70.8997-52.7084 72.5357-54.6148 72.5357-57.4326C72.5357-58.1486 72.4111-58.9892 72.183-59.8815C69.2261-71.1567 57.762-78.6956 43.4118-78.6956C26.3991-78.6956 14.2276-69.1333 14.2276-55.2549C14.2276-43.6808 21.8699-36.5072 38.234-32.5514L47.5068-30.3295C59.6462-27.3781 64.3672-23.1574 64.3672-15.2799C64.3672-5.89557 56.7023-0.382643 43.5681-0.382643C31.8438-0.382643 24.1894-5.30518 21.8565-14.4212C20.9661-16.9908 19.4019-18.3068 16.957-18.3068C14.1181-18.3068 12.4609-16.3899 12.4609-13.5203C12.4609-12.7727 12.575-11.9426 12.8031-11.1231C15.8741 1.15094 28.7989 8.24713 43.454 8.24713ZM43.2364 20.0418C45.3086 20.0418 46.9044 18.3942 46.9044 16.3738L46.9044-86.4444C46.9044-88.5166 45.3086-90.1642 43.2364-90.1642C41.1537-90.1642 39.5685-88.5166 39.5685-86.4444L39.5685 16.3738C39.5685 18.3942 41.1537 20.0418 43.2364 20.0418Z"/>
  </g>
  <g id="Light-M" transform="matrix(1 0 0 1 1110.28 1126)">
   <path d="M43.0947 8.07602C59.8888 8.07602 73.2507-0.743065 73.2507-15.5662C73.2507-27.2869 65.6286-34.3207 48.6605-38.3637L39.4047-40.5514C27.2161-43.3962 21.5197-48.3798 21.5197-56.1045C21.5197-64.9083 30.1777-71.948 42.984-71.948C54.2384-71.948 62.5089-66.3075 64.6973-56.9835C65.2446-55.051 66.4292-54.026 68.3131-54.026C70.5917-54.026 71.7486-55.4874 71.7486-57.6208C71.7486-58.2855 71.624-59.0747 71.4301-59.8987C68.7298-70.9685 57.2658-78.5073 42.984-78.5073C26.6729-78.5073 14.3645-69.0991 14.3645-55.7511C14.3645-44.6048 21.9726-37.6194 38.1998-33.7149L47.4555-31.5273C60.6899-28.3363 66.0954-23.6365 66.0954-15.1088C66.0954-4.95447 57.2156 1.51667 43.1916 1.51667C30.338 1.51667 21.4859-4.51808 19.5123-14.5752C18.8957-16.563 17.7251-17.5881 15.8619-17.5881C13.6732-17.5881 12.4609-16.099 12.4609-13.931C12.4609-13.1833 12.5579-12.4217 12.7518-11.6877C15.549 0.586276 28.1144 8.07602 43.0947 8.07602ZM42.9285 19.6996C44.5215 19.6996 45.7751 18.4114 45.7751 16.853L45.7751-86.4958C45.7751-88.0888 44.5215-89.3771 42.9285-89.3771C41.3077-89.3771 40.0818-88.0888 40.0818-86.4958L40.0818 16.853C40.0818 18.4114 41.3077 19.6996 42.9285 19.6996Z"/>
  </g>
  <g id="Thin-M" transform="matrix(1 0 0 1 814.008 1126)">
   <path d="M42.6194 7.84971C59.7982 7.84971 72.3681-1.35409 72.3681-15.0004C72.3681-26.2686 64.8818-33.1439 48.2531-37.0285L39.02-39.1709C25.0662-42.3552 18.5325-47.9498 18.5325-56.4893C18.5325-66.7867 29.0236-74.4374 42.4183-74.4374C55.2342-74.4374 65.2246-67.5974 66.7567-57.5267C66.9872-56.4089 67.5607-55.7685 68.7431-55.7685C70.1844-55.7685 70.7076-56.6416 70.7076-57.8697C70.7076-58.4665 70.583-59.1879 70.4344-59.9213C68.0735-70.7195 56.6095-78.2584 42.4183-78.2584C27.035-78.2584 14.5455-69.0538 14.5455-56.4074C14.5455-45.8268 22.1084-39.0904 38.1545-35.2538L47.3876-33.1114C62.0704-29.6036 68.3811-24.2702 68.3811-14.8825C68.3811-3.70979 57.8945 4.02867 42.6938 4.02867C28.3465 4.02867 17.9102-3.47707 16.4119-14.7789C16.1574-15.9973 15.5073-16.6376 14.4135-16.6376C13.0848-16.6376 12.4609-15.7143 12.4609-14.4741C12.4609-13.7265 12.5353-13.0554 12.6839-12.4346C15.1191-0.160534 27.2092 7.84971 42.6194 7.84971ZM42.5211 19.247C43.4805 19.247 44.2815 18.434 44.2815 17.4866L44.2815-86.5637C44.2815-87.5231 43.4805-88.3361 42.5211-88.3361C41.5114-88.3361 40.7607-87.5231 40.7607-86.5637L40.7607 17.4866C40.7607 18.434 41.5114 19.247 42.5211 19.247Z"/>
  </g>
  <g id="Ultralight-M" transform="matrix(1 0 0 1 517.523 1126)">
   <path d="M42.376 7.7338C59.7519 7.7338 71.916-1.66706 71.916-14.7106C71.916-25.747 64.4992-32.5411 48.0445-36.3447L38.823-38.4639C23.965-41.822 17.0024-47.7296 17.0024-56.6863C17.0024-67.7488 28.4324-75.7124 42.1285-75.7124C55.7442-75.7124 66.6155-68.2581 67.8115-57.8048C67.8797-57.1043 68.1403-56.6611 68.9633-56.6611C69.9757-56.6611 70.1744-57.2327 70.1744-57.9972C70.1744-58.5592 70.0498-59.2458 69.9244-59.9329C67.7374-70.592 56.2733-78.1309 42.1285-78.1309C27.2204-78.1309 14.6382-69.0306 14.6382-56.7436C14.6382-46.4528 22.1779-39.8438 38.1313-36.042L47.3528-33.9228C62.7775-30.2527 69.5518-24.5948 69.5518-14.7666C69.5518-3.07227 58.2423 5.3153 42.4388 5.3153C27.3265 5.3153 16.0788-2.94387 14.8239-14.8832C14.7548-15.7075 14.3713-16.1508 13.6717-16.1508C12.7834-16.1508 12.4609-15.5172 12.4609-14.7523C12.4609-14.0046 12.5237-13.3799 12.6491-12.8171C14.8988-0.543046 26.7455 7.7338 42.376 7.7338ZM42.3125 19.0152C42.9473 19.0152 43.5164 18.4456 43.5164 17.8112L43.5164-86.5984C43.5164-87.2333 42.9473-87.8029 42.3125-87.8029C41.6157-87.8029 41.1085-87.2333 41.1085-86.5984L41.1085 17.8112C41.1085 18.4456 41.6157 19.0152 42.3125 19.0152Z"/>
  </g>
  <g id="Black-S" transform="matrix(1 0 0 1 2894.58 696)">
   <path d="M37.9395-0.244141C56.1523-0.244141 67.8711-8.93555 67.8711-22.5098C67.8711-33.6914 60.9375-39.2578 46.7773-42.2363L39.502-43.75C32.2754-45.2637 28.6133-46.8262 28.6133-50.4395C28.6133-53.9551 31.9336-55.957 38.2324-55.957C43.1641-55.957 46.2891-54.1992 48.291-51.3184C50.7324-47.8027 53.5156-46.2402 57.3242-46.2402C62.4023-46.2402 65.5762-48.8281 65.5762-52.9297C65.5762-54.248 65.332-55.5176 64.8926-56.7383C62.3047-63.916 53.2227-70.2148 37.8906-70.2148C21.6309-70.2148 9.76562-61.8652 9.76562-48.5352C9.76562-37.0605 17.2363-31.0059 30.6152-28.1738L37.8906-26.6602C45.8008-25 49.1211-23.9746 49.1211-20.2148C49.1211-16.3574 44.7266-14.502 38.2812-14.502C32.4707-14.502 29.5898-16.4062 27.9785-19.1406C26.0254-22.4609 23.4375-24.5117 19.3848-24.5117C13.7207-24.5117 10.5957-21.3379 10.5957-16.6504C10.5957-15.5273 10.8887-14.1602 11.5234-12.6953C14.0137-7.12891 21.6797-0.244141 37.9395-0.244141ZM38.7207 7.56836C39.9902 7.56836 40.6738 6.83594 40.6738 5.41992L40.6738-76.123C40.6738-77.5391 39.9902-78.2715 38.7207-78.2715C37.4512-78.2715 36.7676-77.5391 36.7676-76.123L36.7676 5.41992C36.7676 6.83594 37.4512 7.56836 38.7207 7.56836Z"/>
  </g>
  <g id="Heavy-S" transform="matrix(1 0 0 1 2599.01 696)">
   <path d="M37.0636-0.440057C53.9973-0.440057 65.6008-8.62439 65.6008-22.0027C65.6008-32.8155 58.8631-38.405 44.8297-41.4642L37.5543-43.0355C30.1779-44.6414 26.5158-46.6187 26.5158-50.6238C26.5158-54.6004 30.2395-57.2939 37.2874-57.2939C42.7838-57.2939 46.3121-55.1788 48.3947-51.4221C50.4328-48.1946 52.9164-46.7243 56.3331-46.7243C60.8235-46.7243 63.6055-49.1047 63.6055-52.8375C63.6055-53.983 63.3959-55.1142 63.0141-56.2197C60.4608-63.8123 51.4018-70.0189 37.0263-70.0189C21.3773-70.0189 10.0768-61.8537 10.0768-49.0422C10.0768-38.0862 17.2018-32.1122 30.4654-29.211L37.7408-27.6397C45.9045-25.8528 49.2363-24.3434 49.2363-20.0881C49.2363-15.4931 44.5998-13.1651 37.3478-13.1651C30.8688-13.1651 27.3887-15.4036 25.6851-19.0715C23.9971-22.1498 21.6858-23.9931 18.071-23.9931C13.1445-23.9931 10.3998-21.165 10.3998-16.9731C10.3998-15.9768 10.6467-14.771 11.1777-13.4905C13.6795-6.96756 21.9678-0.440057 37.0636-0.440057ZM37.6144 7.7297C39.0222 7.7297 39.8786 6.82441 39.8786 5.3162L39.8786-75.9387C39.8786-77.4584 39.0222-78.3637 37.6144-78.3637C36.2065-78.3637 35.3501-77.4584 35.3501-75.9387L35.3501 5.3162C35.3501 6.82441 36.2065 7.7297 37.6144 7.7297Z"/>
  </g>
  <g id="Bold-S" transform="matrix(1 0 0 1 2303.56 696)">
   <path d="M36.084-0.65918C51.5869-0.65918 63.0615-8.27637 63.0615-21.4355C63.0615-31.8359 56.543-37.4512 42.6514-40.6006L35.376-42.2363C27.832-43.9453 24.1699-46.3867 24.1699-50.8301C24.1699-55.3223 28.3447-58.7891 36.2305-58.7891C42.3584-58.7891 46.3379-56.2744 48.5107-51.5381C50.0977-48.6328 52.2461-47.2656 55.2246-47.2656C59.0576-47.2656 61.4014-49.4141 61.4014-52.7344C61.4014-53.6865 61.2305-54.6631 60.9131-55.6396C58.3984-63.6963 49.3652-69.7998 36.0596-69.7998C21.0938-69.7998 10.4248-61.8408 10.4248-49.6094C10.4248-39.2334 17.1631-33.3496 30.2979-30.3711L37.5732-28.7354C46.0205-26.8066 49.3652-24.7559 49.3652-19.9463C49.3652-14.5264 44.458-11.6699 36.3037-11.6699C29.0771-11.6699 24.9268-14.2822 23.1201-18.9941C21.7285-21.8018 19.7266-23.4131 16.6016-23.4131C12.5-23.4131 10.1807-20.9717 10.1807-17.334C10.1807-16.4795 10.376-15.4541 10.791-14.3799C13.3057-6.78711 22.29-0.65918 36.084-0.65918ZM36.377 7.91016C37.9395 7.91016 38.9893 6.81152 38.9893 5.2002L38.9893-75.7324C38.9893-77.3682 37.9395-78.4668 36.377-78.4668C34.8145-78.4668 33.7646-77.3682 33.7646-75.7324L33.7646 5.2002C33.7646 6.81152 34.8145 7.91016 36.377 7.91016Z"/>
  </g>
  <g id="Semibold-S" transform="matrix(1 0 0 1 2007.73 696)">
   <path d="M35.4086-0.810254C49.9251-0.810254 61.3108-8.03643 61.3108-21.0445C61.3108-31.1605 54.9434-36.7936 41.1495-40.0052L33.8741-41.6854C26.2146-43.4654 22.5525-46.2268 22.5525-50.9723C22.5525-55.8199 27.0384-59.8199 35.5018-59.8199C42.0651-59.8199 46.3557-57.0298 48.5907-51.6181C49.8666-48.935 51.784-47.6389 54.4604-47.6389C57.8401-47.6389 59.8817-49.6273 59.8817-52.6633C59.8817-53.4821 59.7375-54.3521 59.4646-55.2397C56.9766-63.6163 47.9611-69.6487 35.3931-69.6487C20.8982-69.6487 10.6647-61.8319 10.6647-50.0004C10.6647-40.0243 17.1364-34.2027 30.1823-31.1709L37.4577-29.4907C46.1005-27.4643 49.4541-25.0402 49.4541-19.8485C49.4541-13.8599 44.3603-10.6391 35.5839-10.6391C27.8419-10.6391 23.2294-13.5091 21.3517-18.9408C20.1645-21.5618 18.3758-23.0132 15.5885-23.0132C12.0557-23.0132 10.0296-20.8384 10.0296-17.5828C10.0296-16.8261 10.1894-15.9251 10.5244-14.9931C13.0479-6.6627 22.5122-0.810254 35.4086-0.810254ZM35.5238 8.03457C37.193 8.03457 38.3761 6.80264 38.3761 5.12021L38.3761-75.5902C38.3761-77.306 37.193-78.5379 35.5238-78.5379C33.8547-78.5379 32.6716-77.306 32.6716-75.5902L32.6716 5.12021C32.6716 6.80264 33.8547 8.03457 35.5238 8.03457Z"/>
  </g>
  <g id="Medium-S" transform="matrix(1 0 0 1 1711.68 696)">
   <path d="M34.8965-0.924805C48.665-0.924805 59.9834-7.85449 59.9834-20.748C59.9834-30.6484 53.7305-36.2949 40.0107-39.5537L32.7354-41.2676C24.9883-43.1016 21.3262-46.1055 21.3262-51.0801C21.3262-56.1973 26.0479-60.6016 34.9492-60.6016C41.8428-60.6016 46.3691-57.6025 48.6514-51.6787C49.6914-49.1641 51.4336-47.9219 53.8809-47.9219C56.917-47.9219 58.7295-49.7891 58.7295-52.6094C58.7295-53.3271 58.6055-54.1162 58.3662-54.9365C55.8984-63.5557 46.8965-69.5342 34.8877-69.5342C20.75-69.5342 10.8467-61.8252 10.8467-50.2969C10.8467-40.624 17.1162-34.8496 30.0947-31.7773L37.3701-30.0635C46.1611-27.9629 49.5215-25.2559 49.5215-19.7744C49.5215-13.3545 44.2861-9.85742 35.0381-9.85742C26.9053-9.85742 21.9424-12.9229 20.0107-18.9004C18.9785-21.3799 17.3516-22.71 14.8203-22.71C11.7188-22.71 9.91504-20.7373 9.91504-17.7715C9.91504-17.0889 10.0479-16.2822 10.3223-15.458C12.8525-6.56836 22.6807-0.924805 34.8965-0.924805ZM34.877 8.12891C36.627 8.12891 37.9111 6.7959 37.9111 5.05957L37.9111-75.4824C37.9111-77.2588 36.627-78.5918 34.877-78.5918C33.127-78.5918 31.8428-77.2588 31.8428-75.4824L31.8428 5.05957C31.8428 6.7959 33.127 8.12891 34.877 8.12891Z"/>
  </g>
  <g id="Regular-S" transform="matrix(1 0 0 1 1415.84 696)">
   <path d="M34.2285-1.07422C47.0215-1.07422 58.252-7.61719 58.252-20.3613C58.252-29.9805 52.1484-35.6445 38.5254-38.9648L31.25-40.7227C23.3887-42.627 19.7266-45.9473 19.7266-51.2207C19.7266-56.6895 24.7559-61.6211 34.2285-61.6211C41.5527-61.6211 46.3867-58.3496 48.7305-51.7578C49.4629-49.4629 50.9766-48.291 53.125-48.291C55.7129-48.291 57.2266-50 57.2266-52.5391C57.2266-53.125 57.1289-53.8086 56.9336-54.541C54.4922-63.4766 45.5078-69.3848 34.2285-69.3848C20.5566-69.3848 11.084-61.8164 11.084-50.6836C11.084-41.4062 17.0898-35.6934 29.9805-32.5684L37.2559-30.8105C46.2402-28.6133 49.6094-25.5371 49.6094-19.6777C49.6094-12.6953 44.1895-8.83789 34.3262-8.83789C25.6836-8.83789 20.2637-12.1582 18.2617-18.8477C17.4316-21.1426 16.0156-22.3145 13.8184-22.3145C11.2793-22.3145 9.76562-20.6055 9.76562-18.0176C9.76562-17.4316 9.86328-16.748 10.0586-16.0645C12.5977-6.44531 22.9004-1.07422 34.2285-1.07422ZM34.0332 8.25195C35.8887 8.25195 37.3047 6.78711 37.3047 4.98047L37.3047-75.3418C37.3047-77.1973 35.8887-78.6621 34.0332-78.6621C32.1777-78.6621 30.7617-77.1973 30.7617-75.3418L30.7617 4.98047C30.7617 6.78711 32.1777 8.25195 34.0332 8.25195Z"/>
  </g>
  <g id="Light-S" transform="matrix(1 0 0 1 1119.42 696)">
   <path d="M33.9106-1.22558C46.9609-1.22558 57.6616-8.02588 57.6616-19.9829C57.6616-29.2993 51.6489-34.8574 38.2529-38.0718L30.9927-39.7993C21.9507-41.9307 17.7285-45.6597 17.7285-51.478C17.7285-57.9458 23.9839-63.2861 33.8501-63.2861C42.2187-63.2861 48.2031-59.2124 50.1079-52.1211C50.6284-50.3711 51.7334-49.4565 53.4126-49.4565C55.4404-49.4565 56.5303-50.772 56.5303-52.7056C56.5303-53.2461 56.4326-53.8843 56.2676-54.5562C54.0532-63.3101 45.0689-69.2183 33.8501-69.2183C20.7988-69.2183 11.2051-61.7861 11.2051-51.1226C11.2051-42.2236 17.1807-36.6772 29.9502-33.5976L37.2104-31.8701C47.1636-29.4609 51.1382-25.9609 51.1382-19.5264C51.1382-11.8628 44.6436-7.15773 33.9932-7.15773C24.3516-7.15773 17.8721-11.4619 16.188-18.9839C15.6001-20.7642 14.5322-21.6787 12.8496-21.6787C10.8857-21.6787 9.76562-20.3481 9.76562-18.3809C9.76562-17.7949 9.84814-17.1719 10.0132-16.564C12.3101-6.94482 22.2949-1.22558 33.9106-1.22558ZM33.7607 7.94922C35.1924 7.94922 36.3057 6.80225 36.3057 5.40429L36.3057-75.3872C36.3057-76.8189 35.1924-77.9658 33.7607-77.9658C32.314-77.9658 31.2158-76.8189 31.2158-75.3872L31.2158 5.40429C31.2158 6.80225 32.314 7.94922 33.7607 7.94922Z"/>
  </g>
  <g id="Thin-S" transform="matrix(1 0 0 1 823.099 696)">
   <path d="M33.4902-1.42578C46.8809-1.42578 56.8809-8.5664 56.8809-19.4824C56.8809-28.3984 50.9883-33.8164 37.8926-36.8906L30.6523-38.5781C20.0489-41.0098 15.086-45.2793 15.086-51.8184C15.086-59.6074 22.9629-65.4883 33.3496-65.4883C43.0996-65.4883 50.6054-60.3535 51.9297-52.6016C52.1699-51.5722 52.7344-50.998 53.793-50.998C55.0801-50.998 55.6094-51.793 55.6094-52.9258C55.6094-53.4062 55.5117-53.9844 55.3867-54.5762C53.4727-63.0898 44.4883-68.998 33.3496-68.998C21.1191-68.998 11.3652-61.7461 11.3652-51.7031C11.3652-43.3047 17.3008-37.9785 29.9102-34.959L37.1504-33.2715C48.3847-30.582 53.1601-26.5215 53.1601-19.3262C53.1601-10.7617 45.2441-4.93558 33.5527-4.93558C22.5899-4.93558 14.709-10.541 13.4454-19.1641C13.1778-20.2637 12.5703-20.8379 11.5684-20.8379C10.3652-20.8379 9.76562-20.0078 9.76562-18.8613C9.76562-18.2754 9.82813-17.7324 9.95313-17.2246C11.9297-7.60546 21.4942-1.42578 33.4902-1.42578ZM33.4004 7.54883C34.2715 7.54883 34.9844 6.82227 34.9844 5.96484L34.9844-75.4473C34.9844-76.3184 34.2715-77.0449 33.4004-77.0449C32.4941-77.0449 31.8164-76.3184 31.8164-75.4473L31.8164 5.96484C31.8164 6.82227 32.4941 7.54883 33.4004 7.54883Z"/>
  </g>
  <g id="Ultralight-S" transform="matrix(1 0 0 1 526.588 696)">
   <path d="M33.2749-1.52832C46.8398-1.52832 56.481-8.84325 56.481-19.2261C56.481-27.937 50.6499-33.2832 37.708-36.2857L30.478-37.9527C19.0747-40.5381 13.7325-45.0845 13.7325-51.9927C13.7325-60.4585 22.44-66.6162 33.0933-66.6162C43.5508-66.6162 51.8359-60.938 52.8628-52.8476C52.9594-52.1875 53.2471-51.7876 53.9878-51.7876C54.8955-51.7876 55.1377-52.3159 55.1377-53.0386C55.1377-53.4883 55.0401-54.0356 54.9356-54.5864C53.1753-62.9771 44.1909-68.8853 33.0933-68.8853C21.2832-68.8853 11.4473-61.7256 11.4473-52.0005C11.4473-43.8584 17.3623-38.645 29.8896-35.6562L37.1196-33.9892C49.0102-31.1562 54.1958-26.8086 54.1958-19.2236C54.1958-10.1978 45.5517-3.7974 33.3272-3.7974C21.6875-3.7974 13.0889-10.0694 12.0406-19.2563C11.9371-20.0073 11.5655-20.4072 10.9121-20.4072C10.0986-20.4072 9.76562-19.8335 9.76562-19.1074C9.76562-18.5215 9.81787-18.0195 9.92236-17.563C11.7349-7.94384 21.084-1.52832 33.2749-1.52832ZM33.2158 7.34376C33.7998 7.34376 34.3076 6.83252 34.3076 6.25194L34.3076-75.478C34.3076-76.062 33.7998-76.5733 33.2158-76.5733C32.5864-76.5733 32.124-76.062 32.124-75.478L32.124 6.25194C32.124 6.83252 32.5864 7.34376 33.2158 7.34376Z"/>
  </g>
 </g>
</svg>
