<?xml version="1.0" encoding="UTF-8"?>
<!--Generator: Apple Native CoreSVG 175.5-->
<!DOCTYPE svg
PUBLIC "-//W3C//DTD SVG 1.1//EN"
       "http://www.w3.org/Graphics/SVG/1.1/DTD/svg11.dtd">
<svg version="1.1" xmlns="http://www.w3.org/2000/svg" xmlns:xlink="http://www.w3.org/1999/xlink" width="3300" height="2200">
 <!--glyph: "uni1005D8.medium", point size: 100.0, font version: "18.0d12e2", template writer version: "101"-->
 <g id="Notes">
  <rect height="2200" id="artboard" style="fill:white;opacity:1" width="3300" x="0" y="0"/>
  <line style="fill:none;stroke:black;opacity:1;stroke-width:0.5;" x1="263" x2="3036" y1="292" y2="292"/>
  <text style="stroke:none;fill:black;font-family:sans-serif;font-size:13;font-weight:bold;" transform="matrix(1 0 0 1 263 322)">Weight/Scale Variations</text>
  <text style="stroke:none;fill:black;font-family:sans-serif;font-size:13;text-anchor:middle;" transform="matrix(1 0 0 1 559.711 322)">Ultralight</text>
  <text style="stroke:none;fill:black;font-family:sans-serif;font-size:13;text-anchor:middle;" transform="matrix(1 0 0 1 856.422 322)">Thin</text>
  <text style="stroke:none;fill:black;font-family:sans-serif;font-size:13;text-anchor:middle;" transform="matrix(1 0 0 1 1153.13 322)">Light</text>
  <text style="stroke:none;fill:black;font-family:sans-serif;font-size:13;text-anchor:middle;" transform="matrix(1 0 0 1 1449.84 322)">Regular</text>
  <text style="stroke:none;fill:black;font-family:sans-serif;font-size:13;text-anchor:middle;" transform="matrix(1 0 0 1 1746.56 322)">Medium</text>
  <text style="stroke:none;fill:black;font-family:sans-serif;font-size:13;text-anchor:middle;" transform="matrix(1 0 0 1 2043.27 322)">Semibold</text>
  <text style="stroke:none;fill:black;font-family:sans-serif;font-size:13;text-anchor:middle;" transform="matrix(1 0 0 1 2339.98 322)">Bold</text>
  <text style="stroke:none;fill:black;font-family:sans-serif;font-size:13;text-anchor:middle;" transform="matrix(1 0 0 1 2636.69 322)">Heavy</text>
  <text style="stroke:none;fill:black;font-family:sans-serif;font-size:13;text-anchor:middle;" transform="matrix(1 0 0 1 2933.4 322)">Black</text>
  <line style="fill:none;stroke:black;opacity:1;stroke-width:0.5;" x1="263" x2="3036" y1="1903" y2="1903"/>
  <g transform="matrix(1 0 0 1 263 1933)">
   <path d="M9.24805 0.830078C13.5547 0.830078 17.1387-2.74414 17.1387-7.05078C17.1387-11.3574 13.5449-14.9316 9.23828-14.9316C4.94141-14.9316 1.36719-11.3574 1.36719-7.05078C1.36719-2.74414 4.95117 0.830078 9.24805 0.830078ZM9.24805-0.654297C5.70312-0.654297 2.87109-3.49609 2.87109-7.05078C2.87109-10.6055 5.69336-13.4473 9.23828-13.4473C12.793-13.4473 15.6445-10.6055 15.6445-7.05078C15.6445-3.49609 12.8027-0.654297 9.24805-0.654297ZM5.6543-7.05078C5.6543-6.62109 5.95703-6.32812 6.40625-6.32812L8.50586-6.32812L8.50586-4.20898C8.50586-3.76953 8.79883-3.4668 9.22852-3.4668C9.67773-3.4668 9.9707-3.76953 9.9707-4.20898L9.9707-6.32812L12.0898-6.32812C12.5293-6.32812 12.832-6.62109 12.832-7.05078C12.832-7.49023 12.5293-7.79297 12.0898-7.79297L9.9707-7.79297L9.9707-9.90234C9.9707-10.3516 9.67773-10.6543 9.22852-10.6543C8.79883-10.6543 8.50586-10.3516 8.50586-9.90234L8.50586-7.79297L6.40625-7.79297C5.95703-7.79297 5.6543-7.49023 5.6543-7.05078Z"/>
  </g>
  <g transform="matrix(1 0 0 1 281.867 1933)">
   <path d="M11.709 2.91016C17.1582 2.91016 21.6699-1.61133 21.6699-7.05078C21.6699-12.5 17.1484-17.0117 11.6992-17.0117C6.25977-17.0117 1.74805-12.5 1.74805-7.05078C1.74805-1.61133 6.26953 2.91016 11.709 2.91016ZM11.709 1.25C7.09961 1.25 3.41797-2.44141 3.41797-7.05078C3.41797-11.6602 7.08984-15.3516 11.6992-15.3516C16.3086-15.3516 20.0098-11.6602 20.0098-7.05078C20.0098-2.44141 16.3184 1.25 11.709 1.25ZM7.17773-7.05078C7.17773-6.57227 7.50977-6.25 8.00781-6.25L10.8789-6.25L10.8789-3.36914C10.8789-2.88086 11.2109-2.53906 11.6895-2.53906C12.1777-2.53906 12.5195-2.87109 12.5195-3.36914L12.5195-6.25L15.4004-6.25C15.8887-6.25 16.2305-6.57227 16.2305-7.05078C16.2305-7.53906 15.8887-7.88086 15.4004-7.88086L12.5195-7.88086L12.5195-10.752C12.5195-11.25 12.1777-11.5918 11.6895-11.5918C11.2109-11.5918 10.8789-11.25 10.8789-10.752L10.8789-7.88086L8.00781-7.88086C7.50977-7.88086 7.17773-7.53906 7.17773-7.05078Z"/>
  </g>
  <g transform="matrix(1 0 0 1 305.646 1933)">
   <path d="M14.9707 5.66406C21.9336 5.66406 27.6953-0.0976562 27.6953-7.05078C27.6953-14.0137 21.9238-19.7754 14.9609-19.7754C8.00781-19.7754 2.25586-14.0137 2.25586-7.05078C2.25586-0.0976562 8.01758 5.66406 14.9707 5.66406ZM14.9707 3.84766C8.93555 3.84766 4.08203-1.01562 4.08203-7.05078C4.08203-13.0957 8.92578-17.9492 14.9609-17.9492C21.0059-17.9492 25.8691-13.0957 25.8691-7.05078C25.8691-1.01562 21.0156 3.84766 14.9707 3.84766ZM9.19922-7.05078C9.19922-6.5332 9.57031-6.17188 10.1172-6.17188L14.0625-6.17188L14.0625-2.2168C14.0625-1.67969 14.4336-1.29883 14.9512-1.29883C15.4883-1.29883 15.8594-1.66992 15.8594-2.2168L15.8594-6.17188L19.8145-6.17188C20.3516-6.17188 20.7324-6.5332 20.7324-7.05078C20.7324-7.59766 20.3613-7.96875 19.8145-7.96875L15.8594-7.96875L15.8594-11.9141C15.8594-12.4609 15.4883-12.8418 14.9512-12.8418C14.4336-12.8418 14.0625-12.4609 14.0625-11.9141L14.0625-7.96875L10.1172-7.96875C9.57031-7.96875 9.19922-7.59766 9.19922-7.05078Z"/>
  </g>
  <text style="stroke:none;fill:black;font-family:sans-serif;font-size:13;font-weight:bold;" transform="matrix(1 0 0 1 263 1953)">Design Variations</text>
  <text style="stroke:none;fill:black;font-family:sans-serif;font-size:13;" transform="matrix(1 0 0 1 263 1971)">Symbols are supported in up to nine weights and three scales.</text>
  <text style="stroke:none;fill:black;font-family:sans-serif;font-size:13;" transform="matrix(1 0 0 1 263 1989)">For optimal layout with text and other symbols, vertically align</text>
  <text style="stroke:none;fill:black;font-family:sans-serif;font-size:13;" transform="matrix(1 0 0 1 263 2007)">symbols with the adjacent text.</text>
  <line style="fill:none;stroke:#00AEEF;stroke-width:0.5;opacity:1.0;" x1="776" x2="776" y1="1919" y2="1933"/>
  <g transform="matrix(1 0 0 1 776 1933)">
   <path d="M3.31055 0.15625C3.82812 0.15625 4.08203-0.0390625 4.26758-0.585938L5.52734-4.0332L11.2891-4.0332L12.5488-0.585938C12.7344-0.0390625 12.9883 0.15625 13.4961 0.15625C14.0137 0.15625 14.3457-0.15625 14.3457-0.644531C14.3457-0.810547 14.3164-0.966797 14.2383-1.17188L9.6582-13.3691C9.43359-13.9648 9.0332-14.2676 8.4082-14.2676C7.80273-14.2676 7.39258-13.9746 7.17773-13.3789L2.59766-1.16211C2.51953-0.957031 2.49023-0.800781 2.49023-0.634766C2.49023-0.146484 2.80273 0.15625 3.31055 0.15625ZM6.00586-5.51758L8.37891-12.0898L8.42773-12.0898L10.8008-5.51758Z"/>
  </g>
  <line style="fill:none;stroke:#00AEEF;stroke-width:0.5;opacity:1.0;" x1="793.197" x2="793.197" y1="1919" y2="1933"/>
  <text style="stroke:none;fill:black;font-family:sans-serif;font-size:13;font-weight:bold;" transform="matrix(1 0 0 1 776 1953)">Margins</text>
  <text style="stroke:none;fill:black;font-family:sans-serif;font-size:13;" transform="matrix(1 0 0 1 776 1971)">Leading and trailing margins on the left and right side of each symbol</text>
  <text style="stroke:none;fill:black;font-family:sans-serif;font-size:13;" transform="matrix(1 0 0 1 776 1989)">can be adjusted by modifying the x-location of the margin guidelines.</text>
  <text style="stroke:none;fill:black;font-family:sans-serif;font-size:13;" transform="matrix(1 0 0 1 776 2007)">Modifications are automatically applied proportionally to all</text>
  <text style="stroke:none;fill:black;font-family:sans-serif;font-size:13;" transform="matrix(1 0 0 1 776 2025)">scales and weights.</text>
  <g transform="matrix(1 0 0 1 1289 1933)">
   <path d="M2.8418 1.86523L4.54102 3.57422C5.40039 4.44336 6.38672 4.38477 7.31445 3.35938L18.0078-8.42773L17.041-9.4043L6.42578 2.27539C6.07422 2.67578 5.74219 2.77344 5.27344 2.30469L4.10156 1.14258C3.63281 0.683594 3.74023 0.341797 4.14062-0.0195312L15.6152-10.8203L14.6387-11.7871L3.04688-0.898438C2.06055 0.0195312 1.98242 0.996094 2.8418 1.86523ZM9.25781-16.3281C8.83789-15.918 8.80859-15.3418 9.04297-14.9512C9.27734-14.5898 9.73633-14.3555 10.3809-14.5215C11.8457-14.8633 13.3691-14.9219 14.7949-13.9844L14.209-12.5293C13.8672-11.6992 14.043-11.1133 14.5801-10.5664L16.875-8.25195C17.3633-7.76367 17.7734-7.74414 18.3398-7.8418L19.4043-8.03711L20.0684-7.36328L20.0293-6.80664C19.9902-6.30859 20.1172-5.92773 20.6055-5.44922L21.3672-4.70703C21.8457-4.22852 22.4609-4.19922 22.9297-4.66797L25.8398-7.58789C26.3086-8.05664 26.2891-8.65234 25.8105-9.13086L25.0391-9.89258C24.5605-10.3711 24.1895-10.5273 23.7109-10.4883L23.1348-10.4395L22.4902-11.0742L22.7344-12.1973C22.8613-12.7637 22.7051-13.2031 22.1191-13.7891L19.9219-15.9766C16.582-19.2969 12.1484-19.2188 9.25781-16.3281ZM10.752-15.957C13.1836-17.7344 16.4746-17.4316 18.7012-15.2051L21.1328-12.793C21.3672-12.5586 21.4062-12.373 21.3379-12.0312L21.0156-10.5469L22.5195-9.0625L23.5059-9.12109C23.7598-9.13086 23.8379-9.11133 24.0332-8.91602L24.6094-8.33984L22.168-5.89844L21.5918-6.47461C21.3965-6.66992 21.3672-6.74805 21.377-7.01172L21.4453-7.98828L19.9512-9.47266L18.4277-9.21875C18.1055-9.15039 17.959-9.17969 17.7148-9.41406L15.7129-11.416C15.459-11.6504 15.4297-11.8164 15.5859-12.1875L16.4648-14.2773C14.9023-15.7324 12.8711-16.3574 10.8398-15.7617C10.6836-15.7227 10.625-15.8496 10.752-15.957Z"/>
  </g>
  <text style="stroke:none;fill:black;font-family:sans-serif;font-size:13;font-weight:bold;" transform="matrix(1 0 0 1 1289 1953)">Exporting</text>
  <text style="stroke:none;fill:black;font-family:sans-serif;font-size:13;" transform="matrix(1 0 0 1 1289 1971)">Symbols should be outlined when exporting to ensure the</text>
  <text style="stroke:none;fill:black;font-family:sans-serif;font-size:13;" transform="matrix(1 0 0 1 1289 1989)">design is preserved when submitting to Xcode.</text>
  <text id="template-version" style="stroke:none;fill:black;font-family:sans-serif;font-size:13;text-anchor:end;" transform="matrix(1 0 0 1 3036 1933)">Template v.4.0</text>
  <text style="stroke:none;fill:black;font-family:sans-serif;font-size:13;text-anchor:end;" transform="matrix(1 0 0 1 3036 1951)">Requires Xcode 14 or greater</text>
  <text id="descriptive-name" style="stroke:none;fill:black;font-family:sans-serif;font-size:13;text-anchor:end;" transform="matrix(1 0 0 1 3036 1969)">Generated from dollarsign.square.fill</text>
  <text style="stroke:none;fill:black;font-family:sans-serif;font-size:13;text-anchor:end;" transform="matrix(1 0 0 1 3036 1987)">Typeset at 100 points</text>
  <text style="stroke:none;fill:black;font-family:sans-serif;font-size:13;" transform="matrix(1 0 0 1 263 726)">Small</text>
  <text style="stroke:none;fill:black;font-family:sans-serif;font-size:13;" transform="matrix(1 0 0 1 263 1156)">Medium</text>
  <text style="stroke:none;fill:black;font-family:sans-serif;font-size:13;" transform="matrix(1 0 0 1 263 1586)">Large</text>
 </g>
 <g id="Guides">
  <g id="H-reference" style="fill:#27AAE1;stroke:none;" transform="matrix(1 0 0 1 339 696)">
   <path d="M0.993654 0L3.63775 0L29.3281-67.1323L30.0303-67.1323L30.0303-70.459L28.1226-70.459ZM11.6885-24.4799L46.9815-24.4799L46.2315-26.7285L12.4385-26.7285ZM55.1196 0L57.7637 0L30.6382-70.459L29.4326-70.459L29.4326-67.1323Z"/>
  </g>
  <line id="Baseline-S" style="fill:none;stroke:#27AAE1;opacity:1;stroke-width:0.5;" x1="263" x2="3036" y1="696" y2="696"/>
  <line id="Capline-S" style="fill:none;stroke:#27AAE1;opacity:1;stroke-width:0.5;" x1="263" x2="3036" y1="625.541" y2="625.541"/>
  <g id="H-reference" style="fill:#27AAE1;stroke:none;" transform="matrix(1 0 0 1 339 1126)">
   <path d="M0.993654 0L3.63775 0L29.3281-67.1323L30.0303-67.1323L30.0303-70.459L28.1226-70.459ZM11.6885-24.4799L46.9815-24.4799L46.2315-26.7285L12.4385-26.7285ZM55.1196 0L57.7637 0L30.6382-70.459L29.4326-70.459L29.4326-67.1323Z"/>
  </g>
  <line id="Baseline-M" style="fill:none;stroke:#27AAE1;opacity:1;stroke-width:0.5;" x1="263" x2="3036" y1="1126" y2="1126"/>
  <line id="Capline-M" style="fill:none;stroke:#27AAE1;opacity:1;stroke-width:0.5;" x1="263" x2="3036" y1="1055.54" y2="1055.54"/>
  <g id="H-reference" style="fill:#27AAE1;stroke:none;" transform="matrix(1 0 0 1 339 1556)">
   <path d="M0.993654 0L3.63775 0L29.3281-67.1323L30.0303-67.1323L30.0303-70.459L28.1226-70.459ZM11.6885-24.4799L46.9815-24.4799L46.2315-26.7285L12.4385-26.7285ZM55.1196 0L57.7637 0L30.6382-70.459L29.4326-70.459L29.4326-67.1323Z"/>
  </g>
  <line id="Baseline-L" style="fill:none;stroke:#27AAE1;opacity:1;stroke-width:0.5;" x1="263" x2="3036" y1="1556" y2="1556"/>
  <line id="Capline-L" style="fill:none;stroke:#27AAE1;opacity:1;stroke-width:0.5;" x1="263" x2="3036" y1="1485.54" y2="1485.54"/>
  <line id="left-margin-Regular-M" style="fill:none;stroke:#00AEEF;stroke-width:0.5;opacity:1.0;" x1="1392.45" x2="1392.45" y1="1030.79" y2="1150.12"/>
  <line id="right-margin-Regular-M" style="fill:none;stroke:#00AEEF;stroke-width:0.5;opacity:1.0;" x1="1507.24" x2="1507.24" y1="1030.79" y2="1150.12"/>
 </g>
 <g id="Symbols">
  <g id="Black-L" transform="matrix(1 0 0 1 2855.72 1556)">
   <path d="M39.8556 26.4225L115.513 26.4225C130.677 26.4225 139.284 17.8126 139.284 2.71334L139.284-73.0895C139.284-88.1888 130.677-96.7987 115.513-96.7987L39.8556-96.7987C24.7123-96.7987 16.084-88.1912 16.084-73.0895L16.084 2.71334C16.084 17.815 24.7123 26.4225 39.8556 26.4225ZM78.2787 0.58639C76.6562 0.58639 75.5502-0.555976 75.5502-2.25769L75.5502-6.13309C64.2114-6.7197 58.0513-12.0361 56.0712-17.3725C55.5611-18.4807 55.4014-19.5514 55.4014-20.504C55.4014-24.2616 57.9132-26.8902 62.3097-26.8902C65.552-26.8902 67.6485-25.2667 69.1636-22.4447C70.1279-20.2401 72.0732-18.584 75.5502-18.0546L75.5502-29.0272L72.4923-29.7149C61.2555-32.1096 55.2072-37.2821 55.2072-46.6176C55.2072-56.87 63.6663-63.5809 75.5502-64.3687L75.5502-68.4622C75.5502-70.1651 76.655-71.2867 78.2787-71.2867C79.8416-71.2867 81.0071-70.1639 81.0071-68.4622L81.0071-64.3687C91.2786-63.5069 97.7747-58.5637 99.6535-52.5876C99.9884-51.635 100.206-50.5643 100.206-49.5521C100.206-46.1461 97.6363-43.8096 93.5902-43.8096C90.5191-43.8096 88.3474-45.2232 86.5599-48.0798C85.4151-50.2938 83.6354-51.7594 81.0071-52.2668L81.0071-41.7419L84.2235-41.0714C95.9768-38.7253 101.794-33.6615 101.794-24.3484C101.794-13.8581 93.4771-7.12854 81.0071-6.16948L81.0071-2.25769C81.0071-0.557172 79.8416 0.58639 78.2787 0.58639ZM75.5502-43.0491L75.5502-52.5004C72.088-52.1266 69.9299-50.3157 69.9299-47.8522C69.9299-45.5116 71.6663-43.9667 75.0701-43.1296ZM81.0071-27.82L81.0071-18.0546C84.9563-18.5608 87.1324-20.2233 87.1324-22.9177C87.1324-25.3828 85.6205-26.7393 81.7318-27.6528Z"/>
  </g>
  <g id="Heavy-L" transform="matrix(1 0 0 1 2559.92 1556)">
   <path d="M38.8315 25.5159L114.705 25.5159C129.348 25.5159 137.453 17.4 137.453 2.85894L137.453-73.2263C137.453-87.7674 129.348-95.8832 114.705-95.8832L38.8315-95.8832C24.2188-95.8832 16.084-87.7786 16.084-73.2263L16.084 2.85894C16.084 17.4112 24.2188 25.5159 38.8315 25.5159ZM77.2297 0.828196C75.5957 0.828196 74.4419-0.334507 74.4419-2.04331L74.4419-6.12333C63.725-6.75677 57.3195-11.9569 55.3841-17.8039C54.9612-18.793 54.8059-19.7676 54.8059-20.6475C54.8059-24.0268 57.0767-26.3868 60.93-26.3868C63.8348-26.3868 65.736-24.9231 67.0553-22.2634C68.0439-19.5177 70.3825-17.4562 74.4419-16.8618L74.4419-29.8539L71.997-30.422C60.8683-32.8447 54.9469-37.9499 54.9469-47.0002C54.9469-56.898 63.0702-63.4583 74.4419-64.3073L74.4419-68.4929C74.4419-70.2073 75.5901-71.3398 77.2297-71.3398C78.8135-71.3398 80.0176-70.2017 80.0176-68.4929L80.0176-64.3073C89.8293-63.435 96.3534-58.515 98.1782-52.3118C98.4673-51.432 98.6672-50.4573 98.6672-49.5272C98.6672-46.4213 96.3518-44.2844 92.7662-44.2844C89.9494-44.2844 88.0193-45.64 86.5014-48.2739C85.3274-51.0227 83.1721-52.8248 80.0176-53.3834L80.0176-40.9941L82.7064-40.4393C94.3152-38.1632 100.098-33.0554 100.098-23.894C100.098-13.5958 91.912-7.06913 80.0176-6.13216L80.0176-2.04331C80.0176-0.34012 78.8135 0.828196 77.2297 0.828196ZM74.4419-42.3635L74.4419-53.5619C70.4789-53.0768 67.992-50.8825 67.992-48.0291C67.992-45.293 69.9579-43.5105 73.9706-42.444ZM80.0176-28.5894L80.0176-16.8618C84.6324-17.4148 87.1092-19.5334 87.1092-22.701C87.1092-25.5892 85.4003-27.2704 80.8939-28.3714Z"/>
  </g>
  <g id="Bold-L" transform="matrix(1 0 0 1 2264.35 1556)">
   <path d="M37.5412 24.3865L113.714 24.3865C127.667 24.3865 135.171 16.8555 135.171 3.04324L135.171-73.3953C135.171-87.2076 127.667-94.7386 113.714-94.7386L37.5412-94.7386C23.6265-94.7386 16.084-87.2341 16.084-73.3953L16.084 3.04324C16.084 16.882 23.6265 24.3865 37.5412 24.3865ZM75.9386 0.986273C74.3265 0.986273 73.1485-0.169738 73.1485-1.849L73.1485-6.19004C63.1032-6.86249 56.4501-11.9539 54.5834-18.364C54.2606-19.2145 54.113-20.0738 54.113-20.8615C54.113-23.7721 56.0766-25.7941 59.2688-25.7941C61.7585-25.7941 63.4065-24.5228 64.4801-22.0927C65.477-18.6561 68.3519-16.0876 73.1485-15.4311L73.1485-30.8536L71.3599-31.2905C60.3844-33.7366 54.6316-38.7424 54.6316-47.4094C54.6316-56.8543 62.3847-63.2301 73.1485-64.1262L73.1485-68.412C73.1485-70.1045 74.3133-71.2225 75.9386-71.2225C77.5082-71.2225 78.7287-70.0913 78.7287-68.412L78.7287-64.1262C88.0313-63.2609 94.5789-58.3641 96.3271-51.9363C96.5623-51.1486 96.7392-50.2893 96.7392-49.4592C96.7392-46.7371 94.7463-44.861 91.7294-44.861C89.2425-44.861 87.612-46.1251 86.4172-48.4749C85.2347-51.8623 82.5736-54.0942 78.7287-54.6995L78.7287-40.0719L80.8836-39.6333C92.2932-37.4194 98.0007-32.3025 98.0007-23.3777C98.0007-13.3773 89.9979-7.06691 78.7287-6.16802L78.7287-1.849C78.7287-0.182968 77.5082 0.986273 75.9386 0.986273ZM73.1485-41.4735L73.1485-54.8163C68.5557-54.2227 65.602-51.5595 65.602-48.1922C65.602-44.9495 67.8969-42.8823 72.6924-41.5539ZM78.7287-29.5571L78.7287-15.4311C84.1658-16.0232 87.086-18.7028 87.086-22.4694C87.086-25.895 85.0791-27.961 79.7746-29.2851Z"/>
  </g>
  <g id="Semibold-L" transform="matrix(1 0 0 1 1968.43 1556)">
   <path d="M36.6517 23.608L113.03 23.608C126.507 23.608 133.598 16.4801 133.598 3.17029L133.598-73.5119C133.598-86.8217 126.507-93.9496 113.03-93.9496L36.6517-93.9496C23.2182-93.9496 16.084-86.8587 16.084-73.5119L16.084 3.17029C16.084 16.5171 23.2182 23.608 36.6517 23.608ZM75.0485 1.09525C73.4515 1.09525 72.2568-0.0561464 72.2568-1.71504L72.2568-6.23602C62.6745-6.93537 55.8507-11.9519 54.0314-18.7501C53.7776-19.5051 53.6353-20.2849 53.6353-21.009C53.6353-23.5965 55.3872-25.3856 58.1235-25.3856C60.3272-25.3856 61.8006-24.2468 62.7047-21.975C63.7074-18.0621 66.9521-15.1441 72.2568-14.4448L72.2568-31.5427L70.9208-31.8892C60.0507-34.3515 54.4143-39.2888 54.4143-47.6916C54.4143-56.8242 61.9121-63.0728 72.2568-64.0013L72.2568-68.3563C72.2568-70.0337 73.433-71.1417 75.0485-71.1417C76.6084-71.1417 77.8401-70.0152 77.8401-68.3563L77.8401-64.0013C86.7918-63.1409 93.3555-58.2601 95.051-51.6775C95.2491-50.9533 95.41-50.1735 95.41-49.4123C95.41-46.9548 93.6395-45.2586 91.0146-45.2586C88.7552-45.2586 87.3313-46.4595 86.3592-48.6134C85.1708-52.441 82.1609-54.9693 77.8401-55.6067L77.8401-39.4361L79.6269-39.0775C90.8993-36.9066 96.5545-31.7834 96.5545-23.0218C96.5545-13.2267 88.6783-7.06538 77.8401-6.19275L77.8401-1.71504C77.8401-0.0746279 76.6084 1.09525 75.0485 1.09525ZM72.2568-40.8599L72.2568-55.681C67.2299-55.0126 63.9543-52.0262 63.9543-48.3047C63.9543-44.7127 66.476-42.4493 71.8113-40.9403ZM77.8401-30.2243L77.8401-14.4448C83.844-15.0638 87.07-18.1302 87.07-22.3097C87.07-26.1058 84.8577-28.437 79.0029-29.9149Z"/>
  </g>
  <g id="Medium-L" transform="matrix(1 0 0 1 1672.31 1556)">
   <path d="M35.9773 23.0176L112.512 23.0176C125.628 23.0176 132.405 16.1955 132.405 3.26662L132.405-73.6003C132.405-86.5291 125.628-93.3513 112.512-93.3513L35.9773-93.3513C22.9086-93.3513 16.084-86.574 16.084-73.6003L16.084 3.26662C16.084 16.2404 22.9086 23.0176 35.9773 23.0176ZM74.3735 1.17788C72.7881 1.17788 71.5808 0.0299831 71.5808-1.61347L71.5808-6.27089C62.3495-6.99063 55.3962-11.9503 53.6129-19.0429C53.4114-19.7255 53.273-20.4449 53.273-21.1209C53.273-23.4633 54.8645-25.0758 57.2552-25.0758C59.2419-25.0758 60.5829-24.0375 61.3586-21.8858C62.3656-17.6117 65.8907-14.4287 71.5808-13.697L71.5808-32.0653L70.5878-32.3432C59.7978-34.8177 54.2495-39.703 54.2495-47.9055C54.2495-56.8014 61.5538-62.9536 71.5808-63.9066L71.5808-68.314C71.5808-69.98 72.7656-71.0804 74.3735-71.0804C75.9261-71.0804 77.1663-69.9575 77.1663-68.314L77.1663-63.9066C85.852-63.0499 92.4279-58.1812 94.0834-51.4812C94.2533-50.8052 94.4022-50.0858 94.4022-49.3768C94.4022-47.1199 92.8002-45.56 90.4726-45.56C88.3856-45.56 87.1184-46.713 86.3152-48.7185C85.1224-52.8799 81.848-55.6329 77.1663-56.2947L77.1663-38.954L78.6741-38.6562C89.8423-36.5177 95.4579-31.3898 95.4579-22.752C95.4579-13.1125 87.6778-7.06422 77.1663-6.2115L77.1663-1.61347C77.1663 0.00751993 75.9261 1.17788 74.3735 1.17788ZM71.5808-40.3946L71.5808-56.3367C66.2246-55.6116 62.705-52.3801 62.705-48.3899C62.705-44.5331 65.3987-42.121 71.1432-40.475ZM77.1663-30.7301L77.1663-13.697C83.6001-14.3363 87.0578-17.696 87.0578-22.1886C87.0578-26.2656 84.6897-28.798 78.4178-30.3925Z"/>
  </g>
  <g id="Regular-L" transform="matrix(1 0 0 1 1376.38 1556)">
   <path d="M35.0976 22.2476L111.836 22.2476C124.482 22.2476 130.85 15.8242 130.85 3.39227L130.85-73.7155C130.85-86.1475 124.482-92.5709 111.836-92.5709L35.0976-92.5709C22.5048-92.5709 16.084-86.2028 16.084-73.7155L16.084 3.39227C16.084 15.8795 22.5048 22.2476 35.0976 22.2476ZM73.4932 1.28566C71.9227 1.28566 70.6989 0.142326 70.6989-1.48098L70.6989-6.31637C61.9255-7.06271 54.8034-11.9483 53.0669-19.4248C52.9338-20.0129 52.8006-20.6537 52.8006-21.2668C52.8006-23.2897 54.1826-24.6717 56.1225-24.6717C57.8262-24.6717 58.9947-23.7646 59.6027-21.7694C60.6154-17.0242 64.5062-13.4955 70.6989-12.7215L70.6989-32.7469L70.1534-32.9354C59.4678-35.4258 54.0345-40.2434 54.0345-48.1846C54.0345-56.7716 61.0864-62.798 70.6989-63.7831L70.6989-68.2589C70.6989-69.9099 71.895-71.0005 73.4932-71.0005C75.0361-71.0005 76.2875-69.8822 76.2875-68.2589L76.2875-63.7831C84.6261-62.9312 91.218-58.0784 92.8213-51.2252C92.9544-50.6121 93.0876-49.9712 93.0876-49.3304C93.0876-47.3352 91.7056-45.9532 89.7657-45.9532C87.9037-45.9532 86.8408-47.0438 86.2578-48.8556C85.0592-53.4523 81.4399-56.4984 76.2875-57.192L76.2875-38.3253L77.4312-38.1066C88.4637-36.0105 94.0276-30.8764 94.0276-22.4C94.0276-12.9636 86.3728-7.06271 76.2875-6.23595L76.2875-1.48098C76.2875 0.114669 75.0361 1.28566 73.4932 1.28566ZM70.6989-39.7877L70.6989-57.192C64.9134-56.3929 61.0754-52.8417 61.0754-48.5011C61.0754-44.2989 63.9935-41.6927 70.2717-39.8681ZM76.2875-31.3899L76.2875-12.7215C83.2819-13.3874 87.042-17.1297 87.042-22.0306C87.042-26.4741 84.4707-29.2688 77.6546-31.0155Z"/>
  </g>
  <g id="Light-L" transform="matrix(1 0 0 1 1080.5 1556)">
   <path d="M34.067 21.4269L111.206 21.4269C123.088 21.4269 129.189 15.2326 129.189 3.54496L129.189-73.83C129.189-85.5176 123.088-91.712 111.206-91.712L34.067-91.712C22.2185-91.712 16.084-85.6111 16.084-73.83L16.084 3.54496C16.084 15.3261 22.2185 21.4269 34.067 21.4269ZM72.6535 0.484079C71.331 0.484079 70.3172-0.449318 70.3172-1.80543L70.3172-6.86985C61.372-7.52076 54.4408-12.559 52.8379-19.9783C52.7238-20.5282 52.6097-21.1117 52.6097-21.6485C52.6097-23.3469 53.7246-24.4618 55.2828-24.4618C56.7193-24.4618 57.6396-23.65 58.0568-21.9984C58.9359-16.6425 63.5138-12.7321 70.3172-12.0345L70.3172-33.2813L69.5618-33.4888C59.1052-35.9221 53.8628-40.5678 53.8628-48.051C53.8628-56.2372 60.9528-62.1491 70.3172-62.9815L70.3172-67.4383C70.3172-68.8411 71.2843-69.7408 72.6535-69.7408C73.9292-69.7408 74.9897-68.7944 74.9897-67.4383L74.9897-62.9815C83.3664-62.2632 89.9011-57.3913 91.3899-50.7481C91.504-50.2113 91.6181-49.6277 91.6181-49.0442C91.6181-47.3925 90.5032-46.2776 88.945-46.2776C87.4075-46.2776 86.5545-47.1774 86.1242-48.7411C85.0973-53.624 80.8673-57.0519 74.9897-57.6691L74.9897-37.7145L76.5342-37.4004C87.2995-35.1899 92.5962-30.342 92.5962-22.3427C92.5962-13.498 85.2086-7.52076 74.9897-6.78943L74.9897-1.80543C74.9897-0.49606 73.9292 0.484079 72.6535 0.484079ZM70.3172-38.9098L70.3172-57.6691C64.0355-56.9845 59.4913-53.147 59.4913-48.253C59.4913-43.5927 62.9247-40.8529 69.9282-38.9902ZM74.9897-32.1533L74.9897-12.0345C82.5376-12.6049 87.0611-16.7098 87.0611-22.107C87.0611-27.0085 83.9363-29.9559 76.3569-31.798Z"/>
  </g>
  <g id="Thin-L" transform="matrix(1 0 0 1 784.884 1556)">
   <path d="M32.7039 20.3415L110.373 20.3415C121.246 20.3415 126.993 14.4501 126.993 3.74689L126.993-73.9815C126.993-84.6847 121.246-90.5761 110.373-90.5761L32.7039-90.5761C21.8399-90.5761 16.084-84.8286 16.084-73.9815L16.084 3.74689C16.084 14.594 21.8399 20.3415 32.7039 20.3415ZM71.5428-0.576077C70.5485-0.576077 69.8124-1.23181 69.8124-2.23454L69.8124-7.60186C60.64-8.12656 53.9612-13.3668 52.535-20.7103C52.4462-21.2097 52.3573-21.7175 52.3573-22.1534C52.3573-23.4227 53.1188-24.1841 54.1721-24.1841C55.2553-24.1841 55.8475-23.4986 56.0122-22.3013C56.7146-16.1376 62.2012-11.7224 69.8124-11.1257L69.8124-33.988L68.7793-34.2209C58.6256-36.5783 53.6356-40.9969 53.6356-47.8743C53.6356-55.5305 60.7761-61.2909 69.8124-61.9213L69.8124-66.3529C69.8124-67.4276 70.4765-68.0749 71.5428-68.0749C72.4651-68.0749 73.2733-67.3556 73.2733-66.3529L73.2733-61.9213C81.7005-61.3798 88.1594-56.4826 89.4967-50.117C89.5856-49.6812 89.6744-49.1734 89.6744-48.6655C89.6744-47.4682 88.913-46.7068 87.8596-46.7068C86.7512-46.7068 86.1759-47.3541 85.9475-48.5896C85.1478-53.8512 80.1101-57.7839 73.2733-58.3002L73.2733-36.9068L75.3479-36.4665C85.7597-34.1045 90.703-29.6353 90.703-22.267C90.703-14.2047 83.6688-8.12656 73.2733-7.52144L73.2733-2.23454C73.2733-1.3038 72.4651-0.576077 71.5428-0.576077ZM69.8124-37.7487L69.8124-58.3002C62.8743-57.767 57.3962-53.5509 57.3962-47.9249C57.3962-42.6588 61.5111-39.7423 69.4738-37.8291ZM73.2733-33.163L73.2733-11.1257C81.5531-11.57 87.0863-16.1545 87.0863-22.2079C87.0863-27.7153 83.2296-30.8646 74.6404-32.8329Z"/>
  </g>
  <g id="Ultralight-L" transform="matrix(1 0 0 1 488.735 1556)">
   <path d="M32.0058 19.7856L109.947 19.7856C120.302 19.7856 125.868 14.0493 125.868 3.85032L125.868-74.0591C125.868-84.258 120.302-89.9943 109.947-89.9943L32.0058-89.9943C21.646-89.9943 16.084-84.4278 16.084-74.0591L16.084 3.85032C16.084 14.2191 21.646 19.7856 32.0058 19.7856ZM70.974-1.11908C70.1477-1.11908 69.5538-1.6326 69.5538-2.45433L69.5538-7.97679C60.2651-8.43685 53.7156-13.7805 52.3799-21.0852C52.304-21.5588 52.228-22.0278 52.228-22.4119C52.228-23.4615 52.8085-24.0419 53.6033-24.0419C54.5054-24.0419 54.9295-23.421 54.965-22.4564C55.5769-15.8791 61.5289-11.2053 69.5538-10.6603L69.5538-34.35L68.3785-34.5958C58.3799-36.9145 53.5192-41.2167 53.5192-47.7838C53.5192-55.1685 60.6856-60.8513 69.5538-61.3783L69.5538-65.7969C69.5538-66.7036 70.0628-67.2216 70.974-67.2216C71.7153-67.2216 72.3941-66.6187 72.3941-65.7969L72.3941-61.3783C80.8472-60.9273 87.2673-56.0171 88.5271-49.7938C88.603-49.4097 88.6789-48.9406 88.6789-48.4716C88.6789-47.507 88.0985-46.9265 87.3037-46.9265C86.415-46.9265 85.9819-47.4446 85.857-48.512C85.1737-53.9676 79.7222-58.1588 72.3941-58.6234L72.3941-36.4931L74.7402-35.9881C84.9711-33.5485 89.7334-29.2733 89.7334-22.2282C89.7334-14.5667 82.8802-8.43685 72.3941-7.89637L72.3941-2.45433C72.3941-1.71752 71.7153-1.11908 70.974-1.11908ZM69.5538-37.154L69.5538-58.6234C62.2796-58.1678 56.3232-53.7577 56.3232-47.7568C56.3232-42.1804 60.7871-39.1734 69.2411-37.2344ZM72.3941-33.6802L72.3941-10.6603C81.0489-11.0399 87.0993-15.8701 87.0993-22.2596C87.0993-28.0773 82.8676-31.33 73.7613-33.363Z"/>
  </g>
  <g id="Black-M" transform="matrix(1 0 0 1 2872.54 1126)">
   <path d="M31.6184 13.203L90.1011 13.203C102.194 13.203 109.259 6.13889 109.259-5.93804L109.259-64.4592C109.259-76.5361 102.194-83.6002 90.1011-83.6002L31.6184-83.6002C19.5311-83.6002 12.4609-76.5356 12.4609-64.4592L12.4609-5.93804C12.4609 6.13832 19.5311 13.203 31.6184 13.203ZM61.4335-7.79784C60.22-7.79784 59.4327-8.63696 59.4327-9.91306L59.4327-12.7707C50.0904-13.172 45.5545-17.4114 44.0001-21.0992C43.5327-22.055 43.4078-22.9592 43.4078-23.7494C43.4078-26.9418 45.5247-29.1729 49.346-29.1729C52.1118-29.1729 53.8702-27.7906 55.1865-25.5115C55.8946-24.1857 57.1568-23.1993 59.4327-22.8554L59.4327-29.7863L56.5083-30.4245C47.7408-32.2478 42.9718-36.2898 42.9718-43.7054C42.9718-51.8989 49.8191-57.2119 59.4327-57.7491L59.4327-60.8388C59.4327-62.1146 60.2203-62.9482 61.4335-62.9482C62.5902-62.9482 63.4342-62.1149 63.4342-60.8388L63.4342-57.7491C71.7923-57.1084 76.7932-53.2563 78.2798-48.8499C78.5759-48.0597 78.7579-47.1555 78.7579-46.3084C78.7579-43.4584 76.5839-41.5127 73.1052-41.5127C70.5513-41.5127 68.6897-42.6318 67.0937-45.0029C66.2552-46.2972 65.1165-47.1953 63.4342-47.534L63.4342-40.8349L66.4337-40.203C75.6276-38.3097 80.1279-34.4632 80.1279-27.1821C80.1279-18.97 73.608-13.5716 63.4342-12.8226L63.4342-9.91306C63.4342-8.63668 62.5902-7.79784 61.4335-7.79784ZM59.4327-41.758L59.4327-47.7624C57.1136-47.584 55.6286-46.4715 55.6286-44.8232C55.6286-43.2876 56.8464-42.2769 59.0584-41.8203ZM63.4342-28.9313L63.4342-22.8554C65.9967-23.1944 67.5276-24.1396 67.5276-25.8876C67.5276-27.4959 66.4506-28.2883 63.8653-28.8479Z"/>
  </g>
  <g id="Heavy-M" transform="matrix(1 0 0 1 2576.65 1126)">
   <path d="M30.7123 12.3923L89.37 12.3923C101.024 12.3923 107.621 5.79013 107.621-5.80979L107.621-64.5823C107.621-76.1823 101.024-82.7845 89.37-82.7845L30.7123-82.7845C19.075-82.7845 12.4609-76.1868 12.4609-64.5823L12.4609-5.80979C12.4609 5.79468 19.075 12.3923 30.7123 12.3923ZM60.4855-7.48752C59.2379-7.48752 58.3845-8.36588 58.3845-9.67356L58.3845-12.7101C49.6659-13.1659 44.8726-17.2776 43.3496-21.4698C42.9656-22.3127 42.8432-23.1284 42.8432-23.8545C42.8432-26.707 44.7492-28.7001 48.0747-28.7001C50.5352-28.7001 52.1256-27.4653 53.2681-25.3131C54.0122-23.5147 55.5955-22.1673 58.3845-21.7528L58.3845-30.5451L56.0787-31.0646C47.3958-32.9207 42.7331-36.9126 42.7331-44.0917C42.7331-51.9755 49.2487-57.152 58.3845-57.763L58.3845-60.9444C58.3845-62.2544 59.2356-63.1163 60.4855-63.1163C61.6873-63.1163 62.5866-62.2521 62.5866-60.9444L62.5866-57.763C70.4917-57.0998 75.5253-53.272 76.9696-48.6243C77.2228-47.8982 77.3887-47.0825 77.3887-46.3105C77.3887-43.7221 75.4392-41.947 72.3754-41.947C70.0402-41.947 68.3953-43.027 67.0489-45.2032C66.166-46.994 64.7164-48.1857 62.5866-48.5815L62.5866-40.1602L65.0335-39.6503C74.1106-37.836 78.6021-33.92 78.6021-26.7433C78.6021-18.6643 72.1854-13.4713 62.5866-12.735L62.5866-9.67356C62.5866-8.36815 61.6873-7.48752 60.4855-7.48752ZM58.3845-41.1687L58.3845-48.756C55.6216-48.4582 53.8802-46.9975 53.8802-45.019C53.8802-43.1391 55.2749-41.9084 58.0152-41.231ZM62.5866-29.613L62.5866-21.7528C65.7488-22.1463 67.5032-23.5039 67.5032-25.6687C67.5032-27.6483 66.2847-28.7442 63.166-29.4782Z"/>
  </g>
  <g id="Bold-M" transform="matrix(1 0 0 1 2280.85 1126)">
   <path d="M29.6986 11.4855L88.5521 11.4855C99.7145 11.4855 105.79 5.39999 105.79-5.66632L105.79-64.7201C105.79-75.7864 99.7145-81.8719 88.5521-81.8719L29.6986-81.8719C18.5648-81.8719 12.4609-75.7967 12.4609-64.7201L12.4609-5.66632C12.4609 5.41026 18.5648 11.4855 29.6986 11.4855ZM59.4251-7.14037C58.1393-7.14037 57.2118-8.06264 57.2118-9.40564L57.2118-12.6423C49.191-13.1592 44.1098-17.128 42.6219-21.8844C42.3312-22.601 42.2117-23.3176 42.2117-23.972C42.2117-26.4442 43.8816-28.1713 46.6525-28.1713C48.7715-28.1713 50.174-27.1015 51.1221-25.0912C51.9065-22.7641 53.849-21.0128 57.2118-20.5193L57.2118-31.3939L55.5981-31.7806C47.0098-33.6733 42.4662-37.6094 42.4662-44.5239C42.4662-52.0613 48.6107-57.0849 57.2118-57.7785L57.2118-61.0626C57.2118-62.4107 58.1342-63.3044 59.4251-63.3044C60.6773-63.3044 61.6385-62.4056 61.6385-61.0626L61.6385-57.7785C69.0367-57.0901 74.107-53.2896 75.504-48.3719C75.7091-47.7175 75.8571-47.0009 75.8571-46.3128C75.8571-44.017 74.1586-42.4327 71.5591-42.4327C69.4684-42.4327 68.066-43.4691 66.9987-45.4272C66.0662-47.7734 64.2688-49.2936 61.6385-49.7534L61.6385-39.4054L63.4671-39.0319C72.4137-37.306 76.8953-33.3124 76.8953-26.2523C76.8953-18.3223 70.594-13.3591 61.6385-12.6371L61.6385-9.40564C61.6385-8.06777 60.6773-7.14037 59.4251-7.14037ZM57.2118-40.5096L57.2118-49.8676C53.9525-49.4362 51.9245-47.586 51.9245-45.2381C51.9245-42.973 53.5169-41.4961 56.8483-40.5719ZM61.6385-30.3755L61.6385-20.5193C65.4714-20.9739 67.4759-22.7928 67.4759-25.4239C67.4759-27.8188 66.0991-29.2542 62.3836-30.1833Z"/>
  </g>
  <g id="Semibold-M" transform="matrix(1 0 0 1 1984.77 1126)">
   <path d="M28.9998 10.8604L87.9882 10.8604C98.812 10.8604 104.527 5.13104 104.527-5.56741L104.527-64.8151C104.527-75.5135 98.812-81.2428 87.9882-81.2428L28.9998-81.2428C18.2131-81.2428 12.4609-75.5277 12.4609-64.8151L12.4609-5.56741C12.4609 5.14525 18.2131 10.8604 28.9998 10.8604ZM58.6941-6.90105C57.382-6.90105 56.4034-7.85358 56.4034-9.22094L56.4034-12.5955C48.8637-13.1546 43.584-17.0248 42.1202-22.1702C41.8938-22.7997 41.7763-23.448 41.7763-24.053C41.7763-26.2631 43.2836-27.8066 45.6721-27.8066C47.5556-27.8066 48.8286-26.8507 49.6426-24.9382C50.4548-22.2467 52.6449-20.2169 56.4034-19.6689L56.4034-31.9791L55.2668-32.2743C46.7437-34.1922 42.2822-38.0898 42.2822-44.8219C42.2822-52.1204 48.1709-57.0386 56.4034-57.7892L56.4034-61.1441C56.4034-62.5185 57.3749-63.434 58.6941-63.434C59.981-63.434 60.9848-62.5114 60.9848-61.1441L60.9848-57.7892C68.0337-57.0835 73.1292-53.3018 74.4936-48.1979C74.6656-47.593 74.8012-46.9446 74.8012-46.3144C74.8012-44.2204 73.2758-42.7676 70.9963-42.7676C69.0742-42.7676 67.839-43.7739 66.9641-45.5816C65.9974-48.3107 63.9603-50.0575 60.9848-50.5613L60.9848-38.8851L62.3872-38.6057C71.2439-36.9406 75.7187-32.8935 75.7187-25.9139C75.7187-18.0865 69.4969-13.2817 60.9848-12.5696L60.9848-9.22094C60.9848-7.86069 59.981-6.90105 58.6941-6.90105ZM56.4034-40.0552L56.4034-50.6339C52.8019-50.1105 50.5762-47.9916 50.5762-45.3891C50.5762-42.8584 52.305-41.2119 56.0438-40.1175ZM60.9848-30.9013L60.9848-19.6689C65.2802-20.1657 67.4571-22.3026 67.4571-25.2552C67.4571-27.9364 65.9711-29.6057 61.8443-30.6695Z"/>
  </g>
  <g id="Medium-M" transform="matrix(1 0 0 1 1688.54 1126)">
   <path d="M28.47 10.3864L87.5607 10.3864C98.1277 10.3864 103.57 4.9271 103.57-5.49242L103.57-64.8871C103.57-75.3066 98.1277-80.7658 87.5607-80.7658L28.47-80.7658C17.9464-80.7658 12.4609-75.3238 12.4609-64.8871L12.4609-5.49242C12.4609 4.9443 17.9464 10.3864 28.47 10.3864ZM58.1398-6.71958C56.8077-6.71958 55.7905-7.69507 55.7905-9.08089L55.7905-12.5601C48.6154-13.1511 43.1852-16.9466 41.7399-22.3869C41.5622-22.9504 41.4462-23.547 41.4462-24.1144C41.4462-26.1257 42.8301-27.5302 44.9287-27.5302C46.6337-27.5302 47.8085-26.6605 48.5209-24.8222C49.3541-21.8544 51.732-19.6134 55.7905-19.0242L55.7905-32.4228L55.0156-32.6485C46.542-34.5857 42.1427-38.454 42.1427-45.0478C42.1427-52.1652 47.8373-57.0035 55.7905-57.7973L55.7905-61.2059C55.7905-62.6003 56.7991-63.5323 58.1398-63.5323C59.453-63.5323 60.4892-62.5917 60.4892-61.2059L60.4892-57.7973C67.2732-57.0784 72.3878-53.311 73.7275-48.066C73.8743-47.4986 74.0006-46.902 74.0006-46.3156C74.0006-44.3746 72.6064-43.0215 70.5695-43.0215C68.7753-43.0215 67.6668-44.005 66.9379-45.6987C65.9452-48.7181 63.7263-50.6366 60.4892-51.1739L60.4892-38.4905L61.5684-38.2825C70.3569-36.6636 74.8265-32.5758 74.8265-25.6573C74.8265-17.9078 68.665-13.223 60.4892-12.5184L60.4892-9.08089C60.4892-7.70367 59.453-6.71958 58.1398-6.71958ZM55.7905-39.7106L55.7905-51.215C51.9294-50.6217 49.5538-48.2992 49.5538-45.5036C49.5538-42.7716 51.3861-40.9964 55.4338-39.773ZM60.4892-31.2999L60.4892-19.0242C65.1352-19.5528 67.4428-21.9309 67.4428-25.1272C67.4428-28.0255 65.8741-29.8723 61.4353-31.0381Z"/>
  </g>
  <g id="Regular-M" transform="matrix(1 0 0 1 1392.45 1126)">
   <path d="M27.7789 9.76808L87.003 9.76808C97.235 9.76808 102.321 4.6611 102.321-5.3946L102.321-64.981C102.321-75.0367 97.235-80.1437 87.003-80.1437L27.7789-80.1437C17.5986-80.1437 12.4609-75.0578 12.4609-64.981L12.4609-5.3946C12.4609 4.6822 17.5986 9.76808 27.7789 9.76808ZM57.4168-6.48289C56.0587-6.48289 54.9909-7.48831 54.9909-8.89822L54.9909-12.5139C48.2917-13.1465 42.6652-16.8446 41.2437-22.6696C41.1296-23.1469 41.0156-23.676 41.0156-24.1945C41.0156-25.9466 42.2386-27.1696 43.959-27.1696C45.4312-27.1696 46.4778-26.4124 47.0577-24.6709C47.9184-21.3426 50.5412-18.8263 54.9909-18.1832L54.9909-33.0016L54.688-33.1367C46.2788-35.0988 41.9607-38.9291 41.9607-45.3425C41.9607-52.2236 47.4023-56.9578 54.9909-57.8079L54.9909-61.2864C54.9909-62.7069 56.0481-63.6606 57.4168-63.6606C58.7644-63.6606 59.8427-62.6963 59.8427-61.2864L59.8427-57.8079C66.2812-57.0718 71.4208-53.323 72.7282-47.8939C72.8423-47.3754 72.9563-46.8463 72.9563-46.3172C72.9563-44.5757 71.7333-43.3527 70.0129-43.3527C68.3854-43.3527 67.4423-44.3064 66.9037-45.8514C65.8772-49.2495 63.4212-51.392 59.8427-51.9729L59.8427-37.9759L60.5004-37.8609C69.1999-36.3023 73.6628-32.1615 73.6628-25.3225C73.6628-17.6746 67.58-13.1465 59.8427-12.4516L59.8427-8.89822C59.8427-7.49886 58.7644-6.48289 57.4168-6.48289ZM54.9909-39.2612L54.9909-51.9729C50.7914-51.2885 48.2204-48.7004 48.2204-45.653C48.2204-42.6583 50.1875-40.7153 54.6382-39.3235ZM59.8427-31.8198L59.8427-18.1832C64.9461-18.7534 67.4242-21.4461 67.4242-24.9603C67.4242-28.1418 65.7475-30.22 60.9019-31.5188Z"/>
  </g>
  <g id="Light-M" transform="matrix(1 0 0 1 1096.49 1126)">
   <path d="M26.8549 9.03231L86.4383 9.03231C95.9859 9.03231 100.832 4.13066 100.832-5.25771L100.832-65.0836C100.832-74.472 95.9859-79.3737 86.4383-79.3737L26.8549-79.3737C17.3419-79.3737 12.4609-74.5273 12.4609-65.0836L12.4609-5.25771C12.4609 4.18599 17.3419 9.03231 26.8549 9.03231ZM56.6639-7.20155C55.5282-7.20155 54.6487-8.01875 54.6487-9.1891L54.6487-13.0101C47.7955-13.5571 42.34-17.3921 41.0384-23.1658C40.9414-23.6089 40.8445-24.0866 40.8445-24.5367C40.8445-25.9979 41.8279-26.9814 43.2061-26.9814C44.4388-26.9814 45.263-26.3097 45.6717-24.8762C46.4126-21.0004 49.6514-18.1419 54.6487-17.5672L54.6487-33.4807L54.1575-33.633C45.9537-35.5437 41.8067-39.22 41.8067-45.2227C41.8067-51.7445 47.2825-56.376 54.6487-57.0893L54.6487-60.5507C54.6487-61.7487 55.5006-62.5312 56.6639-62.5312C57.772-62.5312 58.6791-61.721 58.6791-60.5507L58.6791-57.0893C65.1518-56.4729 70.2402-52.707 71.4449-47.4662C71.5418-47.0161 71.6388-46.5383 71.6388-46.0606C71.6388-44.627 70.6553-43.6436 69.2771-43.6436C67.9406-43.6436 67.1857-44.4262 66.7839-45.7488C65.9114-49.4035 62.9078-51.8882 58.6791-52.4006L58.6791-37.4284L59.6962-37.2278C68.1562-35.5665 72.3795-31.6824 72.3795-25.2712C72.3795-18.1537 66.5363-13.5571 58.6791-12.9478L58.6791-9.1891C58.6791-8.04641 57.772-7.20155 56.6639-7.20155ZM54.6487-38.4741L54.6487-52.4006C50.0043-51.8189 46.8001-48.9741 46.8001-45.4305C46.8001-42.0252 49.2292-39.9625 54.3302-38.5364ZM58.6791-32.5042L58.6791-17.5672C64.2788-18.0519 67.4413-21.0697 67.4413-25.0287C67.4413-28.6209 65.2684-30.836 59.7383-32.2204Z"/>
  </g>
  <g id="Thin-M" transform="matrix(1 0 0 1 800.76 1126)">
   <path d="M25.6328 8.0592L85.6915 8.0592C94.3339 8.0592 98.8634 3.42911 98.8634-5.07666L98.8634-65.2194C98.8634-73.7252 94.3339-78.3553 85.6915-78.3553L25.6328-78.3553C17.0024-78.3553 12.4609-73.8258 12.4609-65.2194L12.4609-5.07666C12.4609 3.5297 17.0024 8.0592 25.6328 8.0592ZM55.6682-8.15203C54.8267-8.15203 54.1961-8.7203 54.1961-9.57382L54.1961-13.6664C47.1392-14.1003 41.9101-18.1163 40.7668-23.8221C40.6925-24.2199 40.6182-24.6298 40.6182-24.9893C40.6182-26.0658 41.2848-26.7324 42.2104-26.7324C43.1262-26.7324 43.6562-26.1739 43.8386-25.1477C44.4211-20.5478 48.4746-17.2366 54.1961-16.7525L54.1961-34.1143L53.456-34.2892C45.5237-36.1321 41.603-39.6047 41.603-45.0643C41.603-51.1109 47.1241-55.6066 54.1961-56.1388L54.1961-59.5776C54.1961-60.4814 54.7764-61.0376 55.6682-61.0376C56.4594-61.0376 57.1403-60.4311 57.1403-59.5776L57.1403-56.1388C63.6582-55.6809 68.6786-51.8923 69.7476-46.9004C69.8219-46.5408 69.8962-46.131 69.8962-45.7211C69.8962-44.6949 69.2296-44.0283 68.304-44.0283C67.3522-44.0283 66.8462-44.5846 66.6255-45.613C65.9566-49.6072 62.2289-52.5445 57.1403-52.9664L57.1403-36.7042L58.6325-36.3904C66.7757-34.5934 70.6822-31.0487 70.6822-25.2033C70.6822-18.7874 65.1558-14.1003 57.1403-13.6041L57.1403-9.57382C57.1403-8.77059 56.4594-8.15203 55.6682-8.15203ZM54.1961-37.4331L54.1961-52.9664C48.9633-52.5205 44.9218-49.3362 44.9218-45.1363C44.9218-41.1879 47.9619-38.9667 53.9229-37.4954ZM57.1403-33.4095L57.1403-16.7525C63.3962-17.124 67.464-20.5718 67.464-25.1192C67.464-29.2546 64.6348-31.6507 58.1994-33.1482Z"/>
  </g>
  <g id="Ultralight-M" transform="matrix(1 0 0 1 504.553 1126)">
   <path d="M25.0069 7.56077L85.309 7.56077C93.4878 7.56077 97.855 3.06978 97.855-4.98393L97.855-65.289C97.855-73.3427 93.4878-77.8337 85.309-77.8337L25.0069-77.8337C16.8286-77.8337 12.4609-73.4665 12.4609-65.289L12.4609-4.98393C12.4609 3.19355 16.8286 7.56077 25.0069 7.56077ZM55.1582-8.63887C54.4673-8.63887 53.9643-9.07963 53.9643-9.77087L53.9643-14.0025C46.803-14.3785 41.6898-18.4872 40.6277-24.1582C40.565-24.5329 40.5023-24.908 40.5023-25.2212C40.5023-26.1006 41.0066-26.6049 41.7004-26.6049C42.4539-26.6049 42.8332-26.1044 42.8997-25.2868C43.4011-20.3159 47.8719-16.773 53.9643-16.3352L53.9643-34.4389L53.0966-34.6254C45.3035-36.4335 41.4987-39.8017 41.4987-44.9831C41.4987-50.7863 47.043-55.2125 53.9643-55.652L53.9643-59.0791C53.9643-59.8323 54.4055-60.2726 55.1582-60.2726C55.7871-60.2726 56.3521-59.7704 56.3521-59.0791L56.3521-55.652C62.8932-55.2752 67.8788-51.475 68.8782-46.6106C68.941-46.2974 69.0037-45.9223 69.0037-45.5472C69.0037-44.7297 68.4994-44.2254 67.8056-44.2254C67.0508-44.2254 66.6723-44.6657 66.5444-45.5434C65.9798-49.7115 61.8812-52.8807 56.3521-53.2562L56.3521-36.3333L58.0877-35.9616C66.0686-34.095 69.8128-30.7242 69.8128-25.1685C69.8128-19.1119 64.4487-14.3785 56.3521-13.9402L56.3521-9.77087C56.3521-9.14151 55.7871-8.63887 55.1582-8.63887ZM53.9643-36.8999L53.9643-53.2562C48.4301-52.8798 43.9597-49.5217 43.9597-44.9856C43.9597-40.759 47.3128-38.4567 53.7142-36.9622ZM56.3521-33.8731L56.3521-16.3352C62.9441-16.6488 67.4756-20.3168 67.4756-25.1656C67.4756-29.5791 64.3102-32.068 57.4112-33.6235Z"/>
  </g>
  <g id="Black-S" transform="matrix(1 0 0 1 2885.5 696)">
   <path d="M25 2.92969L70.8008 2.92969C80.3711 2.92969 86.0352-2.73438 86.0352-12.3047L86.0352-58.1055C86.0352-67.6758 80.3711-73.3398 70.8008-73.3398L25-73.3398C15.4297-73.3398 9.76562-67.6758 9.76562-58.1055L9.76562-12.3047C9.76562-2.73438 15.4297 2.92969 25 2.92969ZM48.3887-13.8672C47.4609-13.8672 46.875-14.502 46.875-15.4785L46.875-17.6758C39.3555-17.9688 35.8887-21.3379 34.668-24.0723C34.2773-24.8535 34.1797-25.5859 34.1797-26.2207C34.1797-28.8086 35.8887-30.6152 39.0137-30.6152C41.2598-30.6152 42.6758-29.4922 43.75-27.6855C44.2871-26.7578 45.2148-26.0742 46.875-25.8301L46.875-30.7617L44.3848-31.2988C37.5-32.7148 33.7402-35.8887 33.7402-41.748C33.7402-48.2422 39.209-52.4414 46.875-52.832L46.875-55.2246C46.875-56.2012 47.4609-56.8359 48.3887-56.8359C49.2676-56.8359 49.9023-56.2012 49.9023-55.2246L49.9023-52.832C56.5918-52.3438 60.498-49.3164 61.6699-45.9473C61.9141-45.3125 62.0605-44.5801 62.0605-43.8965C62.0605-41.6016 60.3027-40.0391 57.4707-40.0391C55.4199-40.0391 53.9062-40.918 52.5879-42.8223C51.9531-43.7012 51.123-44.3359 49.9023-44.5801L49.9023-39.7949L52.4414-39.2578C59.668-37.7441 63.1836-34.7656 63.1836-29.0527C63.1836-22.6074 58.0566-18.3105 49.9023-17.7246L49.9023-15.4785C49.9023-14.502 49.2676-13.8672 48.3887-13.8672ZM46.875-40.4785L46.875-44.7754C45.166-44.6777 44.043-43.8965 44.043-42.6758C44.043-41.5527 44.9707-40.8203 46.582-40.5273ZM49.9023-30.127L49.9023-25.8301C51.7578-26.0742 52.9297-26.709 52.9297-27.9785C52.9297-29.1504 52.0996-29.6875 50.1953-30.0781Z"/>
  </g>
  <g id="Heavy-S" transform="matrix(1 0 0 1 2589.39 696)">
   <path d="M24.3431 2.33042L70.2476 2.33042C79.5298 2.33042 84.8251-2.96486 84.8251-12.2125L84.8251-58.1977C84.8251-67.4453 79.5298-72.7406 70.2476-72.7406L24.3431-72.7406C15.0724-72.7406 9.76562-67.4453 9.76562-58.1977L9.76562-12.2125C9.76562-2.96486 15.0724 2.33042 24.3431 2.33042ZM47.6742-13.5099C46.6888-13.5099 46.0222-14.2023 46.0222-15.2365L46.0222-17.5605C39.0558-17.9111 35.347-21.1535 34.1378-24.3258C33.8164-25.0149 33.7187-25.6781 33.7187-26.2668C33.7187-28.6012 35.2779-30.2349 38.0226-30.2349C40.0382-30.2349 41.3389-29.2271 42.2864-27.4896C42.8696-26.2277 43.9933-25.279 46.0222-24.9657L46.0222-31.3495L44.0851-31.7829C37.2465-33.2334 33.5558-36.3842 33.5558-42.0938C33.5558-48.369 38.7365-52.4645 46.0222-52.9358L46.0222-55.409C46.0222-56.4432 46.6888-57.124 47.6742-57.124C48.6222-57.124 49.3261-56.4432 49.3261-55.409L49.3261-52.9358C55.6237-52.4129 59.5646-49.4086 60.7134-45.809C60.923-45.2203 61.0579-44.557 61.0579-43.9311C61.0579-41.8205 59.4614-40.3733 56.9406-40.3733C55.0396-40.3733 53.6873-41.2407 52.5648-43.0067C51.8725-44.2774 50.8465-45.1196 49.3261-45.4214L49.3261-39.2878L51.3466-38.866C58.504-37.433 62.0427-34.3623 62.0427-28.684C62.0427-22.2847 56.9733-18.1723 49.3261-17.5863L49.3261-15.2365C49.3261-14.2023 48.6222-13.5099 47.6742-13.5099ZM46.0222-40.0752L46.0222-45.5706C43.9905-45.3577 42.7292-44.3114 42.7292-42.8717C42.7292-41.5066 43.7491-40.6013 45.7292-40.124ZM49.3261-30.6225L49.3261-24.9657C51.631-25.2675 52.9066-26.2134 52.9066-27.7826C52.9066-29.2195 52.0189-29.9987 49.7459-30.5276Z"/>
  </g>
  <g id="Bold-S" transform="matrix(1 0 0 1 2293.36 696)">
   <path d="M23.6084 1.66016L69.6289 1.66016C78.5889 1.66016 83.4717-3.22266 83.4717-12.1094L83.4717-58.3008C83.4717-67.1875 78.5889-72.0703 69.6289-72.0703L23.6084-72.0703C14.6729-72.0703 9.76562-67.1875 9.76562-58.3008L9.76562-12.1094C9.76562-3.22266 14.6729 1.66016 23.6084 1.66016ZM46.875-13.1104C45.8252-13.1104 45.0684-13.8672 45.0684-14.9658L45.0684-17.4316C38.7207-17.8467 34.7412-20.9473 33.5449-24.6094C33.3008-25.1953 33.2031-25.7812 33.2031-26.3184C33.2031-28.3691 34.5947-29.8096 36.9141-29.8096C38.6719-29.8096 39.8438-28.9307 40.6494-27.2705C41.2842-25.6348 42.627-24.3896 45.0684-23.999L45.0684-32.0068L43.75-32.3242C36.9629-33.8135 33.3496-36.9385 33.3496-42.4805C33.3496-48.5107 38.208-52.4902 45.0684-53.0518L45.0684-55.6152C45.0684-56.7139 45.8252-57.4463 46.875-57.4463C47.9004-57.4463 48.6816-56.7139 48.6816-55.6152L48.6816-53.0518C54.541-52.4902 58.5205-49.5117 59.6436-45.6543C59.8145-45.1172 59.9365-44.5312 59.9365-43.9697C59.9365-42.0654 58.5205-40.7471 56.3477-40.7471C54.6143-40.7471 53.4424-41.6016 52.5391-43.2129C51.7822-44.9219 50.5371-45.9961 48.6816-46.3623L48.6816-38.7207L50.1221-38.4277C57.2021-37.085 60.7666-33.9111 60.7666-28.2715C60.7666-21.9238 55.7617-18.0176 48.6816-17.4316L48.6816-14.9658C48.6816-13.8672 47.9004-13.1104 46.875-13.1104ZM45.0684-39.624L45.0684-46.46C42.6758-46.1182 41.2598-44.7754 41.2598-43.0908C41.2598-41.4551 42.3828-40.3564 44.7754-39.6729ZM48.6816-31.1768L48.6816-23.999C51.4893-24.3652 52.8809-25.6592 52.8809-27.5635C52.8809-29.2969 51.9287-30.3467 49.2432-31.0303Z"/>
  </g>
  <g id="Semibold-S" transform="matrix(1 0 0 1 1997.11 696)">
   <path d="M23.1019 1.19805L69.2023 1.19805C77.9401 1.19805 82.5386-3.40039 82.5386-12.0383L82.5386-58.3719C82.5386-67.0098 77.9401-71.6082 69.2023-71.6082L23.1019-71.6082C14.3974-71.6082 9.76562-67.0098 9.76562-58.3719L9.76562-12.0383C9.76562-3.40039 14.3974 1.19805 23.1019 1.19805ZM46.324-12.8349C45.2298-12.8349 44.4107-13.6361 44.4107-14.7792L44.4107-17.3428C38.4896-17.8022 34.3235-20.8051 33.1361-24.8049C32.9453-25.3197 32.8477-25.8523 32.8477-26.3539C32.8477-28.2092 34.1237-29.5163 36.1498-29.5163C37.7299-29.5163 38.8129-28.7263 39.5208-27.1194C40.1911-25.226 41.685-23.7765 44.4107-23.3325L44.4107-32.4601L43.5189-32.6975C36.7674-34.2134 33.2074-37.3206 33.2074-42.7471C33.2074-48.6085 37.8437-52.508 44.4107-53.1317L44.4107-55.7574C44.4107-56.9005 45.2298-57.6685 46.324-57.6685C47.4027-57.6685 48.2373-56.9005 48.2373-55.7574L48.2373-53.1317C53.7945-52.5436 57.8007-49.5828 58.906-45.5477C59.0502-45.0461 59.1634-44.5135 59.1634-43.9964C59.1634-42.2343 57.8718-41.0048 55.9389-41.0048C54.321-41.0048 53.2735-41.8504 52.5213-43.3551C51.72-45.3662 50.3238-46.6004 48.2373-47.011L48.2373-38.3297L49.2778-38.1256C56.3046-36.845 59.8868-33.6001 59.8868-27.9871C59.8868-21.675 54.9264-17.9109 48.2373-17.325L48.2373-14.7792C48.2373-13.6361 47.4027-12.8349 46.324-12.8349ZM44.4107-39.313L44.4107-47.0731C41.7693-46.6425 40.2467-45.0953 40.2467-43.2419C40.2467-41.4195 41.4408-40.1876 44.1178-39.3618ZM48.2373-31.5589L48.2373-23.3325C51.3915-23.7432 52.8631-25.2771 52.8631-27.4124C52.8631-29.3502 51.8665-30.5866 48.8966-31.3769Z"/>
  </g>
  <g id="Medium-S" transform="matrix(1 0 0 1 1700.76 696)">
   <path d="M22.7178 0.847656L68.8789 0.847656C77.4482 0.847656 81.8311-3.53516 81.8311-11.9844L81.8311-58.4258C81.8311-66.875 77.4482-71.2578 68.8789-71.2578L22.7178-71.2578C14.1885-71.2578 9.76562-66.875 9.76562-58.4258L9.76562-11.9844C9.76562-3.53516 14.1885 0.847656 22.7178 0.847656ZM45.9062-12.626C44.7783-12.626 43.9121-13.4609 43.9121-14.6377L43.9121-17.2754C38.3145-17.7686 34.0068-20.6973 32.8262-24.9531C32.6758-25.4141 32.5781-25.9062 32.5781-26.3809C32.5781-28.0879 33.7666-29.2939 35.5703-29.2939C37.0156-29.2939 38.0312-28.5713 38.665-27.0049C39.3623-24.916 40.9707-23.3115 43.9121-22.8271L43.9121-32.8037L43.3438-32.9805C36.6191-34.5166 33.0996-37.6104 33.0996-42.9492C33.0996-48.6826 37.5674-52.5215 43.9121-53.1924L43.9121-55.8652C43.9121-57.042 44.7783-57.8369 45.9062-57.8369C47.0254-57.8369 47.9004-57.042 47.9004-55.8652L47.9004-53.1924C53.2285-52.584 57.2549-49.6367 58.3467-45.4668C58.4707-44.9922 58.5771-44.5 58.5771-44.0166C58.5771-42.3623 57.3799-41.2002 55.6289-41.2002C54.0986-41.2002 53.1455-42.0391 52.5078-43.4629C51.6729-45.7031 50.1621-47.0586 47.9004-47.5029L47.9004-38.0332L48.6377-37.8965C55.624-36.6631 59.2197-33.3643 59.2197-27.7715C59.2197-21.4863 54.293-17.8301 47.9004-17.2441L47.9004-14.6377C47.9004-13.4609 47.0254-12.626 45.9062-12.626ZM43.9121-39.0771L43.9121-47.5381C41.082-47.04 39.4785-45.3379 39.4785-43.3564C39.4785-41.3926 40.7266-40.0596 43.6191-39.126ZM47.9004-31.8486L47.9004-22.8271C51.3174-23.2715 52.8496-24.9873 52.8496-27.2979C52.8496-29.3906 51.8193-30.7686 48.6338-31.6396Z"/>
  </g>
  <g id="Regular-S" transform="matrix(1 0 0 1 1404.51 696)">
   <path d="M22.2168 0.390625L68.457 0.390625C76.8066 0.390625 80.9082-3.71094 80.9082-11.9141L80.9082-58.4961C80.9082-66.6992 76.8066-70.8008 68.457-70.8008L22.2168-70.8008C13.916-70.8008 9.76562-66.6992 9.76562-58.4961L9.76562-11.9141C9.76562-3.71094 13.916 0.390625 22.2168 0.390625ZM45.3613-12.3535C44.1895-12.3535 43.2617-13.2324 43.2617-14.4531L43.2617-17.1875C38.0859-17.7246 33.5938-20.5566 32.4219-25.1465C32.3242-25.5371 32.2266-25.9766 32.2266-26.416C32.2266-27.9297 33.3008-29.0039 34.8145-29.0039C36.084-29.0039 37.0117-28.3691 37.5488-26.8555C38.2812-24.5117 40.0391-22.7051 43.2617-22.168L43.2617-33.252L43.1152-33.3496C36.4258-34.9121 32.959-37.9883 32.959-43.2129C32.959-48.7793 37.207-52.5391 43.2617-53.2715L43.2617-56.0059C43.2617-57.2266 44.1895-58.0566 45.3613-58.0566C46.5332-58.0566 47.4609-57.2266 47.4609-56.0059L47.4609-53.2715C52.4902-52.6367 56.543-49.707 57.6172-45.3613C57.7148-44.9219 57.8125-44.4824 57.8125-44.043C57.8125-42.5293 56.7383-41.4551 55.2246-41.4551C53.8086-41.4551 52.9785-42.2852 52.4902-43.6035C51.6113-46.1426 49.9512-47.6562 47.4609-48.1445L47.4609-37.6465L47.8027-37.5977C54.7363-36.4258 58.3496-33.0566 58.3496-27.4902C58.3496-21.2402 53.4668-17.7246 47.4609-17.1387L47.4609-14.4531C47.4609-13.2324 46.5332-12.3535 45.3613-12.3535ZM43.2617-38.7695L43.2617-48.1445C40.1855-47.5586 38.4766-45.6543 38.4766-43.5059C38.4766-41.3574 39.7949-39.8926 42.9688-38.8184ZM47.4609-32.2266L47.4609-22.168C51.2207-22.6562 52.832-24.6094 52.832-27.1484C52.832-29.4434 51.7578-31.0059 48.291-31.9824Z"/>
  </g>
  <g id="Light-S" transform="matrix(1 0 0 1 1108.45 696)">
   <path d="M21.3994-0.260249L67.9575-0.260249C75.7017-0.260249 79.5913-4.18017 79.5913-11.793L79.5913-58.5869C79.5913-66.1997 75.7017-70.1196 67.9575-70.1196L21.3994-70.1196C13.689-70.1196 9.76562-66.23 9.76562-58.5869L9.76562-11.793C9.76562-4.1499 13.689-0.260249 21.3994-0.260249ZM44.6953-12.9893C43.7202-12.9893 42.959-13.7017 42.959-14.7104L42.959-17.6265C37.647-18.0879 33.3062-21.041 32.2402-25.5854C32.1577-25.9458 32.0752-26.3398 32.0752-26.7187C32.0752-27.9751 32.9375-28.8374 34.1484-28.8374C35.2061-28.8374 35.937-28.2783 36.3228-27.0371C36.9492-24.209 39.252-22.0996 42.959-21.6231L42.959-33.6758L42.646-33.7886C36.1382-35.3057 32.8228-38.2456 32.8228-43.1069C32.8228-48.3555 37.1011-52.0244 42.959-52.6357L42.959-55.355C42.959-56.3789 43.7051-57.0576 44.6953-57.0576C45.6553-57.0576 46.4316-56.3638 46.4316-55.355L46.4316-52.6357C51.4912-52.1069 55.4985-49.1621 56.4819-44.9829C56.5645-44.604 56.647-44.21 56.647-43.8159C56.647-42.5747 55.7847-41.7124 54.5737-41.7124C53.415-41.7124 52.7515-42.3911 52.3843-43.5127C51.6416-46.2788 49.4971-48.0952 46.4316-48.5229L46.4316-37.1621L47.0913-37.0376C53.813-35.7749 57.2144-32.6328 57.2144-27.4448C57.2144-21.6641 52.5435-18.0879 46.4316-17.5776L46.4316-14.7104C46.4316-13.7168 45.6553-12.9893 44.6953-12.9893ZM42.959-38.0732L42.959-48.5229C39.4893-48.0278 37.2202-45.8965 37.2202-43.3091C37.2202-40.7974 38.9473-39.2266 42.6963-38.1221ZM46.4316-32.832L46.4316-21.6231C50.6304-22.0356 52.8472-24.2764 52.8472-27.209C52.8472-29.8672 51.334-31.5508 47.2617-32.603Z"/>
  </g>
  <g id="Thin-S" transform="matrix(1 0 0 1 812.615 696)">
   <path d="M20.3184-1.12108L67.2969-1.12108C74.2403-1.12108 77.8496-4.80077 77.8496-11.6328L77.8496-58.707C77.8496-65.5391 74.2403-69.2188 67.2969-69.2188L20.3184-69.2188C13.3887-69.2188 9.76562-65.6094 9.76562-58.707L9.76562-11.6328C9.76562-4.73046 13.3887-1.12108 20.3184-1.12108ZM43.8145-13.8301C43.0996-13.8301 42.5586-14.3223 42.5586-15.0508L42.5586-18.207C37.0664-18.5684 32.9258-21.6816 32-26.166C31.9375-26.4863 31.875-26.8203 31.875-27.1191C31.875-28.0352 32.457-28.6172 33.2676-28.6172C34.0449-28.6172 34.5156-28.1582 34.7012-27.2773C35.1875-23.8086 38.211-21.2988 42.5586-20.9024L42.5586-34.2363L42.0254-34.3691C35.7578-35.8262 32.6426-38.5859 32.6426-42.9668C32.6426-47.7949 36.9609-51.3438 42.5586-51.7949L42.5586-54.4942C42.5586-55.2578 43.0645-55.7363 43.8145-55.7363C44.4942-55.7363 45.0703-55.2227 45.0703-54.4942L45.0703-51.7949C50.1699-51.4063 54.1172-48.4414 54.9805-44.4824C55.043-44.1836 55.1055-43.8496 55.1055-43.5156C55.1055-42.6348 54.5235-42.0527 53.7129-42.0527C52.8945-42.0527 52.4512-42.5312 52.2441-43.3926C51.6816-46.459 48.8965-48.6758 45.0703-49.0234L45.0703-36.5215L46.1504-36.2969C52.5918-34.9141 55.7129-32.0723 55.7129-27.3848C55.7129-22.2246 51.3223-18.5684 45.0703-18.1582L45.0703-15.0508C45.0703-14.3574 44.4942-13.8301 43.8145-13.8301ZM42.5586-37.1524L42.5586-49.0234C38.5684-48.6484 35.5586-46.2168 35.5586-43.0488C35.5586-40.0567 37.8262-38.3457 42.3359-37.2012ZM45.0703-33.6328L45.0703-20.9024C49.8496-21.2149 52.8672-23.8359 52.8672-27.2891C52.8672-30.4277 50.7734-32.2715 45.9004-33.4238Z"/>
  </g>
  <g id="Ultralight-S" transform="matrix(1 0 0 1 516.35 696)">
   <path d="M19.7647-1.562L66.9585-1.562C73.4917-1.562 76.9576-5.11864 76.9576-11.5508L76.9576-58.7686C76.9576-65.2007 73.4917-68.7573 66.9585-68.7573L19.7647-68.7573C13.2349-68.7573 9.76562-65.2915 9.76562-58.7686L9.76562-11.5508C9.76562-5.02782 13.2349-1.562 19.7647-1.562ZM43.3633-14.2607C42.7817-14.2607 42.3535-14.6401 42.3535-15.2251L42.3535-18.5044C36.7691-18.8144 32.731-22.0098 31.877-26.4634C31.8247-26.7632 31.7725-27.0664 31.7725-27.3242C31.7725-28.0659 32.2109-28.5044 32.8164-28.5044C33.4502-28.5044 33.7876-28.0967 33.8706-27.4004C34.2852-23.6035 37.6778-20.8887 42.3535-20.5332L42.3535-34.5234L41.7075-34.6665C35.563-36.0928 32.5503-38.7602 32.5503-42.895C32.5503-47.5078 36.8892-50.9951 42.3535-51.3643L42.3535-54.0532C42.3535-54.6836 42.7363-55.0596 43.3633-55.0596C43.8994-55.0596 44.3731-54.6382 44.3731-54.0532L44.3731-51.3643C49.4932-51.0474 53.4097-48.0723 54.2115-44.2261C54.2637-43.9683 54.3159-43.665 54.3159-43.3618C54.3159-42.6655 53.8775-42.227 53.272-42.227C52.6279-42.227 52.2974-42.603 52.1724-43.3311C51.7021-46.5513 48.5889-48.9731 44.3731-49.2798L44.3731-36.1934L45.6685-35.9175C51.9663-34.4732 54.9439-31.7852 54.9439-27.354C54.9439-22.5117 50.6968-18.8144 44.3731-18.4556L44.3731-15.2251C44.3731-14.6855 43.8994-14.2607 43.3633-14.2607ZM42.3535-36.6807L42.3535-49.2798C38.0967-48.9663 34.7075-46.3809 34.7075-42.9155C34.7075-39.6773 37.252-37.8945 42.1514-36.7295ZM44.3731-34.043L44.3731-20.5332C49.4497-20.7944 52.8774-23.6104 52.8774-27.3301C52.8774-30.7148 50.4863-32.6406 45.2031-33.8442Z"/>
  </g>
 </g>
</svg>
