<?xml version="1.0" encoding="UTF-8"?>
<!--Generator: Apple Native CoreSVG 175.5-->
<!DOCTYPE svg
PUBLIC "-//W3C//DTD SVG 1.1//EN"
       "http://www.w3.org/Graphics/SVG/1.1/DTD/svg11.dtd">
<svg version="1.1" xmlns="http://www.w3.org/2000/svg" xmlns:xlink="http://www.w3.org/1999/xlink" width="3300" height="2200">
 <!--glyph: "uni100EBD.medium", point size: 100.0, font version: "18.0d12e2", template writer version: "101"-->
 <g id="Notes">
  <rect height="2200" id="artboard" style="fill:white;opacity:1" width="3300" x="0" y="0"/>
  <line style="fill:none;stroke:black;opacity:1;stroke-width:0.5;" x1="263" x2="3036" y1="292" y2="292"/>
  <text style="stroke:none;fill:black;font-family:sans-serif;font-size:13;font-weight:bold;" transform="matrix(1 0 0 1 263 322)">Weight/Scale Variations</text>
  <text style="stroke:none;fill:black;font-family:sans-serif;font-size:13;text-anchor:middle;" transform="matrix(1 0 0 1 559.711 322)">Ultralight</text>
  <text style="stroke:none;fill:black;font-family:sans-serif;font-size:13;text-anchor:middle;" transform="matrix(1 0 0 1 856.422 322)">Thin</text>
  <text style="stroke:none;fill:black;font-family:sans-serif;font-size:13;text-anchor:middle;" transform="matrix(1 0 0 1 1153.13 322)">Light</text>
  <text style="stroke:none;fill:black;font-family:sans-serif;font-size:13;text-anchor:middle;" transform="matrix(1 0 0 1 1449.84 322)">Regular</text>
  <text style="stroke:none;fill:black;font-family:sans-serif;font-size:13;text-anchor:middle;" transform="matrix(1 0 0 1 1746.56 322)">Medium</text>
  <text style="stroke:none;fill:black;font-family:sans-serif;font-size:13;text-anchor:middle;" transform="matrix(1 0 0 1 2043.27 322)">Semibold</text>
  <text style="stroke:none;fill:black;font-family:sans-serif;font-size:13;text-anchor:middle;" transform="matrix(1 0 0 1 2339.98 322)">Bold</text>
  <text style="stroke:none;fill:black;font-family:sans-serif;font-size:13;text-anchor:middle;" transform="matrix(1 0 0 1 2636.69 322)">Heavy</text>
  <text style="stroke:none;fill:black;font-family:sans-serif;font-size:13;text-anchor:middle;" transform="matrix(1 0 0 1 2933.4 322)">Black</text>
  <line style="fill:none;stroke:black;opacity:1;stroke-width:0.5;" x1="263" x2="3036" y1="1903" y2="1903"/>
  <g transform="matrix(1 0 0 1 263 1933)">
   <path d="M9.24805 0.830078C13.5547 0.830078 17.1387-2.74414 17.1387-7.05078C17.1387-11.3574 13.5449-14.9316 9.23828-14.9316C4.94141-14.9316 1.36719-11.3574 1.36719-7.05078C1.36719-2.74414 4.95117 0.830078 9.24805 0.830078ZM9.24805-0.654297C5.70312-0.654297 2.87109-3.49609 2.87109-7.05078C2.87109-10.6055 5.69336-13.4473 9.23828-13.4473C12.793-13.4473 15.6445-10.6055 15.6445-7.05078C15.6445-3.49609 12.8027-0.654297 9.24805-0.654297ZM5.6543-7.05078C5.6543-6.62109 5.95703-6.32812 6.40625-6.32812L8.50586-6.32812L8.50586-4.20898C8.50586-3.76953 8.79883-3.4668 9.22852-3.4668C9.67773-3.4668 9.9707-3.76953 9.9707-4.20898L9.9707-6.32812L12.0898-6.32812C12.5293-6.32812 12.832-6.62109 12.832-7.05078C12.832-7.49023 12.5293-7.79297 12.0898-7.79297L9.9707-7.79297L9.9707-9.90234C9.9707-10.3516 9.67773-10.6543 9.22852-10.6543C8.79883-10.6543 8.50586-10.3516 8.50586-9.90234L8.50586-7.79297L6.40625-7.79297C5.95703-7.79297 5.6543-7.49023 5.6543-7.05078Z"/>
  </g>
  <g transform="matrix(1 0 0 1 281.867 1933)">
   <path d="M11.709 2.91016C17.1582 2.91016 21.6699-1.61133 21.6699-7.05078C21.6699-12.5 17.1484-17.0117 11.6992-17.0117C6.25977-17.0117 1.74805-12.5 1.74805-7.05078C1.74805-1.61133 6.26953 2.91016 11.709 2.91016ZM11.709 1.25C7.09961 1.25 3.41797-2.44141 3.41797-7.05078C3.41797-11.6602 7.08984-15.3516 11.6992-15.3516C16.3086-15.3516 20.0098-11.6602 20.0098-7.05078C20.0098-2.44141 16.3184 1.25 11.709 1.25ZM7.17773-7.05078C7.17773-6.57227 7.50977-6.25 8.00781-6.25L10.8789-6.25L10.8789-3.36914C10.8789-2.88086 11.2109-2.53906 11.6895-2.53906C12.1777-2.53906 12.5195-2.87109 12.5195-3.36914L12.5195-6.25L15.4004-6.25C15.8887-6.25 16.2305-6.57227 16.2305-7.05078C16.2305-7.53906 15.8887-7.88086 15.4004-7.88086L12.5195-7.88086L12.5195-10.752C12.5195-11.25 12.1777-11.5918 11.6895-11.5918C11.2109-11.5918 10.8789-11.25 10.8789-10.752L10.8789-7.88086L8.00781-7.88086C7.50977-7.88086 7.17773-7.53906 7.17773-7.05078Z"/>
  </g>
  <g transform="matrix(1 0 0 1 305.646 1933)">
   <path d="M14.9707 5.66406C21.9336 5.66406 27.6953-0.0976562 27.6953-7.05078C27.6953-14.0137 21.9238-19.7754 14.9609-19.7754C8.00781-19.7754 2.25586-14.0137 2.25586-7.05078C2.25586-0.0976562 8.01758 5.66406 14.9707 5.66406ZM14.9707 3.84766C8.93555 3.84766 4.08203-1.01562 4.08203-7.05078C4.08203-13.0957 8.92578-17.9492 14.9609-17.9492C21.0059-17.9492 25.8691-13.0957 25.8691-7.05078C25.8691-1.01562 21.0156 3.84766 14.9707 3.84766ZM9.19922-7.05078C9.19922-6.5332 9.57031-6.17188 10.1172-6.17188L14.0625-6.17188L14.0625-2.2168C14.0625-1.67969 14.4336-1.29883 14.9512-1.29883C15.4883-1.29883 15.8594-1.66992 15.8594-2.2168L15.8594-6.17188L19.8145-6.17188C20.3516-6.17188 20.7324-6.5332 20.7324-7.05078C20.7324-7.59766 20.3613-7.96875 19.8145-7.96875L15.8594-7.96875L15.8594-11.9141C15.8594-12.4609 15.4883-12.8418 14.9512-12.8418C14.4336-12.8418 14.0625-12.4609 14.0625-11.9141L14.0625-7.96875L10.1172-7.96875C9.57031-7.96875 9.19922-7.59766 9.19922-7.05078Z"/>
  </g>
  <text style="stroke:none;fill:black;font-family:sans-serif;font-size:13;font-weight:bold;" transform="matrix(1 0 0 1 263 1953)">Design Variations</text>
  <text style="stroke:none;fill:black;font-family:sans-serif;font-size:13;" transform="matrix(1 0 0 1 263 1971)">Symbols are supported in up to nine weights and three scales.</text>
  <text style="stroke:none;fill:black;font-family:sans-serif;font-size:13;" transform="matrix(1 0 0 1 263 1989)">For optimal layout with text and other symbols, vertically align</text>
  <text style="stroke:none;fill:black;font-family:sans-serif;font-size:13;" transform="matrix(1 0 0 1 263 2007)">symbols with the adjacent text.</text>
  <line style="fill:none;stroke:#00AEEF;stroke-width:0.5;opacity:1.0;" x1="776" x2="776" y1="1919" y2="1933"/>
  <g transform="matrix(1 0 0 1 776 1933)">
   <path d="M3.31055 0.15625C3.82812 0.15625 4.08203-0.0390625 4.26758-0.585938L5.52734-4.0332L11.2891-4.0332L12.5488-0.585938C12.7344-0.0390625 12.9883 0.15625 13.4961 0.15625C14.0137 0.15625 14.3457-0.15625 14.3457-0.644531C14.3457-0.810547 14.3164-0.966797 14.2383-1.17188L9.6582-13.3691C9.43359-13.9648 9.0332-14.2676 8.4082-14.2676C7.80273-14.2676 7.39258-13.9746 7.17773-13.3789L2.59766-1.16211C2.51953-0.957031 2.49023-0.800781 2.49023-0.634766C2.49023-0.146484 2.80273 0.15625 3.31055 0.15625ZM6.00586-5.51758L8.37891-12.0898L8.42773-12.0898L10.8008-5.51758Z"/>
  </g>
  <line style="fill:none;stroke:#00AEEF;stroke-width:0.5;opacity:1.0;" x1="793.197" x2="793.197" y1="1919" y2="1933"/>
  <text style="stroke:none;fill:black;font-family:sans-serif;font-size:13;font-weight:bold;" transform="matrix(1 0 0 1 776 1953)">Margins</text>
  <text style="stroke:none;fill:black;font-family:sans-serif;font-size:13;" transform="matrix(1 0 0 1 776 1971)">Leading and trailing margins on the left and right side of each symbol</text>
  <text style="stroke:none;fill:black;font-family:sans-serif;font-size:13;" transform="matrix(1 0 0 1 776 1989)">can be adjusted by modifying the x-location of the margin guidelines.</text>
  <text style="stroke:none;fill:black;font-family:sans-serif;font-size:13;" transform="matrix(1 0 0 1 776 2007)">Modifications are automatically applied proportionally to all</text>
  <text style="stroke:none;fill:black;font-family:sans-serif;font-size:13;" transform="matrix(1 0 0 1 776 2025)">scales and weights.</text>
  <g transform="matrix(1 0 0 1 1289 1933)">
   <path d="M2.8418 1.86523L4.54102 3.57422C5.40039 4.44336 6.38672 4.38477 7.31445 3.35938L18.0078-8.42773L17.041-9.4043L6.42578 2.27539C6.07422 2.67578 5.74219 2.77344 5.27344 2.30469L4.10156 1.14258C3.63281 0.683594 3.74023 0.341797 4.14062-0.0195312L15.6152-10.8203L14.6387-11.7871L3.04688-0.898438C2.06055 0.0195312 1.98242 0.996094 2.8418 1.86523ZM9.25781-16.3281C8.83789-15.918 8.80859-15.3418 9.04297-14.9512C9.27734-14.5898 9.73633-14.3555 10.3809-14.5215C11.8457-14.8633 13.3691-14.9219 14.7949-13.9844L14.209-12.5293C13.8672-11.6992 14.043-11.1133 14.5801-10.5664L16.875-8.25195C17.3633-7.76367 17.7734-7.74414 18.3398-7.8418L19.4043-8.03711L20.0684-7.36328L20.0293-6.80664C19.9902-6.30859 20.1172-5.92773 20.6055-5.44922L21.3672-4.70703C21.8457-4.22852 22.4609-4.19922 22.9297-4.66797L25.8398-7.58789C26.3086-8.05664 26.2891-8.65234 25.8105-9.13086L25.0391-9.89258C24.5605-10.3711 24.1895-10.5273 23.7109-10.4883L23.1348-10.4395L22.4902-11.0742L22.7344-12.1973C22.8613-12.7637 22.7051-13.2031 22.1191-13.7891L19.9219-15.9766C16.582-19.2969 12.1484-19.2188 9.25781-16.3281ZM10.752-15.957C13.1836-17.7344 16.4746-17.4316 18.7012-15.2051L21.1328-12.793C21.3672-12.5586 21.4062-12.373 21.3379-12.0312L21.0156-10.5469L22.5195-9.0625L23.5059-9.12109C23.7598-9.13086 23.8379-9.11133 24.0332-8.91602L24.6094-8.33984L22.168-5.89844L21.5918-6.47461C21.3965-6.66992 21.3672-6.74805 21.377-7.01172L21.4453-7.98828L19.9512-9.47266L18.4277-9.21875C18.1055-9.15039 17.959-9.17969 17.7148-9.41406L15.7129-11.416C15.459-11.6504 15.4297-11.8164 15.5859-12.1875L16.4648-14.2773C14.9023-15.7324 12.8711-16.3574 10.8398-15.7617C10.6836-15.7227 10.625-15.8496 10.752-15.957Z"/>
  </g>
  <text style="stroke:none;fill:black;font-family:sans-serif;font-size:13;font-weight:bold;" transform="matrix(1 0 0 1 1289 1953)">Exporting</text>
  <text style="stroke:none;fill:black;font-family:sans-serif;font-size:13;" transform="matrix(1 0 0 1 1289 1971)">Symbols should be outlined when exporting to ensure the</text>
  <text style="stroke:none;fill:black;font-family:sans-serif;font-size:13;" transform="matrix(1 0 0 1 1289 1989)">design is preserved when submitting to Xcode.</text>
  <text id="template-version" style="stroke:none;fill:black;font-family:sans-serif;font-size:13;text-anchor:end;" transform="matrix(1 0 0 1 3036 1933)">Template v.4.0</text>
  <text style="stroke:none;fill:black;font-family:sans-serif;font-size:13;text-anchor:end;" transform="matrix(1 0 0 1 3036 1951)">Requires Xcode 14 or greater</text>
  <text id="descriptive-name" style="stroke:none;fill:black;font-family:sans-serif;font-size:13;text-anchor:end;" transform="matrix(1 0 0 1 3036 1969)">Generated from gearshape.circle.fill</text>
  <text style="stroke:none;fill:black;font-family:sans-serif;font-size:13;text-anchor:end;" transform="matrix(1 0 0 1 3036 1987)">Typeset at 100 points</text>
  <text style="stroke:none;fill:black;font-family:sans-serif;font-size:13;" transform="matrix(1 0 0 1 263 726)">Small</text>
  <text style="stroke:none;fill:black;font-family:sans-serif;font-size:13;" transform="matrix(1 0 0 1 263 1156)">Medium</text>
  <text style="stroke:none;fill:black;font-family:sans-serif;font-size:13;" transform="matrix(1 0 0 1 263 1586)">Large</text>
 </g>
 <g id="Guides">
  <g id="H-reference" style="fill:#27AAE1;stroke:none;" transform="matrix(1 0 0 1 339 696)">
   <path d="M0.993654 0L3.63775 0L29.3281-67.1323L30.0303-67.1323L30.0303-70.459L28.1226-70.459ZM11.6885-24.4799L46.9815-24.4799L46.2315-26.7285L12.4385-26.7285ZM55.1196 0L57.7637 0L30.6382-70.459L29.4326-70.459L29.4326-67.1323Z"/>
  </g>
  <line id="Baseline-S" style="fill:none;stroke:#27AAE1;opacity:1;stroke-width:0.5;" x1="263" x2="3036" y1="696" y2="696"/>
  <line id="Capline-S" style="fill:none;stroke:#27AAE1;opacity:1;stroke-width:0.5;" x1="263" x2="3036" y1="625.541" y2="625.541"/>
  <g id="H-reference" style="fill:#27AAE1;stroke:none;" transform="matrix(1 0 0 1 339 1126)">
   <path d="M0.993654 0L3.63775 0L29.3281-67.1323L30.0303-67.1323L30.0303-70.459L28.1226-70.459ZM11.6885-24.4799L46.9815-24.4799L46.2315-26.7285L12.4385-26.7285ZM55.1196 0L57.7637 0L30.6382-70.459L29.4326-70.459L29.4326-67.1323Z"/>
  </g>
  <line id="Baseline-M" style="fill:none;stroke:#27AAE1;opacity:1;stroke-width:0.5;" x1="263" x2="3036" y1="1126" y2="1126"/>
  <line id="Capline-M" style="fill:none;stroke:#27AAE1;opacity:1;stroke-width:0.5;" x1="263" x2="3036" y1="1055.54" y2="1055.54"/>
  <g id="H-reference" style="fill:#27AAE1;stroke:none;" transform="matrix(1 0 0 1 339 1556)">
   <path d="M0.993654 0L3.63775 0L29.3281-67.1323L30.0303-67.1323L30.0303-70.459L28.1226-70.459ZM11.6885-24.4799L46.9815-24.4799L46.2315-26.7285L12.4385-26.7285ZM55.1196 0L57.7637 0L30.6382-70.459L29.4326-70.459L29.4326-67.1323Z"/>
  </g>
  <line id="Baseline-L" style="fill:none;stroke:#27AAE1;opacity:1;stroke-width:0.5;" x1="263" x2="3036" y1="1556" y2="1556"/>
  <line id="Capline-L" style="fill:none;stroke:#27AAE1;opacity:1;stroke-width:0.5;" x1="263" x2="3036" y1="1485.54" y2="1485.54"/>
  <line id="left-margin-Regular-M" style="fill:none;stroke:#00AEEF;stroke-width:0.5;opacity:1.0;" x1="1391.32" x2="1391.32" y1="1030.79" y2="1150.12"/>
  <line id="right-margin-Regular-M" style="fill:none;stroke:#00AEEF;stroke-width:0.5;opacity:1.0;" x1="1508.37" x2="1508.37" y1="1030.79" y2="1150.12"/>
 </g>
 <g id="Symbols">
  <g id="Black-L" transform="matrix(1 0 0 1 2854.19 1556)">
   <path d="M79.1958 32.8061C116.56 32.8061 147.154 2.23301 147.154-35.1309C147.154-72.4948 116.539-103.068 79.175-103.068C41.8307-103.068 11.2588-72.4948 11.2588-35.1309C11.2588 2.23301 41.8515 32.8061 79.1958 32.8061ZM76.4182-0.723772C73.9433-0.723772 71.9141-2.31571 71.4136-4.67619L69.992-10.5892C69.3485-10.8369 68.7842-11.0458 68.1655-11.2755L63.0424-8.16299C61.0256-6.8231 58.4178-7.16036 56.7187-8.79991L52.8481-12.7497C51.1281-14.5073 50.8504-17.1359 52.2695-19.1151L55.282-24.2174C55.0511-24.7777 54.8422-25.342 54.6153-25.9062L48.6827-27.3071C46.3222-27.8868 44.7511-29.8368 44.7511-32.3909L44.7511-37.7667C44.7511-40.2625 46.3222-42.2333 48.6827-42.8506L54.5361-44.2138C54.7838-44.8197 55.0343-45.4424 55.282-45.9234L52.1695-51.1426C50.792-53.2386 50.9905-55.7672 52.8064-57.4871L56.7771-61.437C58.5346-63.0181 60.7671-63.3554 62.9255-62.1739L68.1447-58.9822C68.7258-59.2327 69.3485-59.5208 69.992-59.7101L71.4136-65.6023C71.9141-68.0212 73.9433-69.6132 76.4182-69.6132L81.9941-69.6132C84.469-69.6132 86.4983-68.0212 86.9988-65.6607L88.4788-59.6893C89.0639-59.4416 89.6282-59.1911 90.2456-58.9238L95.4857-62.1739C97.6245-63.3554 99.8778-62.9973 101.634-61.437L105.605-57.4871C107.421-55.7672 107.62-53.2386 106.243-51.1426L103.13-45.9234C103.377-45.4424 103.627-44.8197 103.875-44.2138L109.709-42.8506C112.09-42.2333 113.661-40.2625 113.661-37.7667L113.661-32.3909C113.661-29.8368 112.09-27.8868 109.709-27.3071L103.796-25.9062C103.569-25.342 103.36-24.7777 103.11-24.2174L106.143-19.1151C107.562-17.1359 107.262-14.5073 105.563-12.7497L101.693-8.79991C99.9946-7.16036 97.3868-6.8231 95.3492-8.16299L90.2456-11.2755C89.6282-11.0458 89.0431-10.8369 88.4204-10.5892L86.9988-4.67619C86.4983-2.31571 84.469-0.723772 81.9941-0.723772ZM79.197-24.6732C84.9914-24.6732 89.7131-29.4157 89.7131-35.1905C89.7131-40.8836 84.9914-45.6053 79.197-45.6053C73.4222-45.6053 68.7005-40.8836 68.7005-35.1905C68.7005-29.4157 73.4222-24.6732 79.197-24.6732Z"/>
  </g>
  <g id="Heavy-L" transform="matrix(1 0 0 1 2558.42 1556)">
   <path d="M78.2532 31.8498C115.056 31.8498 145.278 1.65836 145.278-35.1447C145.278-71.9477 115.026-102.139 78.2231-102.139C41.4446-102.139 11.2588-71.9477 11.2588-35.1447C11.2588 1.65836 41.4748 31.8498 78.2532 31.8498ZM75.3296 0.105936C73.0024 0.105936 71.1198-1.37131 70.6475-3.62045L69.1056-10.0269C68.2863-10.3253 67.5417-10.6037 66.7985-10.9122L61.2233-7.52344C59.3316-6.24364 56.9075-6.54396 55.2915-8.10964L51.234-12.242C49.5879-13.9026 49.3378-16.3569 50.6924-18.2341L53.9762-23.7792C53.662-24.4778 53.3836-25.2223 53.1154-25.9669L46.6844-27.4785C44.4353-28.0257 42.9882-29.8335 42.9882-32.2354L42.9882-37.903C42.9882-40.2603 44.4353-42.0983 46.6844-42.6599L53.0406-44.1571C53.339-44.962 53.6777-45.7512 53.9762-46.375L50.5874-52.0093C49.2932-53.9757 49.4684-56.3251 51.1736-57.9712L55.3362-62.1036C56.9967-63.6246 59.077-63.9249 61.134-62.7948L66.7683-59.3312C67.4971-59.6699 68.2863-60.0231 69.1056-60.2769L70.6475-66.6531C71.1198-68.9469 73.0024-70.4241 75.3296-70.4241L81.2071-70.4241C83.5343-70.4241 85.4168-68.9469 85.8892-66.6977L87.4757-60.2467C88.2504-59.9483 88.9949-59.6095 89.7325-59.2866L95.397-62.7948C97.4295-63.9249 99.54-63.5944 101.195-62.1036L105.357-57.9712C107.063-56.3251 107.244-53.9757 105.949-52.0093L102.561-46.375C102.853-45.7512 103.192-44.962 103.49-44.1571L109.822-42.6599C112.101-42.0983 113.548-40.2603 113.548-37.903L113.548-32.2354C113.548-29.8335 112.101-28.0257 109.822-27.4785L103.416-25.9669C103.147-25.2223 102.869-24.4778 102.53-23.7792L105.844-18.2341C107.199-16.3569 106.913-13.9026 105.297-12.242L101.24-8.10964C99.6292-6.54396 97.2051-6.24364 95.2832-7.52344L89.7325-10.9122C88.9949-10.6037 88.2202-10.3253 87.431-10.0269L85.8892-3.62045C85.4168-1.37131 83.5343 0.105936 81.2071 0.105936ZM78.2589-24.1091C84.3653-24.1091 89.339-29.113 89.339-35.1949C89.339-41.1908 84.3653-46.1645 78.2589-46.1645C72.1769-46.1645 67.2033-41.1908 67.2033-35.1949C67.2033-29.113 72.1769-24.1091 78.2589-24.1091Z"/>
  </g>
  <g id="Bold-L" transform="matrix(1 0 0 1 2262.89 1556)">
   <path d="M77.0704 30.6515C113.182 30.6515 142.92 0.951291 142.92-35.1601C142.92-71.2714 113.144-100.972 77.0324-100.972C40.9458-100.972 11.2588-71.2714 11.2588-35.1601C11.2588 0.951291 40.9838 30.6515 77.0704 30.6515ZM73.9699 0.993935C71.7973 0.993935 70.0841-0.35234 69.6351-2.49299L67.9696-9.42459C66.9723-9.77707 66.0422-10.1251 65.1676-10.5111L59.1134-6.8214C57.3457-5.60346 55.1296-5.86514 53.5987-7.35354L49.3106-11.7089C47.7418-13.2689 47.5226-15.5229 48.8077-17.2995L52.3922-23.3157C51.993-24.161 51.645-25.0912 51.3305-26.0213L44.3741-27.6489C42.2335-28.165 40.9252-29.811 40.9252-32.0508L40.9252-38.0795C40.9252-40.2901 42.2335-41.974 44.3741-42.4814L51.2633-44.1177C51.6157-45.1238 52.0398-46.0831 52.3922-46.8613L48.7025-52.9359C47.4934-54.7709 47.6454-56.9197 49.2347-58.4886L53.628-62.8439C55.188-64.3031 57.1061-64.5647 59.055-63.4812L65.1296-59.7243C66.013-60.1483 66.9723-60.5635 67.9696-60.8868L69.6351-67.7804C70.0841-69.9503 71.7973-71.2965 73.9699-71.2965L80.2089-71.2965C82.3815-71.2965 84.0946-69.9503 84.5436-67.8096L86.2384-60.8488C87.2065-60.4963 88.1366-60.0723 88.998-59.6951L95.1105-63.4812C97.0347-64.5647 98.9908-64.2651 100.538-62.8439L104.931-58.4886C106.52-56.9197 106.685-54.7709 105.476-52.9359L101.787-46.8613C102.126-46.0831 102.55-45.1238 102.902-44.1177L109.767-42.4814C111.945-41.974 113.254-40.2901 113.254-38.0795L113.254-32.0508C113.254-29.811 111.945-28.165 109.767-27.6489L102.835-26.0213C102.521-25.0912 102.173-24.161 101.749-23.3157L105.371-17.2995C106.656-15.5229 106.386-13.2689 104.855-11.7089L100.567-7.35354C99.0492-5.86514 96.8331-5.60346 95.0274-6.8214L88.998-10.5111C88.1366-10.1251 87.1685-9.77707 86.2092-9.42459L84.5436-2.49299C84.0946-0.35234 82.3815 0.993935 80.2089 0.993935ZM77.0836-23.4621C83.5446-23.4621 88.8108-28.7663 88.8108-35.2025C88.8108-41.545 83.5446-46.8113 77.0836-46.8113C70.6474-46.8113 65.3812-41.545 65.3812-35.2025C65.3812-28.7663 70.6474-23.4621 77.0836-23.4621Z"/>
  </g>
  <g id="Semibold-L" transform="matrix(1 0 0 1 1966.99 1556)">
   <path d="M76.2549 29.8254C111.889 29.8254 141.294 0.463842 141.294-35.1707C141.294-70.8053 111.846-100.167 76.2116-100.167C40.6019-100.167 11.2588-70.8053 11.2588-35.1707C11.2588 0.463842 40.6453 29.8254 76.2549 29.8254ZM73.0325 1.60612C70.9664 1.60612 69.3701 0.350132 68.9373-1.71573L67.1864-9.00939C66.0664-9.39913 65.0083-9.79519 64.0432-10.2346L57.6589-6.33742C55.9765-5.16213 53.9039-5.39717 52.4317-6.83229L47.9847-11.3413C46.4691-12.832 46.2712-14.948 47.5084-16.6552L51.3003-22.9961C50.8424-23.9427 50.4463-25.0008 50.0999-26.0588L42.7814-27.7663C40.7155-28.2611 39.5029-29.7955 39.5029-31.9235L39.5029-38.2011C39.5029-40.3105 40.7155-41.8883 42.7814-42.3583L50.038-44.0906C50.4277-45.2354 50.9105-46.312 51.3003-47.1966L47.4031-53.5747C46.2526-55.319 46.3886-57.3297 47.898-58.8452L52.4503-63.3542C53.9411-64.7708 55.7474-65.0058 57.6217-63.9544L63.9999-59.9953C64.9898-60.4781 66.0664-60.9361 67.1864-61.3072L68.9373-68.5575C69.3701-70.642 70.9664-71.8979 73.0325-71.8979L79.5208-71.8979C81.5868-71.8979 83.1831-70.642 83.616-68.5761L85.3854-61.2639C86.4868-60.8741 87.5449-60.3913 88.4915-59.9767L94.913-63.9544C96.7625-65.0058 98.6122-64.7274 100.084-63.3542L104.637-58.8452C106.146-57.3297 106.301-55.319 105.15-53.5747L101.253-47.1966C101.624-46.312 102.107-45.2354 102.497-44.0906L109.728-42.3583C111.838-41.8883 113.05-40.3105 113.05-38.2011L113.05-31.9235C113.05-29.7955 111.838-28.2611 109.728-27.7663L102.435-26.0588C102.088-25.0008 101.692-23.9427 101.21-22.9961L105.045-16.6552C106.282-14.948 106.022-12.832 104.55-11.3413L100.103-6.83229C98.6493-5.39717 96.5767-5.16213 94.851-6.33742L88.4915-10.2346C87.5449-9.79519 86.4435-9.39913 85.3668-9.00939L83.616-1.71573C83.1831 0.350132 81.5868 1.60612 79.5208 1.60612ZM76.2734-23.016C82.9787-23.016 88.4467-28.5273 88.4467-35.2078C88.4467-41.7893 82.9787-47.2573 76.2734-47.2573C69.593-47.2573 64.125-41.7893 64.125-35.2078C64.125-28.5273 69.593-23.016 76.2734-23.016Z"/>
  </g>
  <g id="Medium-L" transform="matrix(1 0 0 1 1670.9 1556)">
   <path d="M75.6366 29.1991C110.91 29.1991 140.062 0.0942366 140.062-35.1788C140.062-70.4518 110.862-99.5566 75.5892-99.5566C40.3412-99.5566 11.2588-70.4518 11.2588-35.1788C11.2588 0.0942366 40.3886 29.1991 75.6366 29.1991ZM72.3217 2.0703C70.3365 2.0703 68.8287 0.882776 68.4081-1.12637L66.5926-8.69456C65.3795-9.11256 64.2245-9.54503 63.1907-10.0249L56.556-5.97044C54.9384-4.82749 52.9746-5.04233 51.5469-6.43706L46.9793-11.0626C45.5042-12.5008 45.3223-14.5121 46.5232-16.1666L50.4723-22.7538C49.9699-23.7771 49.5375-24.9322 49.1669-26.0873L41.5737-27.8553C39.5646-28.3339 38.4245-29.7837 38.4245-31.8269L38.4245-38.2934C38.4245-40.3261 39.5646-41.8233 41.5737-42.265L49.1089-44.07C49.5269-45.3199 50.0543-46.4855 50.4723-47.4508L46.4178-54.0591C45.3118-55.7346 45.4357-57.6405 46.8844-59.1157L51.5574-63.7412C52.9956-65.1254 54.7171-65.3403 56.535-64.3132L63.1432-60.2008C64.214-60.7281 65.3795-61.2186 66.5926-61.626L68.4081-69.1468C68.8287-71.1665 70.3365-72.354 72.3217-72.354L78.999-72.354C80.9842-72.354 82.492-71.1665 82.9126-69.1573L84.7386-61.5786C85.9412-61.1606 87.0962-60.6332 88.1076-60.1903L94.7633-64.3132C96.5561-65.3403 98.3251-65.078 99.7409-63.7412L104.414-59.1157C105.863-57.6405 106.009-55.7346 104.903-54.0591L100.848-47.4508C101.244-46.4855 101.771-45.3199 102.189-44.07L109.7-42.265C111.756-41.8233 112.896-40.3261 112.896-38.2934L112.896-31.8269C112.896-29.7837 111.756-28.3339 109.7-27.8553L102.131-26.0873C101.761-24.9322 101.328-23.7771 100.801-22.7538L104.798-16.1666C105.998-14.5121 105.747-12.5008 104.319-11.0626L99.7514-6.43706C98.3461-5.04233 96.3823-4.82749 94.7173-5.97044L88.1076-10.0249C87.0962-9.54503 85.8937-9.11256 84.7281-8.69456L82.9126-1.12637C82.492 0.882776 80.9842 2.0703 78.999 2.0703ZM75.6591-22.6778C82.5497-22.6778 88.1706-28.3461 88.1706-35.2117C88.1706-41.9745 82.5497-47.5954 75.6591-47.5954C68.7935-47.5954 63.1725-41.9745 63.1725-35.2117C63.1725-28.3461 68.7935-22.6778 75.6591-22.6778Z"/>
  </g>
  <g id="Regular-L" transform="matrix(1 0 0 1 1374.99 1556)">
   <path d="M74.8301 28.3821C109.632 28.3821 138.454-0.387857 138.454-35.1893C138.454-69.9907 109.579-98.7606 74.7774-98.7606C40.0011-98.7606 11.2588-69.9907 11.2588-35.1893C11.2588-0.387857 40.0538 28.3821 74.8301 28.3821ZM71.3946 2.67575C69.5148 2.67575 68.1225 1.57753 67.7179-0.35765L65.818-8.28392C64.4836-8.73878 63.202-9.21875 62.0787-9.75148L55.1175-5.49177C53.5844-4.391 51.7624-4.5795 50.3927-5.92153L45.6679-10.6991C44.2455-12.0688 44.0846-13.9435 45.2382-15.5294L49.3923-22.4378C48.832-23.5612 48.352-24.8428 47.9499-26.1244L39.9985-27.9715C38.0633-28.4289 37.0179-29.7684 37.0179-31.701L37.0179-38.4137C37.0179-40.3464 38.0633-41.7386 39.9985-42.1433L47.8971-44.0431C48.352-45.4303 48.9375-46.7119 49.3923-47.7825L45.1326-54.6909C44.0846-56.2768 44.1927-58.046 45.5624-59.4684L50.3927-64.246C51.7624-65.588 53.3733-65.7765 55.1175-64.7813L62.0259-60.4688C63.202-61.0543 64.4836-61.587 65.818-62.0419L67.7179-69.9154C68.1225-71.8506 69.5148-72.9488 71.3946-72.9488L78.3184-72.9488C80.1983-72.9488 81.5905-71.8506 81.9952-69.9154L83.895-61.9891C85.2294-61.5343 86.511-60.9488 87.6067-60.4688L94.5679-64.7813C96.287-65.7765 97.9507-65.5352 99.2927-64.246L104.123-59.4684C105.493-58.046 105.628-56.2768 104.58-54.6909L100.321-47.7825C100.748-46.7119 101.333-45.4303 101.788-44.0431L109.662-42.1433C111.65-41.7386 112.695-40.3464 112.695-38.4137L112.695-31.701C112.695-29.7684 111.65-28.4289 109.662-27.9715L101.736-26.1244C101.333-24.8428 100.853-23.5612 100.268-22.4378L104.475-15.5294C105.628-13.9435 105.387-12.0688 104.017-10.6991L99.2927-5.92153C97.9507-4.5795 96.1287-4.391 94.5428-5.49177L87.6067-9.75148C86.511-9.21875 85.1767-8.73878 83.895-8.28392L81.9952-0.35765C81.5905 1.57753 80.1983 2.67575 78.3184 2.67575ZM74.8578-22.2366C81.9901-22.2366 87.8105-28.1098 87.8105-35.2169C87.8105-42.216 81.9901-48.0365 74.8578-48.0365C67.7506-48.0365 61.9302-42.216 61.9302-35.2169C61.9302-28.1098 67.7506-22.2366 74.8578-22.2366Z"/>
  </g>
  <g id="Light-L" transform="matrix(1 0 0 1 1079.2 1556)">
   <path d="M73.9141 27.466C108.257 27.466 136.603-0.845903 136.603-35.1893C136.603-69.5327 108.224-97.8445 73.8804-97.8445C39.5239-97.8445 11.2588-69.5327 11.2588-35.1893C11.2588-0.845903 39.5576 27.466 73.9141 27.466ZM70.3831 2.38947C68.4269 2.38947 67.0728 1.31033 66.6109-0.739356L64.7874-8.47477C63.5866-8.91055 62.4195-9.33326 61.3534-9.78965L54.5831-5.5872C52.9355-4.44826 51.1326-4.65584 49.7056-6.03604L44.8282-10.9472C43.3675-12.3741 43.2067-14.2107 44.3793-15.892L48.5144-22.6287C48.0113-23.6947 47.5886-24.8619 47.1865-26.029L39.4641-27.8188C37.4144-28.3144 36.369-29.6348 36.369-31.6247L36.369-38.5855C36.369-40.5754 37.4144-41.9295 39.4641-42.3914L47.1528-44.2149C47.5886-45.4494 48.0786-46.6165 48.5144-47.6489L44.312-54.3856C43.2067-56.0668 43.3339-57.8361 44.7608-59.2967L49.7056-64.2078C51.1326-65.588 52.8008-65.7956 54.5831-64.724L61.3198-60.4879C62.4195-60.9779 63.5866-61.4343 64.7874-61.8701L66.6109-69.5719C67.0728-71.6215 68.4269-72.7007 70.3831-72.7007L77.4787-72.7007C79.4349-72.7007 80.7889-71.6215 81.2508-69.5719L83.0744-61.8364C84.2752-61.4007 85.4423-60.9106 86.4616-60.4879L93.232-64.724C95.0273-65.7956 96.7292-65.5543 98.1094-64.2078L103.054-59.2967C104.481-57.8361 104.655-56.0668 103.55-54.3856L99.3474-47.6489C99.7364-46.6165 100.226-45.4494 100.662-44.2149L108.364-42.3914C110.447-41.9295 111.493-40.5754 111.493-38.5855L111.493-31.6247C111.493-29.6348 110.447-28.3144 108.364-27.8188L100.629-26.029C100.226-24.8619 99.8038-23.6947 99.3137-22.6287L103.482-15.892C104.655-14.2107 104.414-12.3741 102.987-10.9472L98.1094-6.03604C96.7292-4.65584 94.9263-4.44826 93.245-5.5872L86.4616-9.78965C85.4423-9.33326 84.2415-8.91055 83.0744-8.47477L81.2508-0.739356C80.7889 1.31033 79.4349 2.38947 77.4787 2.38947ZM73.9608-22.1221C81.1312-22.1221 87.028-28.0525 87.028-35.236C87.028-42.2924 81.1312-48.1891 73.9608-48.1891C66.7773-48.1891 60.8805-42.2924 60.8805-35.236C60.8805-28.0525 66.7773-22.1221 73.9608-22.1221Z"/>
  </g>
  <g id="Thin-L" transform="matrix(1 0 0 1 783.716 1556)">
   <path d="M72.7024 26.2544C106.44 26.2544 134.155-1.45171 134.155-35.1893C134.155-68.9269 106.432-96.6329 72.694-96.6329C38.8929-96.6329 11.2588-68.9269 11.2588-35.1893C11.2588-1.45171 38.9013 26.2544 72.7024 26.2544ZM69.0453 2.01084C66.9881 2.01084 65.6845 0.956949 65.1469-1.24419L63.4244-8.72719C62.4003-9.13772 61.3846-9.48471 60.3943-9.84013L53.8763-5.71341C52.0773-4.52398 50.2996-4.75681 48.7969-6.18749L43.7175-11.2753C42.2064-12.778 42.0456-14.5641 43.2434-16.3716L47.3533-22.8811C46.9259-23.8714 46.5789-24.8871 46.1768-25.9028L38.7574-27.6169C36.5562-28.1629 35.5108-29.4581 35.5108-31.5237L35.5108-38.8127C35.5108-40.8783 36.5562-42.1819 38.7574-42.7195L46.1684-44.4421C46.5789-45.4746 46.9428-46.4903 47.3533-47.4722L43.2266-53.9817C42.0456-55.7892 42.198-57.5584 43.7007-59.0695L48.7969-64.1573C50.2996-65.588 52.0435-65.8208 53.8763-64.6483L60.3858-60.5131C61.3846-60.877 62.4003-61.2324 63.4244-61.6429L65.1469-69.1175C65.6845-71.3186 66.9881-72.3725 69.0453-72.3725L76.368-72.3725C78.4252-72.3725 79.7288-71.3186 80.2664-69.1175L81.989-61.6345C83.0131-61.224 84.0287-60.8601 84.9471-60.5131L91.465-64.6483C93.3614-65.8208 95.1137-65.5796 96.5444-64.1573L101.641-59.0695C103.143-57.5584 103.368-55.7892 102.187-53.9817L98.06-47.4722C98.3986-46.4903 98.7624-45.4746 99.173-44.4421L106.648-42.7195C108.857-42.1819 109.903-40.8783 109.903-38.8127L109.903-31.5237C109.903-29.4581 108.857-28.1629 106.648-27.6169L99.1645-25.9028C98.7624-24.8871 98.4155-23.8714 98.0516-22.8811L102.17-16.3716C103.368-14.5641 103.126-12.778 101.624-11.2753L96.5444-6.18749C95.1137-4.75681 93.3361-4.52398 91.5286-5.71341L84.9471-9.84013C84.0287-9.48471 83.0046-9.13772 81.989-8.72719L80.2664-1.24419C79.7288 0.956949 78.4252 2.01084 76.368 2.01084ZM72.7744-21.9706C79.9953-21.9706 85.9931-27.9768 85.9931-35.2613C85.9931-42.3933 79.9953-48.3911 72.7744-48.3911C65.49-48.3911 59.4922-42.3933 59.4922-35.2613C59.4922-27.9768 65.49-21.9706 72.7744-21.9706Z"/>
  </g>
  <g id="Ultralight-L" transform="matrix(1 0 0 1 487.631 1556)">
   <path d="M72.0819 25.6338C105.509 25.6338 132.9-1.762 132.9-35.1893C132.9-68.6166 105.514-96.0124 72.0864-96.0124C38.5697-96.0124 11.2588-68.6166 11.2588-35.1893C11.2588-1.762 38.5652 25.6338 72.0819 25.6338ZM68.3601 1.81691C66.2512 1.81691 64.9735 0.775947 64.397-1.50277L62.7262-8.85647C61.7926-9.25408 60.8545-9.56228 59.903-9.86599L53.5143-5.77805C51.6377-4.56277 49.8729-4.80852 48.3315-6.26507L43.1487-11.4434C41.6117-12.9848 41.4509-14.7451 42.6617-16.6172L46.7586-23.0104C46.37-23.9619 46.0618-24.9 45.6597-25.8381L38.3954-27.5134C36.1166-28.0854 35.0712-29.3676 35.0712-31.472L35.0712-38.929C35.0712-41.0334 36.1166-42.3112 38.3954-42.8876L45.6641-44.5584C46.0618-45.4875 46.361-46.4256 46.7586-47.3817L42.6706-53.7748C41.4509-55.6469 41.6162-57.4162 43.1576-58.9531L48.3315-64.1315C49.8729-65.588 51.6557-65.8338 53.5143-64.6095L59.9075-60.5261C60.8545-60.8253 61.7926-61.129 62.7262-61.5266L64.397-68.8848C64.9735-71.1635 66.2512-72.2045 68.3601-72.2045L75.7992-72.2045C77.908-72.2045 79.1858-71.1635 79.7622-68.8848L81.433-61.5311C82.3666-61.1335 83.3047-60.8343 84.1714-60.5261L90.56-64.6095C92.5081-65.8338 94.2863-65.5925 95.7428-64.1315L100.917-58.9531C102.458-57.4162 102.708-55.6469 101.489-53.7748L97.4007-47.3817C97.7134-46.4256 98.0126-45.4875 98.4102-44.5584L105.768-42.8876C108.043-42.3112 109.088-41.0334 109.088-38.929L109.088-31.472C109.088-29.3676 108.043-28.0854 105.768-27.5134L98.4147-25.8381C98.0126-24.9 97.7044-23.9619 97.4052-23.0104L101.498-16.6172C102.708-14.7451 102.467-12.9848 100.926-11.4434L95.7428-6.26507C94.2863-4.80852 92.5216-4.56277 90.6494-5.77805L84.1714-9.86599C83.3047-9.56228 82.3711-9.25408 81.433-8.85647L79.7622-1.50277C79.1858 0.775947 77.908 1.81691 75.7992 1.81691ZM72.1668-21.893C79.4136-21.893 85.463-27.938 85.463-35.2742C85.463-42.445 79.4136-48.4945 72.1668-48.4945C64.8306-48.4945 58.7811-42.445 58.7811-35.2742C58.7811-27.938 64.8306-21.893 72.1668-21.893Z"/>
  </g>
  <g id="Black-M" transform="matrix(1 0 0 1 2871.36 1126)">
   <path d="M62.0422 18.1783C91.4096 18.1783 115.367-5.7739 115.367-35.1412C115.367-64.5086 91.4041-88.4608 62.0367-88.4608C32.6752-88.4608 8.72266-64.5086 8.72266-35.1412C8.72266-5.7739 32.6807 18.1783 62.0422 18.1783ZM60.003-9.24833C57.9483-9.24833 56.2553-10.5776 55.8356-12.5176L54.8478-16.6488C54.5185-16.7945 54.2518-16.8889 53.8873-16.9888L50.3325-14.8225C48.647-13.7276 46.4715-14.0232 45.0758-15.3621L42.217-18.2835C40.8158-19.7363 40.577-21.9173 41.7345-23.5512L43.8327-27.1005C43.7331-27.4079 43.6387-27.6746 43.4984-27.9414L39.3615-28.9237C37.4215-29.4059 36.0977-31.0363 36.0977-33.1536L36.0977-37.1014C36.0977-39.1616 37.4215-40.7975 39.3615-41.3314L43.4358-42.2621C43.5816-42.5398 43.687-42.8636 43.8327-43.1084L41.6664-46.7719C40.5199-48.52 40.6961-50.633 42.206-52.0342L45.1328-54.9555C46.5856-56.2373 48.4537-56.5329 50.2183-55.5632L53.8818-53.3343C54.1947-53.4397 54.5185-53.5967 54.8478-53.6853L55.8356-57.811C56.2553-59.8081 57.9483-61.1374 60.003-61.1374L64.0869-61.1374C66.1417-61.1374 67.8347-59.8081 68.2543-57.8681L69.2992-53.6798C69.5714-53.5341 69.8382-53.4287 70.2029-53.2772L73.8719-55.5632C75.6307-56.5329 77.5043-56.2318 78.9574-54.9555L81.8842-52.0342C83.3941-50.633 83.57-48.52 82.4236-46.7719L80.2573-43.1084C80.4033-42.8636 80.5087-42.5398 80.6544-42.2621L84.723-41.3314C86.6684-40.7975 87.9922-39.1616 87.9922-37.1014L87.9922-33.1536C87.9922-31.0363 86.6684-29.4059 84.723-28.9237L80.5918-27.9414C80.4516-27.6746 80.3572-27.4079 80.2518-27.1005L82.3555-23.5512C83.5129-21.9173 83.2689-19.7363 81.8732-18.2835L79.0145-15.3621C77.6185-14.0232 75.443-13.7276 73.7519-14.8225L70.2029-16.9888C69.8382-16.8889 69.566-16.7945 69.2421-16.6488L68.2543-12.5176C67.8347-10.5776 66.1417-9.24833 64.0869-9.24833ZM62.0419-27.5204C66.2681-27.5204 69.7199-30.9777 69.7199-35.1981C69.7199-39.3564 66.2681-42.8082 62.0419-42.8082C57.8216-42.8082 54.3697-39.3564 54.3697-35.1981C54.3697-30.9777 57.8216-27.5204 62.0419-27.5204Z"/>
  </g>
  <g id="Heavy-M" transform="matrix(1 0 0 1 2575.48 1126)">
   <path d="M61.2053 17.328C90.0667 17.328 113.704-6.29341 113.704-35.1547C113.704-64.016 90.0502-87.6374 61.1889-87.6374C32.3418-87.6374 8.72266-64.016 8.72266-35.1547C8.72266-6.29341 32.3582 17.328 61.2053 17.328ZM59.0321-8.41082C57.1288-8.41082 55.5757-9.62979 55.1888-11.4503L54.0765-16.0814C53.5629-16.2785 53.1094-16.4461 52.6179-16.6301L48.6036-14.1885C47.0509-13.1559 45.0531-13.4136 43.744-14.6768L40.7166-17.7642C39.3912-19.1169 39.1793-21.1311 40.272-22.6566L42.6371-26.6545C42.4508-27.1024 42.2832-27.5559 42.1026-28.0094L37.4574-29.1053C35.6368-29.5523 34.4342-31.0454 34.4342-33.0087L34.4342-37.2187C34.4342-39.1384 35.6368-40.6479 37.4574-41.1221L42.0426-42.1908C42.2396-42.6771 42.44-43.1742 42.6371-43.5621L40.1955-47.6473C39.1357-49.2599 39.2875-51.1977 40.6838-52.5232L43.7876-55.6106C45.1403-56.8302 46.8544-57.0879 48.5163-56.1754L52.6014-53.6737C53.0658-53.8741 53.5629-54.1018 54.0765-54.2552L55.1888-58.8699C55.5757-60.7341 57.1288-61.953 59.0321-61.953L63.395-61.953C65.2983-61.953 66.8514-60.7341 67.2383-58.9135L68.3943-54.2388C68.8642-54.0417 69.3177-53.8413 69.807-53.6301L73.9085-56.1754C75.5563-57.0879 77.2868-56.8138 78.6372-55.6106L81.741-52.5232C83.1373-51.1977 83.2914-49.2599 82.2316-47.6473L79.79-43.5621C79.9848-43.1742 80.1852-42.6771 80.3823-42.1908L84.9533-41.1221C86.7903-40.6479 87.9929-39.1384 87.9929-37.2187L87.9929-33.0087C87.9929-31.0454 86.7903-29.5523 84.9533-29.1053L80.3222-28.0094C80.1416-27.5559 79.974-27.1024 79.7736-26.6545L82.1551-22.6566C83.2478-21.1311 83.0173-19.1169 81.7082-17.7642L78.6808-14.6768C77.374-13.4136 75.3762-13.1559 73.8071-14.1885L69.807-16.6301C69.3177-16.4461 68.8478-16.2785 68.3506-16.0814L67.2383-11.4503C66.8514-9.62979 65.2983-8.41082 63.395-8.41082ZM61.2076-26.9795C65.7353-26.9795 69.4265-30.6871 69.4265-35.2006C69.4265-39.6496 65.7353-43.3407 61.2076-43.3407C56.6941-43.3407 53.0029-39.6496 53.0029-35.2006C53.0029-30.6871 56.6941-26.9795 61.2076-26.9795Z"/>
  </g>
  <g id="Bold-M" transform="matrix(1 0 0 1 2279.69 1126)">
   <path d="M60.2692 16.3767C88.5644 16.3767 111.844-6.87455 111.844-35.1698C111.844-63.465 88.5358-86.7163 60.2405-86.7163C31.9688-86.7163 8.72266-63.465 8.72266-35.1698C8.72266-6.87455 31.9974 16.3767 60.2692 16.3767ZM57.9459-7.47395C56.2121-7.47395 54.8154-8.56947 54.4652-10.2565L53.2136-15.4468C52.4939-15.7013 51.8315-15.9508 51.1978-16.2288L46.6694-13.4793C45.2654-12.5163 43.4664-12.7317 42.2543-13.9101L39.0382-17.1834C37.7975-18.4241 37.6158-20.2517 38.6359-21.6558L41.2996-26.1555C41.0164-26.7606 40.767-27.4231 40.5411-28.0856L35.3273-29.3085C33.6403-29.716 32.5734-31.0555 32.5734-32.8465L32.5734-37.35C32.5734-39.1124 33.6403-40.4806 35.3273-40.8879L40.484-42.111C40.7385-42.8307 41.0451-43.5217 41.2996-44.0697L38.5501-48.6265C37.5872-50.0877 37.7117-51.8295 38.981-53.0702L42.2829-56.3435C43.5235-57.4934 45.0653-57.7088 46.6123-56.8602L51.1692-54.0534C51.8029-54.3601 52.4939-54.6667 53.2136-54.8927L54.4652-60.0544C54.8154-61.77 56.2121-62.8655 57.9459-62.8655L62.621-62.8655C64.3548-62.8655 65.7515-61.77 66.1018-60.083L67.3819-54.8641C68.073-54.6096 68.7355-54.3029 69.364-54.0249L73.9495-56.8602C75.473-57.7088 77.0434-57.4648 78.279-56.3435L81.5809-53.0702C82.8501-51.8295 82.9797-50.0877 82.0168-48.6265L79.2673-44.0697C79.5167-43.5217 79.8234-42.8307 80.0779-42.111L85.211-40.8879C86.9267-40.4806 87.9936-39.1124 87.9936-37.35L87.9936-32.8465C87.9936-31.0555 86.9267-29.716 85.211-29.3085L80.0207-28.0856C79.7948-27.4231 79.5454-26.7606 79.2387-26.1555L81.931-21.6558C82.9512-20.2517 82.7357-18.4241 81.5236-17.1834L78.3075-13.9101C77.1005-12.7317 75.3015-12.5163 73.8689-13.4793L69.364-16.2288C68.7355-15.9508 68.0444-15.7013 67.3534-15.4468L66.1018-10.2565C65.7515-8.56947 64.3548-7.47395 62.621-7.47395ZM60.2743-26.3745C65.1393-26.3745 69.0982-30.3619 69.0982-35.2035C69.0982-39.9776 65.1393-43.9364 60.2743-43.9364C55.4328-43.9364 51.4739-39.9776 51.4739-35.2035C51.4739-30.3619 55.4328-26.3745 60.2743-26.3745Z"/>
  </g>
  <g id="Semibold-M" transform="matrix(1 0 0 1 1983.62 1126)">
   <path d="M59.6238 15.7209C87.5288 15.7209 110.562-7.27519 110.562-35.1802C110.562-63.0852 87.4917-86.0813 59.5867-86.0813C31.7117-86.0813 8.72266-63.0852 8.72266-35.1802C8.72266-7.27519 31.7487 15.7209 59.6238 15.7209ZM57.1972-6.82808C55.5801-6.82808 54.2913-7.83849 53.9663-9.43339L52.6187-15.0093C51.757-15.3034 50.9505-15.6093 50.2188-15.9522L45.3361-12.9903C44.0345-12.0754 42.3726-12.2616 41.2273-13.3816L37.8811-16.783C36.6988-17.9464 36.5379-19.6454 37.508-20.9658L40.3776-25.8115C40.0276-26.5251 39.7217-27.3316 39.4647-28.1381L33.8588-29.4486C32.2639-29.8288 31.2905-31.0625 31.2905-32.7347L31.2905-37.4405C31.2905-39.0945 32.2639-40.3652 33.8588-40.7265L39.4095-42.056C39.7036-42.9366 40.0835-43.7612 40.3776-44.4196L37.4158-49.3016C36.5197-50.6583 36.6254-52.265 37.807-53.4474L41.2455-56.8487C42.4089-57.9506 43.8319-58.1368 45.2997-57.3322L50.1817-54.3152C50.9323-54.6952 51.757-55.0562 52.6187-55.3322L53.9663-60.871C54.2913-62.4841 55.5801-63.4945 57.1972-63.4945L62.0874-63.4945C63.7044-63.4945 64.9933-62.4841 65.3183-60.8892L66.6841-55.2951C67.5276-55.001 68.3341-54.6211 69.0587-54.297L73.9777-57.3322C75.4156-58.1368 76.8757-57.9136 78.032-56.8487L81.4704-53.4474C82.652-52.265 82.7649-50.6583 81.8688-49.3016L78.907-44.4196C79.1939-43.7612 79.5739-42.9366 79.868-42.056L85.3887-40.7265C87.0207-40.3652 87.994-39.0945 87.994-37.4405L87.994-32.7347C87.994-31.0625 87.0207-29.8288 85.3887-29.4486L79.8128-28.1381C79.5557-27.3316 79.2499-26.5251 78.8699-25.8115L81.7766-20.9658C82.7467-19.6454 82.5416-17.9464 81.3964-16.783L78.0502-13.3816C76.912-12.2616 75.25-12.0754 73.9115-12.9903L69.0587-15.9522C68.3341-15.6093 67.4906-15.3034 66.6659-15.0093L65.3183-9.43339C64.9933-7.83849 63.7044-6.82808 62.0874-6.82808ZM59.6309-25.9574C64.7284-25.9574 68.8718-30.1378 68.8718-35.2054C68.8718-40.2037 64.7284-44.3471 59.6309-44.3471C54.5632-44.3471 50.4198-40.2037 50.4198-35.2054C50.4198-30.1378 54.5632-25.9574 59.6309-25.9574Z"/>
  </g>
  <g id="Medium-M" transform="matrix(1 0 0 1 1687.4 1126)">
   <path d="M59.1344 15.2237C86.7435 15.2237 109.59-7.57896 109.59-35.1881C109.59-62.7972 86.7001-85.5998 59.091-85.5998C31.5167-85.5998 8.72266-62.7972 8.72266-35.1881C8.72266-7.57896 31.5601 15.2237 59.1344 15.2237ZM56.6294-6.33835C55.101-6.33835 53.8939-7.28423 53.5881-8.80931L52.1676-14.6776C51.1982-15.0017 50.2825-15.3504 49.4765-15.7424L44.325-12.6196C43.1012-11.7411 41.5432-11.9051 40.4486-12.9809L37.0038-16.4794C35.8657-17.5843 35.7205-19.1857 36.6528-20.4427L39.6785-25.5507C39.2778-26.3464 38.9291-27.2621 38.6484-28.1779L32.7454-29.5549C31.2203-29.9144 30.3178-31.0678 30.3178-32.6499L30.3178-37.5091C30.3178-39.0809 31.2203-40.2777 32.7454-40.6041L38.5947-42.0143C38.9189-43.0169 39.3544-43.9429 39.6785-44.6849L36.5557-49.8134C35.7103-51.091 35.8017-52.5953 36.9169-53.7333L40.4589-57.2318C41.5638-58.2973 42.8967-58.4614 44.3045-57.6902L49.433-54.5137C50.2722-54.9492 51.1982-55.3516 52.1676-55.6654L53.5881-61.4902C53.8939-63.0256 55.101-63.9715 56.6294-63.9715L61.6828-63.9715C63.2113-63.9715 64.4183-63.0256 64.7242-61.5005L66.1549-55.622C67.114-55.2979 68.0297-54.8623 68.8271-54.5034L73.9991-57.6902C75.3721-58.4614 76.7485-58.2539 77.8448-57.2318L81.3867-53.7333C82.5019-52.5953 82.6019-51.091 81.7565-49.8134L78.6337-44.6849C78.9492-43.9429 79.3848-43.0169 79.7089-42.0143L85.5234-40.6041C87.0919-40.2777 87.9944-39.0809 87.9944-37.5091L87.9944-32.6499C87.9944-31.0678 87.0919-29.9144 85.5234-29.5549L79.6552-28.1779C79.3745-27.2621 79.0258-26.3464 78.5903-25.5507L81.6594-20.4427C82.5917-19.1857 82.3945-17.5843 81.2999-16.4794L77.855-12.9809C76.769-11.9051 75.211-11.7411 73.9437-12.6196L68.8271-15.7424C68.0297-15.3504 67.0706-15.0017 66.1446-14.6776L64.7242-8.80931C64.4183-7.28423 63.2113-6.33835 61.6828-6.33835ZM59.143-25.6411C64.4169-25.6411 68.7002-29.9679 68.7002-35.2069C68.7002-40.3751 64.4169-44.6584 59.143-44.6584C53.9039-44.6584 49.6206-40.3751 49.6206-35.2069C49.6206-29.9679 53.9039-25.6411 59.143-25.6411Z"/>
  </g>
  <g id="Regular-M" transform="matrix(1 0 0 1 1391.32 1126)">
   <path d="M58.4961 14.5751C85.7192 14.5751 108.321-7.9752 108.321-35.1983C108.321-62.4215 85.6675-84.9718 58.4443-84.9718C31.2624-84.9718 8.72266-62.4215 8.72266-35.1983C8.72266-7.9752 31.3141 14.5751 58.4961 14.5751ZM55.8888-5.69957C54.4759-5.69957 53.3756-6.56129 53.0947-7.9953L51.5793-14.2449C50.4693-14.6081 49.4112-15.0126 48.5082-15.4689L43.0063-12.1361C41.8838-11.305 40.4614-11.4402 39.4329-12.4581L35.8594-16.0834C34.7791-17.1119 34.6545-18.5861 35.5373-19.7603L38.7666-25.2105C38.2998-26.1134 37.8953-27.1716 37.5838-28.2298L31.293-29.6934C29.859-30.026 29.0491-31.0747 29.0491-32.5393L29.0491-37.5986C29.0491-39.0632 29.859-40.1636 31.293-40.4445L37.5321-41.9599C37.8953-43.1216 38.4033-44.1798 38.7666-45.0309L35.4338-50.4811C34.6545-51.6553 34.7274-53.026 35.7559-54.1063L39.4329-57.7315C40.4614-58.7495 41.6768-58.8847 43.0063-58.1571L48.4565-54.7726C49.4112-55.2805 50.4693-55.7368 51.5793-56.1001L53.0947-62.2979C53.3756-63.7319 54.4759-64.5936 55.8888-64.5936L61.1551-64.5936C62.568-64.5936 63.6684-63.7319 63.9493-62.2979L65.4647-56.0483C66.5746-55.685 67.6328-55.177 68.5251-54.7726L74.0271-58.1571C75.3154-58.8847 76.5825-58.6978 77.6005-57.7315L81.2775-54.1063C82.306-53.026 82.3894-51.6553 81.6101-50.4811L78.2773-45.0309C78.6301-44.1798 79.138-43.1216 79.5013-41.9599L85.6991-40.4445C87.1849-40.1636 87.9949-39.0632 87.9949-37.5986L87.9949-32.5393C87.9949-31.0747 87.1849-30.026 85.6991-29.6934L79.4496-28.2298C79.138-27.1716 78.7336-26.1134 78.2256-25.2105L81.5066-19.7603C82.3894-18.5861 82.2025-17.1119 81.174-16.0834L77.6005-12.4581C76.5825-11.4402 75.1601-11.305 73.9858-12.1361L68.5251-15.4689C67.6328-15.0126 66.5228-14.6081 65.4647-14.2449L63.9493-7.9953C63.6684-6.56129 62.568-5.69957 61.1551-5.69957ZM58.5066-25.2286C64.0106-25.2286 68.4764-29.7462 68.4764-35.2089C68.4764-40.5987 64.0106-45.0646 58.5066-45.0646C53.0439-45.0646 48.5781-40.5987 48.5781-35.2089C48.5781-29.7462 53.0439-25.2286 58.5066-25.2286Z"/>
  </g>
  <g id="Light-M" transform="matrix(1 0 0 1 1095.44 1126)">
   <path d="M57.6748 13.7538C84.4872 13.7538 106.662-8.38586 106.662-35.1983C106.662-62.0108 84.4526-84.1504 57.6401-84.1504C30.8346-84.1504 8.72266-62.0108 8.72266-35.1983C8.72266-8.38586 30.8693 13.7538 57.6748 13.7538ZM54.982-5.95624C53.5006-5.95624 52.4345-6.80084 52.1022-8.33752L50.6553-14.416C49.6651-14.7621 48.7096-15.1153 47.858-15.5031L42.5272-12.2216C41.3021-11.3563 39.8967-11.5086 38.8169-12.5608L35.1065-16.3058C33.992-17.3857 33.8674-18.8256 34.7673-20.0854L37.9795-25.3816C37.5641-26.2332 37.2109-27.1887 36.8994-28.1442L30.8139-29.5565C29.2773-29.9234 28.4673-30.9549 28.4673-32.4709L28.4673-37.7526C28.4673-39.2686 29.2773-40.3347 30.8139-40.6669L36.8647-42.1139C37.2109-43.1387 37.6333-44.0942 37.9795-44.9112L34.698-50.2073C33.8674-51.4671 33.9574-52.8378 35.0372-53.9523L38.8169-57.6973C39.8967-58.7495 41.1635-58.9018 42.5272-58.1058L47.8234-54.7897C48.7096-55.2121 49.6651-55.5999 50.6553-55.9461L52.1022-61.9899C52.4345-63.5266 53.5006-64.3712 54.982-64.3712L60.4022-64.3712C61.8836-64.3712 62.9497-63.5266 63.2819-61.9899L64.7289-55.9114C65.719-55.5653 66.6746-55.1428 67.4985-54.7897L72.8293-58.1058C74.186-58.9018 75.4874-58.7149 76.5396-57.6973L80.3193-53.9523C81.3991-52.8378 81.5168-51.4671 80.6861-50.2073L77.4047-44.9112C77.7232-44.0942 78.1456-43.1387 78.4918-42.1139L84.5356-40.6669C86.1069-40.3347 86.9169-39.2686 86.9169-37.7526L86.9169-32.4709C86.9169-30.9549 86.1069-29.9234 84.5356-29.5565L78.4571-28.1442C78.1456-27.1887 77.7925-26.2332 77.37-25.3816L80.6169-20.0854C81.5168-18.8256 81.3299-17.3857 80.25-16.3058L76.5396-12.5608C75.4874-11.5086 74.0821-11.3563 72.8223-12.2216L67.4985-15.5031C66.6746-15.1153 65.6844-14.7621 64.7289-14.416L63.2819-8.33752C62.9497-6.80084 61.8836-5.95624 60.4022-5.95624ZM57.7024-25.1259C63.2406-25.1259 67.7748-29.6948 67.7748-35.226C67.7748-40.6672 63.2406-45.2015 57.7024-45.2015C52.1713-45.2015 47.637-40.6672 47.637-35.226C47.637-29.6948 52.1713-25.1259 57.7024-25.1259Z"/>
  </g>
  <g id="Thin-M" transform="matrix(1 0 0 1 799.828 1126)">
   <path d="M56.5885 12.6675C82.8578 12.6675 104.466-8.92899 104.466-35.1983C104.466-61.4677 82.8458-83.0642 56.5765-83.0642C30.2689-83.0642 8.72266-61.4677 8.72266-35.1983C8.72266-8.92899 30.2809 12.6675 56.5885 12.6675ZM53.7825-6.2957C52.2107-6.2957 51.1898-7.11767 50.7897-8.79013L49.4332-14.6423C48.6015-14.9658 47.7818-15.2511 46.9981-15.5483L41.8936-12.3348C40.5326-11.4242 39.1499-11.5991 38.0022-12.6966L34.1108-16.6C32.951-17.7477 32.8264-19.1425 33.7489-20.5154L36.9385-25.6079C36.5909-26.3916 36.3057-27.2113 35.9942-28.0311L30.1803-29.3755C28.5078-29.7876 27.6979-30.7965 27.6979-32.3804L27.6979-37.9562C27.6979-39.5401 28.5078-40.561 30.1803-40.9611L35.9821-42.3176C36.3057-43.1613 36.615-43.9811 36.9385-44.7527L33.7249-49.8452C32.8264-51.2182 32.939-52.5889 34.0867-53.7486L38.0022-57.6521C39.1499-58.7495 40.4846-58.9244 41.8936-58.0379L46.986-54.8123C47.7818-55.1216 48.6015-55.4189 49.4332-55.7424L50.7897-61.5825C51.1898-63.255 52.2107-64.077 53.7825-64.077L59.4065-64.077C60.9783-64.077 61.9992-63.255 62.3993-61.5825L63.7558-55.7304C64.5875-55.4068 65.4072-55.0976 66.1406-54.8123L71.2451-58.0379C72.6924-58.9244 74.0391-58.7375 75.1365-57.6521L79.052-53.7486C80.1997-52.5889 80.3626-51.2182 79.4641-49.8452L76.2505-44.7527C76.5238-43.9811 76.833-43.1613 77.1566-42.3176L82.9967-40.9611C84.6812-40.561 85.4911-39.5401 85.4911-37.9562L85.4911-32.3804C85.4911-30.7965 84.6812-29.7876 82.9967-29.3755L77.1446-28.0311C76.833-27.2113 76.5478-26.3916 76.2385-25.6079L79.4401-20.5154C80.3626-19.1425 80.1757-17.7477 79.028-16.6L75.1365-12.6966C74.0391-11.5991 72.6564-11.4242 71.2834-12.3348L66.1406-15.5483C65.4072-15.2511 64.5755-14.9658 63.7558-14.6423L62.3993-8.79013C61.9992-7.11767 60.9783-6.2957 59.4065-6.2957ZM56.6388-24.9901C62.2222-24.9901 66.847-29.627 66.847-35.2486C66.847-40.7577 62.2222-45.3825 56.6388-45.3825C51.0171-45.3825 46.3923-40.7577 46.3923-35.2486C46.3923-29.627 51.0171-24.9901 56.6388-24.9901Z"/>
  </g>
  <g id="Ultralight-M" transform="matrix(1 0 0 1 503.679 1126)">
   <path d="M56.0321 12.1111C82.0233 12.1111 103.342-9.20719 103.342-35.1983C103.342-61.1895 82.0228-82.5078 56.0317-82.5078C29.9791-82.5078 8.72266-61.1895 8.72266-35.1983C8.72266-9.20719 29.9795 12.1111 56.0321 12.1111ZM53.1682-6.46957C51.55-6.46957 50.5522-7.27995 50.1174-9.02195L48.8073-14.7582C48.0567-15.0701 47.3065-15.3206 46.5576-15.5715L41.569-12.3927C40.1385-11.459 38.7674-11.6455 37.5849-12.7661L33.6007-16.7507C32.4178-17.9332 32.2932-19.3048 33.2273-20.7357L36.4053-25.7238C36.0925-26.4727 35.842-27.2229 35.5305-27.9731L29.8557-29.2828C28.1137-29.7181 27.3038-30.7153 27.3038-32.334L27.3038-38.0606C27.3038-39.6792 28.1137-40.6769 29.8557-41.1118L35.5301-42.4219C35.842-43.1729 36.0934-43.9231 36.4053-44.6716L33.2265-49.6598C32.2932-51.0907 32.4174-52.4614 33.5999-53.6443L37.5849-57.6289C38.7674-58.7495 40.1368-58.936 41.569-58.0031L46.5572-54.8239C47.3065-55.0752 48.0567-55.3261 48.8073-55.6381L50.1174-61.3739C50.5522-63.1159 51.55-63.9263 53.1682-63.9263L58.8964-63.9263C60.5147-63.9263 61.5124-63.1159 61.9473-61.3739L63.2574-55.6376C64.008-55.3257 64.7581-55.0744 65.4452-54.8239L70.4338-58.0031C71.9274-58.936 73.2972-58.7491 74.4179-57.6289L78.4029-53.6443C79.5854-52.4614 79.7715-51.0907 78.8382-49.6598L75.6594-44.6716C75.9094-43.9231 76.1607-43.1729 76.4727-42.4219L82.2085-41.1118C83.9509-40.6769 84.7609-39.6792 84.7609-38.0606L84.7609-32.334C84.7609-30.7153 83.9509-29.7181 82.2085-29.2828L76.4723-27.9731C76.1607-27.2229 75.9103-26.4727 75.6589-25.7238L78.8373-20.7357C79.7715-19.3048 79.5845-17.9332 78.402-16.7507L74.4179-12.7661C73.2972-11.6455 71.9261-11.459 70.4952-12.3927L65.4452-15.5715C64.7581-15.3206 64.0075-15.0701 63.2574-14.7582L61.9473-9.02195C61.5124-7.27995 60.5147-6.46957 58.8964-6.46957ZM56.094-24.9206C61.7006-24.9206 66.3717-29.5922 66.3717-35.2602C66.3717-40.8041 61.7006-45.4752 56.094-45.4752C50.426-45.4752 45.7548-40.8041 45.7548-35.2602C45.7548-29.5922 50.426-24.9206 56.094-24.9206Z"/>
  </g>
  <g id="Black-S" transform="matrix(1 0 0 1 2884.57 696)">
   <path d="M48.8281 6.83594C71.9727 6.83594 90.8203-12.0117 90.8203-35.1562C90.8203-58.3008 71.9727-77.1484 48.8281-77.1484C25.6836-77.1484 6.83594-58.3008 6.83594-35.1562C6.83594-12.0117 25.6836 6.83594 48.8281 6.83594ZM47.2656-15.1367C45.6055-15.1367 44.2383-16.2109 43.8965-17.7734L43.1641-20.8496C42.9688-20.9473 42.8223-20.9961 42.5781-21.0449L39.9414-19.4336C38.5742-18.5547 36.8164-18.7988 35.6934-19.873L33.4961-22.1191C32.373-23.291 32.1777-25.0488 33.1055-26.3672L34.668-29.0039C34.6191-29.1992 34.5703-29.3457 34.4727-29.4922L31.3965-30.2246C29.834-30.6152 28.7598-31.9336 28.7598-33.6426L28.7598-36.6699C28.7598-38.3301 29.834-39.6484 31.3965-40.0879L34.4238-40.7715C34.5215-40.918 34.5703-41.1133 34.668-41.2598L33.0566-43.9941C32.1289-45.4102 32.2754-47.1191 33.4961-48.2422L35.7422-50.4883C36.9141-51.5137 38.4277-51.7578 39.8438-50.9766L42.5781-49.3164C42.7734-49.3652 42.9688-49.4629 43.1641-49.5117L43.8965-52.5879C44.2383-54.1992 45.6055-55.2734 47.2656-55.2734L50.3906-55.2734C52.0508-55.2734 53.418-54.1992 53.7598-52.6367L54.541-49.5117C54.6875-49.4141 54.834-49.3652 55.0781-49.2676L57.8125-50.9766C59.2285-51.7578 60.7422-51.5137 61.9141-50.4883L64.1602-48.2422C65.3809-47.1191 65.5273-45.4102 64.5996-43.9941L62.9883-41.2598C63.0859-41.1133 63.1348-40.918 63.2324-40.7715L66.2598-40.0879C67.8223-39.6484 68.8965-38.3301 68.8965-36.6699L68.8965-33.6426C68.8965-31.9336 67.8223-30.6152 66.2598-30.2246L63.1836-29.4922C63.0859-29.3457 63.0371-29.1992 62.9883-29.0039L64.5508-26.3672C65.4785-25.0488 65.2832-23.291 64.1602-22.1191L61.9629-19.873C60.8398-18.7988 59.082-18.5547 57.7148-19.4336L55.0781-21.0449C54.834-20.9961 54.6875-20.9473 54.4922-20.8496L53.7598-17.7734C53.418-16.2109 52.0508-15.1367 50.3906-15.1367ZM48.8281-29.3457C52.0508-29.3457 54.6875-31.9824 54.6875-35.2051C54.6875-38.3789 52.0508-41.0156 48.8281-41.0156C45.6055-41.0156 42.9688-38.3789 42.9688-35.2051C42.9688-31.9824 45.6055-29.3457 48.8281-29.3457Z"/>
  </g>
  <g id="Heavy-S" transform="matrix(1 0 0 1 2588.47 696)">
   <path d="M48.2173 6.21362C70.9816 6.21362 89.6102-12.4036 89.6102-35.1678C89.6102-57.932 70.97-76.5492 48.2058-76.5492C25.4531-76.5492 6.83594-57.932 6.83594-35.1678C6.83594-12.4036 25.4646 6.21362 48.2173 6.21362ZM46.5511-14.3876C45.0292-14.3876 43.7773-15.3697 43.4701-16.8169L42.6224-20.3425C42.2542-20.4863 41.9349-20.6043 41.5755-20.7338L38.5239-18.8804C37.2835-18.0591 35.6755-18.2687 34.6331-19.2738L32.3091-21.6466C31.2552-22.7263 31.0829-24.3458 31.953-25.5605L33.746-28.6005C33.6165-28.9226 33.4985-29.242 33.3663-29.5613L29.8292-30.3975C28.3819-30.7535 27.4114-31.9566 27.4114-33.5273L27.4114-36.7506C27.4114-38.284 28.3819-39.4986 29.8292-39.8805L33.3175-40.6908C33.4612-41.0332 33.6023-41.3899 33.746-41.6631L31.8927-44.7778C31.0456-46.0671 31.169-47.6262 32.286-48.6801L34.6704-51.053C35.7501-52.0207 37.1255-52.2303 38.4493-51.5067L41.564-49.6045C41.8976-49.7455 42.2542-49.9123 42.6224-50.0188L43.4701-53.5329C43.7773-55.0175 45.0292-55.9995 46.5511-55.9995L49.8951-55.9995C51.4169-55.9995 52.6689-55.0175 52.9761-53.5702L53.8611-50.0073C54.1919-49.8635 54.5113-49.7225 54.8707-49.5672L57.9969-51.5067C59.3092-52.2303 60.6961-52.0092 61.7758-51.053L64.1602-48.6801C65.2771-47.6262 65.4006-46.0671 64.5535-44.7778L62.7002-41.6631C62.8439-41.3899 62.9849-41.0332 63.1287-40.6908L66.6055-39.8805C68.0643-39.4986 69.0348-38.284 69.0348-36.7506L69.0348-33.5273C69.0348-31.9566 68.0643-30.7535 66.6055-30.3975L63.0799-29.5613C62.9476-29.242 62.8297-28.9226 62.6886-28.6005L64.4932-25.5605C65.3633-24.3458 65.1795-22.7263 64.1371-21.6466L61.8131-19.2738C60.7707-18.2687 59.1627-18.0591 57.9108-18.8804L54.8707-20.7338C54.5113-20.6043 54.1804-20.4863 53.8238-20.3425L52.9761-16.8169C52.6689-15.3697 51.4169-14.3876 49.8951-14.3876ZM48.2173-28.8962C51.6935-28.8962 54.5262-31.7404 54.5262-35.2051C54.5262-38.6209 51.6935-41.4536 48.2173-41.4536C44.7527-41.4536 41.92-38.6209 41.92-35.2051C41.92-31.7404 44.7527-28.8962 48.2173-28.8962Z"/>
  </g>
  <g id="Bold-S" transform="matrix(1 0 0 1 2292.43 696)">
   <path d="M47.5342 5.51758C69.873 5.51758 88.2568-12.8418 88.2568-35.1807C88.2568-57.5195 69.8486-75.8789 47.5098-75.8789C25.1953-75.8789 6.83594-57.5195 6.83594-35.1807C6.83594-12.8418 25.2197 5.51758 47.5342 5.51758ZM45.752-13.5498C44.3848-13.5498 43.2617-14.4287 42.9932-15.7471L42.0166-19.7754C41.4551-19.9707 40.9424-20.166 40.4541-20.3857L36.9385-18.2617C35.8398-17.5049 34.3994-17.6758 33.4473-18.6035L30.9814-21.1182C30.0049-22.0947 29.8584-23.5596 30.6641-24.6582L32.7148-28.1494C32.4951-28.6133 32.2998-29.126 32.1289-29.6387L28.0762-30.5908C26.7578-30.9082 25.9033-31.9824 25.9033-33.3984L25.9033-36.8408C25.9033-38.2324 26.7578-39.3311 28.0762-39.6484L32.0801-40.6006C32.2754-41.1621 32.5195-41.6992 32.7148-42.1143L30.5908-45.6543C29.834-46.8018 29.9316-48.1934 30.9326-49.1699L33.4717-51.6846C34.4482-52.5879 35.6689-52.7588 36.8896-52.0996L40.4297-49.9268C40.918-50.1709 41.4551-50.415 42.0166-50.5859L42.9932-54.5898C43.2617-55.9326 44.3848-56.8115 45.752-56.8115L49.3408-56.8115C50.708-56.8115 51.8311-55.9326 52.0996-54.6143L53.1006-50.5615C53.6377-50.3662 54.1504-50.1221 54.6387-49.9023L58.2031-52.0996C59.3994-52.7588 60.6445-52.5635 61.6211-51.6846L64.1602-49.1699C65.1611-48.1934 65.2588-46.8018 64.502-45.6543L62.3779-42.1143C62.5732-41.6992 62.8174-41.1621 63.0127-40.6006L66.9922-39.6484C68.335-39.3311 69.1895-38.2324 69.1895-36.8408L69.1895-33.3984C69.1895-31.9824 68.335-30.9082 66.9922-30.5908L62.9639-29.6387C62.793-29.126 62.5977-28.6133 62.3535-28.1494L64.4287-24.6582C65.2344-23.5596 65.0635-22.0947 64.1113-21.1182L61.6455-18.6035C60.6934-17.6758 59.2529-17.5049 58.1299-18.2617L54.6387-20.3857C54.1504-20.166 53.6133-19.9707 53.0762-19.7754L52.0996-15.7471C51.8311-14.4287 50.708-13.5498 49.3408-13.5498ZM47.5342-28.3936C51.2939-28.3936 54.3457-31.4697 54.3457-35.2051C54.3457-38.8916 51.2939-41.9434 47.5342-41.9434C43.7988-41.9434 40.7471-38.8916 40.7471-35.2051C40.7471-31.4697 43.7988-28.3936 47.5342-28.3936Z"/>
  </g>
  <g id="Semibold-S" transform="matrix(1 0 0 1 1996.19 696)">
   <path d="M47.0632 5.0377C69.1088 5.0377 87.3237-13.1439 87.3237-35.1896C87.3237-57.2352 69.0755-75.4168 47.0299-75.4168C25.0176-75.4168 6.83594-57.2352 6.83594-35.1896C6.83594-13.1439 25.0509 5.0377 47.0632 5.0377ZM45.201-12.9722C43.9404-12.9722 42.9062-13.78 42.6644-15.0095L41.5989-19.3844C40.9041-19.6152 40.2581-19.8639 39.681-20.1458L35.8454-17.8352C34.8445-17.1228 33.5196-17.267 32.6297-18.1414L30.0661-20.7538C29.1429-21.6593 29.0142-23.0175 29.7754-24.0361L32.0039-27.8384C31.722-28.4 31.4733-29.046 31.2758-29.692L26.8676-30.7241C25.6381-31.0148 24.8636-32.0002 24.8636-33.3096L24.8636-36.903C24.8636-38.1969 25.6381-39.2155 26.8676-39.4885L31.227-40.5384C31.4578-41.251 31.773-41.9125 32.0039-42.4253L29.6933-46.2586C28.9986-47.3083 29.0785-48.5844 29.9995-49.5076L32.6452-52.12C33.5507-52.9789 34.6647-53.1231 35.8144-52.5084L39.6477-50.1489C40.2426-50.4642 40.9041-50.7616 41.5989-50.977L42.6644-55.3186C42.9062-56.5636 43.9404-57.3714 45.201-57.3714L48.9587-57.3714C50.2192-57.3714 51.2534-56.5636 51.4953-55.3341L52.5763-50.9437C53.2556-50.7128 53.9016-50.3976 54.4787-50.1334L58.3453-52.5084C59.4616-53.1231 60.609-52.9456 61.5145-52.12L64.1602-49.5076C65.0812-48.5844 65.161-47.3083 64.4664-46.2586L62.1558-42.4253C62.3866-41.9125 62.7019-41.251 62.9327-40.5384L67.2588-39.4885C68.5216-39.2155 69.2961-38.1969 69.2961-36.903L69.2961-33.3096C69.2961-32.0002 68.5216-31.0148 67.2588-30.7241L62.8839-29.692C62.6863-29.046 62.4377-28.4 62.1225-27.8384L64.3843-24.0361C65.1455-23.0175 64.9835-21.6593 64.0936-20.7538L61.53-18.1414C60.64-17.267 59.3151-17.1228 58.281-17.8352L54.4787-20.1458C53.9016-19.8639 53.2223-19.6152 52.5607-19.3844L51.4953-15.0095C51.2534-13.78 50.2192-12.9722 48.9587-12.9722ZM47.0632-28.047C51.0185-28.047 54.2213-31.2831 54.2213-35.2051C54.2213-39.0782 51.0185-42.2811 47.0632-42.2811C43.1412-42.2811 39.9384-39.0782 39.9384-35.2051C39.9384-31.2831 43.1412-28.047 47.0632-28.047Z"/>
  </g>
  <g id="Medium-S" transform="matrix(1 0 0 1 1699.83 696)">
   <path d="M46.7061 4.67383C68.5293 4.67383 86.6162-13.373 86.6162-35.1963C86.6162-57.0195 68.4893-75.0664 46.666-75.0664C24.8828-75.0664 6.83594-57.0195 6.83594-35.1963C6.83594-13.373 24.9229 4.67383 46.7061 4.67383ZM44.7832-12.5342C43.6035-12.5342 42.6367-13.2881 42.415-14.4502L41.2822-19.0879C40.4863-19.3457 39.7393-19.6348 39.0947-19.9639L35.0166-17.5117C34.0898-16.833 32.8525-16.957 32.0098-17.791L29.3721-20.4775C28.4893-21.3291 28.374-22.6064 29.1016-23.5645L31.4648-27.6025C31.1357-28.2383 30.8467-28.9854 30.6289-29.7324L25.9512-30.8252C24.7891-31.0957 24.0752-32.0137 24.0752-33.2422L24.0752-36.9502C24.0752-38.1699 24.7891-39.1279 25.9512-39.3672L30.5801-40.4912C30.8379-41.3184 31.207-42.0742 31.4648-42.6611L29.0127-46.7168C28.3652-47.6924 28.4316-48.8809 29.292-49.7637L32.0186-52.4502C32.8701-53.2754 33.9033-53.3994 34.999-52.8184L39.0547-50.3174C39.7305-50.6865 40.4863-51.0244 41.2822-51.2734L42.415-55.8711C42.6367-57.042 43.6035-57.7959 44.7832-57.7959L48.6689-57.7959C49.8486-57.7959 50.8154-57.042 51.0371-55.8799L52.1787-51.2334C52.9658-50.9756 53.7129-50.6064 54.3574-50.3086L58.4531-52.8184C59.5088-53.3994 60.582-53.2354 61.4336-52.4502L64.1602-49.7637C65.0205-48.8809 65.0869-47.6924 64.4395-46.7168L61.9873-42.6611C62.2451-42.0742 62.6143-41.3184 62.8721-40.4912L67.4609-39.3672C68.6631-39.1279 69.377-38.1699 69.377-36.9502L69.377-33.2422C69.377-32.0137 68.6631-31.0957 67.4609-30.8252L62.8232-29.7324C62.6055-28.9854 62.3164-28.2383 61.9473-27.6025L64.3506-23.5645C65.0781-22.6064 64.9229-21.3291 64.0801-20.4775L61.4424-17.791C60.5996-16.957 59.3623-16.833 58.3955-17.5117L54.3574-19.9639C53.7129-19.6348 52.9258-19.3457 52.1699-19.0879L51.0371-14.4502C50.8154-13.2881 49.8486-12.5342 48.6689-12.5342ZM46.7061-27.7842C50.8096-27.7842 54.127-31.1416 54.127-35.2051C54.127-39.2197 50.8096-42.5371 46.7061-42.5371C42.6426-42.5371 39.3252-39.2197 39.3252-35.2051C39.3252-31.1416 42.6426-27.7842 46.7061-27.7842Z"/>
  </g>
  <g id="Regular-S" transform="matrix(1 0 0 1 1403.58 696)">
   <path d="M46.2402 4.19922C67.7734 4.19922 85.6934-13.6719 85.6934-35.2051C85.6934-56.7383 67.7246-74.6094 46.1914-74.6094C24.707-74.6094 6.83594-56.7383 6.83594-35.2051C6.83594-13.6719 24.7559 4.19922 46.2402 4.19922ZM44.2383-11.9629C43.1641-11.9629 42.2852-12.6465 42.0898-13.7207L40.8691-18.7012C39.9414-18.9941 39.0625-19.3359 38.3301-19.7266L33.9355-17.0898C33.1055-16.4551 31.9824-16.5527 31.2012-17.334L28.4668-20.1172C27.6367-20.8984 27.5391-22.0703 28.2227-22.9492L30.7617-27.2949C30.3711-28.0273 30.0293-28.9062 29.7852-29.7852L24.7559-30.957C23.6816-31.2012 23.0469-32.0312 23.0469-33.1543L23.0469-37.0117C23.0469-38.1348 23.6816-39.0137 24.7559-39.209L29.7363-40.4297C30.0293-41.4062 30.4688-42.2852 30.7617-42.9688L28.125-47.3145C27.5391-48.1934 27.5879-49.2676 28.3691-50.0977L31.2012-52.8809C31.9824-53.6621 32.9102-53.7598 33.9355-53.2227L38.2812-50.5371C39.0625-50.9766 39.9414-51.3672 40.8691-51.6602L42.0898-56.5918C42.2852-57.666 43.1641-58.3496 44.2383-58.3496L48.291-58.3496C49.3652-58.3496 50.2441-57.666 50.4395-56.5918L51.6602-51.6113C52.5879-51.3184 53.4668-50.8789 54.1992-50.5371L58.5938-53.2227C59.5703-53.7598 60.5469-53.6133 61.3281-52.8809L64.1602-50.0977C64.9414-49.2676 64.9902-48.1934 64.4043-47.3145L61.7676-42.9688C62.0605-42.2852 62.5-41.4062 62.793-40.4297L67.7246-39.209C68.8477-39.0137 69.4824-38.1348 69.4824-37.0117L69.4824-33.1543C69.4824-32.0312 68.8477-31.2012 67.7246-30.957L62.7441-29.7852C62.5-28.9062 62.1582-28.0273 61.7188-27.2949L64.3066-22.9492C64.9902-22.0703 64.8438-20.8984 64.0625-20.1172L61.3281-17.334C60.5469-16.5527 59.4238-16.4551 58.5449-17.0898L54.1992-19.7266C53.4668-19.3359 52.5391-18.9941 51.6602-18.7012L50.4395-13.7207C50.2441-12.6465 49.3652-11.9629 48.291-11.9629ZM46.2402-27.4414C50.5371-27.4414 54.0039-30.957 54.0039-35.2051C54.0039-39.4043 50.5371-42.8711 46.2402-42.8711C41.9922-42.8711 38.5254-39.4043 38.5254-35.2051C38.5254-30.957 41.9922-27.4414 46.2402-27.4414Z"/>
  </g>
  <g id="Light-S" transform="matrix(1 0 0 1 1107.6 696)">
   <path d="M45.5137 3.47266C66.6836 3.47266 84.2251-14.0352 84.2251-35.2051C84.2251-56.375 66.6499-73.8828 45.48-73.8828C24.3286-73.8828 6.83594-56.375 6.83594-35.2051C6.83594-14.0352 24.3623 3.47266 45.5137 3.47266ZM43.436-12.1899C42.3013-12.1899 41.4526-12.8584 41.2119-14.0234L40.0518-18.8525C39.23-19.1304 38.4419-19.4268 37.7549-19.7568L33.5117-17.1655C32.5908-16.5005 31.4829-16.6133 30.6563-17.4248L27.8008-20.314C26.9404-21.1406 26.8428-22.2822 27.5415-23.2368L30.0654-27.4463C29.7202-28.1333 29.4238-28.9214 29.1797-29.7095L24.332-30.8359C23.167-31.1104 22.5322-31.9253 22.5322-33.0938L22.5322-37.1479C22.5322-38.3164 23.167-39.165 24.332-39.4058L29.146-40.5659C29.4238-41.4214 29.7876-42.2095 30.0654-42.8628L27.4741-47.0723C26.8428-48.0269 26.9067-49.1011 27.7334-49.9614L30.6563-52.8506C31.4829-53.6621 32.4561-53.7749 33.5117-53.1772L37.7212-50.5522C38.4419-50.916 39.23-51.2461 40.0518-51.5239L41.2119-56.3193C41.4526-57.4844 42.3013-58.1528 43.436-58.1528L47.625-58.1528C48.7598-58.1528 49.6084-57.4844 49.8491-56.3193L51.0093-51.4902C51.8311-51.2124 52.6191-50.8486 53.291-50.5522L57.5342-53.1772C58.5713-53.7749 59.5781-53.6284 60.3897-52.8506L63.3125-49.9614C64.1392-49.1011 64.2183-48.0269 63.5869-47.0723L60.9956-42.8628C61.2583-42.2095 61.6221-41.4214 61.8999-40.5659L66.6953-39.4058C67.8941-39.165 68.5288-38.3164 68.5288-37.1479L68.5288-33.0938C68.5288-31.9253 67.8941-31.1104 66.6953-30.8359L61.8662-29.7095C61.6221-28.9214 61.3257-28.1333 60.9619-27.4463L63.5195-23.2368C64.2183-22.2822 64.0718-21.1406 63.2451-20.314L60.3897-17.4248C59.5781-16.6133 58.4702-16.5005 57.5156-17.1655L53.291-19.7568C52.6191-19.4268 51.7974-19.1304 51.0093-18.8525L49.8491-14.0234C49.6084-12.8584 48.7598-12.1899 47.625-12.1899ZM45.5288-27.3506C49.856-27.3506 53.3833-30.9116 53.3833-35.2202C53.3833-39.4648 49.856-42.9922 45.5288-42.9922C41.2202-42.9922 37.6929-39.4648 37.6929-35.2202C37.6929-30.9116 41.2202-27.3506 45.5288-27.3506Z"/>
  </g>
  <g id="Thin-S" transform="matrix(1 0 0 1 811.863 696)">
   <path d="M44.5527 2.51173C65.2422 2.51173 82.2832-14.5156 82.2832-35.2051C82.2832-55.8945 65.2285-72.9219 44.5391-72.9219C23.8281-72.9219 6.83594-55.8945 6.83594-35.2051C6.83594-14.5156 23.8418 2.51173 44.5527 2.51173ZM42.375-12.4902C41.1602-12.4902 40.3516-13.1387 40.0508-14.4238L38.9707-19.0527C38.2891-19.3105 37.6211-19.5469 36.9942-19.7969L32.9512-17.2656C31.9102-16.5605 30.8223-16.6934 29.9356-17.5449L26.9199-20.5742C26.0195-21.4609 25.9219-22.5625 26.6406-23.6172L29.1445-27.6465C28.8594-28.2734 28.6231-28.9414 28.3789-29.6094L23.7715-30.6758C22.4863-30.9902 21.8516-31.7852 21.8516-33.0137L21.8516-37.3281C21.8516-38.5566 22.4863-39.3652 23.7715-39.666L28.3652-40.7461C28.6231-41.4414 28.8867-42.1094 29.1445-42.7227L26.6133-46.752C25.9219-47.8066 26.0059-48.8809 26.8926-49.7813L29.9356-52.8105C30.8223-53.6621 31.8555-53.7949 32.9512-53.1172L36.9805-50.5723C37.6211-50.8359 38.2891-51.0859 38.9707-51.3438L40.0508-55.959C40.3516-57.2441 41.1602-57.8926 42.375-57.8926L46.7442-57.8926C47.959-57.8926 48.7676-57.2441 49.0684-55.959L50.1484-51.3301C50.8301-51.0723 51.4981-50.8086 52.0899-50.5723L56.1328-53.1172C57.25-53.7949 58.2969-53.6484 59.1485-52.8105L62.1914-49.7813C63.0781-48.8809 63.1973-47.8066 62.5059-46.752L59.9746-42.7227C60.1973-42.1094 60.461-41.4414 60.7188-40.7461L65.334-39.666C66.6328-39.3652 67.2676-38.5566 67.2676-37.3281L67.2676-33.0137C67.2676-31.7852 66.6328-30.9902 65.334-30.6758L60.7051-29.6094C60.461-28.9414 60.2246-28.2734 59.961-27.6465L62.4785-23.6172C63.1973-22.5625 63.0508-21.4609 62.1641-20.5742L59.1485-17.5449C58.2969-16.6934 57.209-16.5605 56.1543-17.2656L52.0899-19.7969C51.4981-19.5469 50.8164-19.3105 50.1484-19.0527L49.0684-14.4238C48.7676-13.1387 47.959-12.4902 46.7442-12.4902ZM44.5879-27.2305C48.9551-27.2305 52.5625-30.8516 52.5625-35.2402C52.5625-39.5449 48.9551-43.1523 44.5879-43.1523C40.1992-43.1523 36.5918-39.5449 36.5918-35.2402C36.5918-30.8516 40.1992-27.2305 44.5879-27.2305Z"/>
  </g>
  <g id="Ultralight-S" transform="matrix(1 0 0 1 515.649 696)">
   <path d="M44.0606 2.01955C64.5039 2.01955 81.2886-14.7617 81.2886-35.2051C81.2886-55.6484 64.5005-72.4297 44.0571-72.4297C23.5718-72.4297 6.83594-55.6484 6.83594-35.2051C6.83594-14.7617 23.5752 2.01955 44.0606 2.01955ZM41.8316-12.644C40.5757-12.644 39.7876-13.2822 39.4561-14.6289L38.417-19.1553C37.8071-19.4028 37.2007-19.6084 36.6045-19.8174L32.6641-17.3169C31.5615-16.5913 30.4839-16.7344 29.5664-17.6064L26.4688-20.7075C25.5479-21.625 25.4502-22.706 26.1792-23.812L28.6729-27.749C28.4185-28.3452 28.2129-28.9517 27.9688-29.5581L23.4844-30.5938C22.1377-30.9287 21.5029-31.7134 21.5029-32.9727L21.5029-37.4204C21.5029-38.6797 22.1377-39.4678 23.4844-39.7993L27.9653-40.8384C28.2129-41.4517 28.4253-42.0581 28.6729-42.6509L26.1724-46.5879C25.4502-47.6939 25.5444-48.7681 26.4619-49.689L29.5664-52.79C30.4839-53.6621 31.5479-53.8052 32.6641-53.0864L36.6011-50.5825C37.2007-50.7949 37.8071-51.0039 38.417-51.2515L39.4561-55.7744C39.7876-57.1211 40.5757-57.7593 41.8316-57.7593L46.293-57.7593C47.5488-57.7593 48.3369-57.1211 48.6685-55.7744L49.7075-51.248C50.3174-51.0005 50.9238-50.7881 51.4746-50.5825L55.4151-53.0864C56.5733-53.8052 57.6406-53.6587 58.5127-52.79L61.6172-49.689C62.5347-48.7681 62.6743-47.6939 61.9522-46.5879L59.4517-42.6509C59.6538-42.0581 59.8662-41.4517 60.1138-40.8384L64.6367-39.7993C65.9868-39.4678 66.6216-38.6797 66.6216-37.4204L66.6216-32.9727C66.6216-31.7134 65.9868-30.9287 64.6367-30.5938L60.1104-29.5581C59.8662-28.9517 59.6607-28.3452 59.4483-27.749L61.9453-23.812C62.6743-22.706 62.5279-21.625 61.6104-20.7075L58.5127-17.6064C57.6406-16.7344 56.563-16.5913 55.4571-17.3169L51.4746-19.8174C50.9238-19.6084 50.314-19.4028 49.7075-19.1553L48.6685-14.6289C48.3369-13.2822 47.5488-12.644 46.293-12.644ZM44.106-27.1689C48.4937-27.1689 52.1421-30.8208 52.1421-35.2505C52.1421-39.5859 48.4937-43.2344 44.106-43.2344C39.6763-43.2344 36.0279-39.5859 36.0279-35.2505C36.0279-30.8208 39.6763-27.1689 44.106-27.1689Z"/>
  </g>
 </g>
</svg>
