<?xml version="1.0" encoding="UTF-8"?>
<!--Generator: Apple Native CoreSVG 175.5-->
<!DOCTYPE svg
PUBLIC "-//W3C//DTD SVG 1.1//EN"
       "http://www.w3.org/Graphics/SVG/1.1/DTD/svg11.dtd">
<svg version="1.1" xmlns="http://www.w3.org/2000/svg" xmlns:xlink="http://www.w3.org/1999/xlink" width="3300" height="2200">
 <!--glyph: "uni100598.medium", point size: 100.0, font version: "18.0d12e2", template writer version: "101"-->
 <g id="Notes">
  <rect height="2200" id="artboard" style="fill:white;opacity:1" width="3300" x="0" y="0"/>
  <line style="fill:none;stroke:black;opacity:1;stroke-width:0.5;" x1="263" x2="3036" y1="292" y2="292"/>
  <text style="stroke:none;fill:black;font-family:sans-serif;font-size:13;font-weight:bold;" transform="matrix(1 0 0 1 263 322)">Weight/Scale Variations</text>
  <text style="stroke:none;fill:black;font-family:sans-serif;font-size:13;text-anchor:middle;" transform="matrix(1 0 0 1 559.711 322)">Ultralight</text>
  <text style="stroke:none;fill:black;font-family:sans-serif;font-size:13;text-anchor:middle;" transform="matrix(1 0 0 1 856.422 322)">Thin</text>
  <text style="stroke:none;fill:black;font-family:sans-serif;font-size:13;text-anchor:middle;" transform="matrix(1 0 0 1 1153.13 322)">Light</text>
  <text style="stroke:none;fill:black;font-family:sans-serif;font-size:13;text-anchor:middle;" transform="matrix(1 0 0 1 1449.84 322)">Regular</text>
  <text style="stroke:none;fill:black;font-family:sans-serif;font-size:13;text-anchor:middle;" transform="matrix(1 0 0 1 1746.56 322)">Medium</text>
  <text style="stroke:none;fill:black;font-family:sans-serif;font-size:13;text-anchor:middle;" transform="matrix(1 0 0 1 2043.27 322)">Semibold</text>
  <text style="stroke:none;fill:black;font-family:sans-serif;font-size:13;text-anchor:middle;" transform="matrix(1 0 0 1 2339.98 322)">Bold</text>
  <text style="stroke:none;fill:black;font-family:sans-serif;font-size:13;text-anchor:middle;" transform="matrix(1 0 0 1 2636.69 322)">Heavy</text>
  <text style="stroke:none;fill:black;font-family:sans-serif;font-size:13;text-anchor:middle;" transform="matrix(1 0 0 1 2933.4 322)">Black</text>
  <line style="fill:none;stroke:black;opacity:1;stroke-width:0.5;" x1="263" x2="3036" y1="1903" y2="1903"/>
  <g transform="matrix(1 0 0 1 263 1933)">
   <path d="M9.24805 0.830078C13.5547 0.830078 17.1387-2.74414 17.1387-7.05078C17.1387-11.3574 13.5449-14.9316 9.23828-14.9316C4.94141-14.9316 1.36719-11.3574 1.36719-7.05078C1.36719-2.74414 4.95117 0.830078 9.24805 0.830078ZM9.24805-0.654297C5.70312-0.654297 2.87109-3.49609 2.87109-7.05078C2.87109-10.6055 5.69336-13.4473 9.23828-13.4473C12.793-13.4473 15.6445-10.6055 15.6445-7.05078C15.6445-3.49609 12.8027-0.654297 9.24805-0.654297ZM5.6543-7.05078C5.6543-6.62109 5.95703-6.32812 6.40625-6.32812L8.50586-6.32812L8.50586-4.20898C8.50586-3.76953 8.79883-3.4668 9.22852-3.4668C9.67773-3.4668 9.9707-3.76953 9.9707-4.20898L9.9707-6.32812L12.0898-6.32812C12.5293-6.32812 12.832-6.62109 12.832-7.05078C12.832-7.49023 12.5293-7.79297 12.0898-7.79297L9.9707-7.79297L9.9707-9.90234C9.9707-10.3516 9.67773-10.6543 9.22852-10.6543C8.79883-10.6543 8.50586-10.3516 8.50586-9.90234L8.50586-7.79297L6.40625-7.79297C5.95703-7.79297 5.6543-7.49023 5.6543-7.05078Z"/>
  </g>
  <g transform="matrix(1 0 0 1 281.867 1933)">
   <path d="M11.709 2.91016C17.1582 2.91016 21.6699-1.61133 21.6699-7.05078C21.6699-12.5 17.1484-17.0117 11.6992-17.0117C6.25977-17.0117 1.74805-12.5 1.74805-7.05078C1.74805-1.61133 6.26953 2.91016 11.709 2.91016ZM11.709 1.25C7.09961 1.25 3.41797-2.44141 3.41797-7.05078C3.41797-11.6602 7.08984-15.3516 11.6992-15.3516C16.3086-15.3516 20.0098-11.6602 20.0098-7.05078C20.0098-2.44141 16.3184 1.25 11.709 1.25ZM7.17773-7.05078C7.17773-6.57227 7.50977-6.25 8.00781-6.25L10.8789-6.25L10.8789-3.36914C10.8789-2.88086 11.2109-2.53906 11.6895-2.53906C12.1777-2.53906 12.5195-2.87109 12.5195-3.36914L12.5195-6.25L15.4004-6.25C15.8887-6.25 16.2305-6.57227 16.2305-7.05078C16.2305-7.53906 15.8887-7.88086 15.4004-7.88086L12.5195-7.88086L12.5195-10.752C12.5195-11.25 12.1777-11.5918 11.6895-11.5918C11.2109-11.5918 10.8789-11.25 10.8789-10.752L10.8789-7.88086L8.00781-7.88086C7.50977-7.88086 7.17773-7.53906 7.17773-7.05078Z"/>
  </g>
  <g transform="matrix(1 0 0 1 305.646 1933)">
   <path d="M14.9707 5.66406C21.9336 5.66406 27.6953-0.0976562 27.6953-7.05078C27.6953-14.0137 21.9238-19.7754 14.9609-19.7754C8.00781-19.7754 2.25586-14.0137 2.25586-7.05078C2.25586-0.0976562 8.01758 5.66406 14.9707 5.66406ZM14.9707 3.84766C8.93555 3.84766 4.08203-1.01562 4.08203-7.05078C4.08203-13.0957 8.92578-17.9492 14.9609-17.9492C21.0059-17.9492 25.8691-13.0957 25.8691-7.05078C25.8691-1.01562 21.0156 3.84766 14.9707 3.84766ZM9.19922-7.05078C9.19922-6.5332 9.57031-6.17188 10.1172-6.17188L14.0625-6.17188L14.0625-2.2168C14.0625-1.67969 14.4336-1.29883 14.9512-1.29883C15.4883-1.29883 15.8594-1.66992 15.8594-2.2168L15.8594-6.17188L19.8145-6.17188C20.3516-6.17188 20.7324-6.5332 20.7324-7.05078C20.7324-7.59766 20.3613-7.96875 19.8145-7.96875L15.8594-7.96875L15.8594-11.9141C15.8594-12.4609 15.4883-12.8418 14.9512-12.8418C14.4336-12.8418 14.0625-12.4609 14.0625-11.9141L14.0625-7.96875L10.1172-7.96875C9.57031-7.96875 9.19922-7.59766 9.19922-7.05078Z"/>
  </g>
  <text style="stroke:none;fill:black;font-family:sans-serif;font-size:13;font-weight:bold;" transform="matrix(1 0 0 1 263 1953)">Design Variations</text>
  <text style="stroke:none;fill:black;font-family:sans-serif;font-size:13;" transform="matrix(1 0 0 1 263 1971)">Symbols are supported in up to nine weights and three scales.</text>
  <text style="stroke:none;fill:black;font-family:sans-serif;font-size:13;" transform="matrix(1 0 0 1 263 1989)">For optimal layout with text and other symbols, vertically align</text>
  <text style="stroke:none;fill:black;font-family:sans-serif;font-size:13;" transform="matrix(1 0 0 1 263 2007)">symbols with the adjacent text.</text>
  <line style="fill:none;stroke:#00AEEF;stroke-width:0.5;opacity:1.0;" x1="776" x2="776" y1="1919" y2="1933"/>
  <g transform="matrix(1 0 0 1 776 1933)">
   <path d="M3.31055 0.15625C3.82812 0.15625 4.08203-0.0390625 4.26758-0.585938L5.52734-4.0332L11.2891-4.0332L12.5488-0.585938C12.7344-0.0390625 12.9883 0.15625 13.4961 0.15625C14.0137 0.15625 14.3457-0.15625 14.3457-0.644531C14.3457-0.810547 14.3164-0.966797 14.2383-1.17188L9.6582-13.3691C9.43359-13.9648 9.0332-14.2676 8.4082-14.2676C7.80273-14.2676 7.39258-13.9746 7.17773-13.3789L2.59766-1.16211C2.51953-0.957031 2.49023-0.800781 2.49023-0.634766C2.49023-0.146484 2.80273 0.15625 3.31055 0.15625ZM6.00586-5.51758L8.37891-12.0898L8.42773-12.0898L10.8008-5.51758Z"/>
  </g>
  <line style="fill:none;stroke:#00AEEF;stroke-width:0.5;opacity:1.0;" x1="793.197" x2="793.197" y1="1919" y2="1933"/>
  <text style="stroke:none;fill:black;font-family:sans-serif;font-size:13;font-weight:bold;" transform="matrix(1 0 0 1 776 1953)">Margins</text>
  <text style="stroke:none;fill:black;font-family:sans-serif;font-size:13;" transform="matrix(1 0 0 1 776 1971)">Leading and trailing margins on the left and right side of each symbol</text>
  <text style="stroke:none;fill:black;font-family:sans-serif;font-size:13;" transform="matrix(1 0 0 1 776 1989)">can be adjusted by modifying the x-location of the margin guidelines.</text>
  <text style="stroke:none;fill:black;font-family:sans-serif;font-size:13;" transform="matrix(1 0 0 1 776 2007)">Modifications are automatically applied proportionally to all</text>
  <text style="stroke:none;fill:black;font-family:sans-serif;font-size:13;" transform="matrix(1 0 0 1 776 2025)">scales and weights.</text>
  <g transform="matrix(1 0 0 1 1289 1933)">
   <path d="M2.8418 1.86523L4.54102 3.57422C5.40039 4.44336 6.38672 4.38477 7.31445 3.35938L18.0078-8.42773L17.041-9.4043L6.42578 2.27539C6.07422 2.67578 5.74219 2.77344 5.27344 2.30469L4.10156 1.14258C3.63281 0.683594 3.74023 0.341797 4.14062-0.0195312L15.6152-10.8203L14.6387-11.7871L3.04688-0.898438C2.06055 0.0195312 1.98242 0.996094 2.8418 1.86523ZM9.25781-16.3281C8.83789-15.918 8.80859-15.3418 9.04297-14.9512C9.27734-14.5898 9.73633-14.3555 10.3809-14.5215C11.8457-14.8633 13.3691-14.9219 14.7949-13.9844L14.209-12.5293C13.8672-11.6992 14.043-11.1133 14.5801-10.5664L16.875-8.25195C17.3633-7.76367 17.7734-7.74414 18.3398-7.8418L19.4043-8.03711L20.0684-7.36328L20.0293-6.80664C19.9902-6.30859 20.1172-5.92773 20.6055-5.44922L21.3672-4.70703C21.8457-4.22852 22.4609-4.19922 22.9297-4.66797L25.8398-7.58789C26.3086-8.05664 26.2891-8.65234 25.8105-9.13086L25.0391-9.89258C24.5605-10.3711 24.1895-10.5273 23.7109-10.4883L23.1348-10.4395L22.4902-11.0742L22.7344-12.1973C22.8613-12.7637 22.7051-13.2031 22.1191-13.7891L19.9219-15.9766C16.582-19.2969 12.1484-19.2188 9.25781-16.3281ZM10.752-15.957C13.1836-17.7344 16.4746-17.4316 18.7012-15.2051L21.1328-12.793C21.3672-12.5586 21.4062-12.373 21.3379-12.0312L21.0156-10.5469L22.5195-9.0625L23.5059-9.12109C23.7598-9.13086 23.8379-9.11133 24.0332-8.91602L24.6094-8.33984L22.168-5.89844L21.5918-6.47461C21.3965-6.66992 21.3672-6.74805 21.377-7.01172L21.4453-7.98828L19.9512-9.47266L18.4277-9.21875C18.1055-9.15039 17.959-9.17969 17.7148-9.41406L15.7129-11.416C15.459-11.6504 15.4297-11.8164 15.5859-12.1875L16.4648-14.2773C14.9023-15.7324 12.8711-16.3574 10.8398-15.7617C10.6836-15.7227 10.625-15.8496 10.752-15.957Z"/>
  </g>
  <text style="stroke:none;fill:black;font-family:sans-serif;font-size:13;font-weight:bold;" transform="matrix(1 0 0 1 1289 1953)">Exporting</text>
  <text style="stroke:none;fill:black;font-family:sans-serif;font-size:13;" transform="matrix(1 0 0 1 1289 1971)">Symbols should be outlined when exporting to ensure the</text>
  <text style="stroke:none;fill:black;font-family:sans-serif;font-size:13;" transform="matrix(1 0 0 1 1289 1989)">design is preserved when submitting to Xcode.</text>
  <text id="template-version" style="stroke:none;fill:black;font-family:sans-serif;font-size:13;text-anchor:end;" transform="matrix(1 0 0 1 3036 1933)">Template v.4.0</text>
  <text style="stroke:none;fill:black;font-family:sans-serif;font-size:13;text-anchor:end;" transform="matrix(1 0 0 1 3036 1951)">Requires Xcode 14 or greater</text>
  <text id="descriptive-name" style="stroke:none;fill:black;font-family:sans-serif;font-size:13;text-anchor:end;" transform="matrix(1 0 0 1 3036 1969)">Generated from dollarsign.circle.fill</text>
  <text style="stroke:none;fill:black;font-family:sans-serif;font-size:13;text-anchor:end;" transform="matrix(1 0 0 1 3036 1987)">Typeset at 100 points</text>
  <text style="stroke:none;fill:black;font-family:sans-serif;font-size:13;" transform="matrix(1 0 0 1 263 726)">Small</text>
  <text style="stroke:none;fill:black;font-family:sans-serif;font-size:13;" transform="matrix(1 0 0 1 263 1156)">Medium</text>
  <text style="stroke:none;fill:black;font-family:sans-serif;font-size:13;" transform="matrix(1 0 0 1 263 1586)">Large</text>
 </g>
 <g id="Guides">
  <g id="H-reference" style="fill:#27AAE1;stroke:none;" transform="matrix(1 0 0 1 339 696)">
   <path d="M0.993654 0L3.63775 0L29.3281-67.1323L30.0303-67.1323L30.0303-70.459L28.1226-70.459ZM11.6885-24.4799L46.9815-24.4799L46.2315-26.7285L12.4385-26.7285ZM55.1196 0L57.7637 0L30.6382-70.459L29.4326-70.459L29.4326-67.1323Z"/>
  </g>
  <line id="Baseline-S" style="fill:none;stroke:#27AAE1;opacity:1;stroke-width:0.5;" x1="263" x2="3036" y1="696" y2="696"/>
  <line id="Capline-S" style="fill:none;stroke:#27AAE1;opacity:1;stroke-width:0.5;" x1="263" x2="3036" y1="625.541" y2="625.541"/>
  <g id="H-reference" style="fill:#27AAE1;stroke:none;" transform="matrix(1 0 0 1 339 1126)">
   <path d="M0.993654 0L3.63775 0L29.3281-67.1323L30.0303-67.1323L30.0303-70.459L28.1226-70.459ZM11.6885-24.4799L46.9815-24.4799L46.2315-26.7285L12.4385-26.7285ZM55.1196 0L57.7637 0L30.6382-70.459L29.4326-70.459L29.4326-67.1323Z"/>
  </g>
  <line id="Baseline-M" style="fill:none;stroke:#27AAE1;opacity:1;stroke-width:0.5;" x1="263" x2="3036" y1="1126" y2="1126"/>
  <line id="Capline-M" style="fill:none;stroke:#27AAE1;opacity:1;stroke-width:0.5;" x1="263" x2="3036" y1="1055.54" y2="1055.54"/>
  <g id="H-reference" style="fill:#27AAE1;stroke:none;" transform="matrix(1 0 0 1 339 1556)">
   <path d="M0.993654 0L3.63775 0L29.3281-67.1323L30.0303-67.1323L30.0303-70.459L28.1226-70.459ZM11.6885-24.4799L46.9815-24.4799L46.2315-26.7285L12.4385-26.7285ZM55.1196 0L57.7637 0L30.6382-70.459L29.4326-70.459L29.4326-67.1323Z"/>
  </g>
  <line id="Baseline-L" style="fill:none;stroke:#27AAE1;opacity:1;stroke-width:0.5;" x1="263" x2="3036" y1="1556" y2="1556"/>
  <line id="Capline-L" style="fill:none;stroke:#27AAE1;opacity:1;stroke-width:0.5;" x1="263" x2="3036" y1="1485.54" y2="1485.54"/>
  <line id="left-margin-Regular-M" style="fill:none;stroke:#00AEEF;stroke-width:0.5;opacity:1.0;" x1="1391.32" x2="1391.32" y1="1030.79" y2="1150.12"/>
  <line id="right-margin-Regular-M" style="fill:none;stroke:#00AEEF;stroke-width:0.5;opacity:1.0;" x1="1508.37" x2="1508.37" y1="1030.79" y2="1150.12"/>
 </g>
 <g id="Symbols">
  <g id="Black-L" transform="matrix(1 0 0 1 2854.19 1556)">
   <path d="M79.1958 32.7257C116.56 32.7257 147.154 2.15259 147.154-35.2113C147.154-72.5752 116.539-103.148 79.175-103.148C41.8307-103.148 11.2588-72.5752 11.2588-35.2113C11.2588 2.15259 41.8515 32.7257 79.1958 32.7257ZM79.2154 0.58639C77.5733 0.58639 76.4881-0.555976 76.4881-2.25769L76.4881-6.13309C65.1493-6.7197 58.9892-12.0361 56.9883-17.3725C56.499-18.4807 56.3394-19.5514 56.3394-20.504C56.3394-24.2616 58.8512-26.8902 63.2465-26.8902C66.49-26.8902 68.5865-25.2667 70.1016-22.4447C71.0451-20.2401 72.9903-18.584 76.4881-18.0546L76.4881-29.0272L73.4094-29.7149C62.1934-32.1096 56.1451-37.2821 56.1451-46.6176C56.1451-56.87 64.6042-63.5809 76.4881-64.3687L76.4881-68.4622C76.4881-70.1651 77.5721-71.2867 79.2154-71.2867C80.7795-71.2867 81.9243-70.1639 81.9243-68.4622L81.9243-64.3687C92.2165-63.5069 98.6918-58.5637 100.591-52.5876C100.926-51.635 101.144-50.5643 101.144-49.5521C101.144-46.1461 98.5742-43.8096 94.5269-43.8096C91.457-43.8096 89.2645-45.2232 87.4978-48.0798C86.3518-50.2938 84.5526-51.7594 81.9243-52.2668L81.9243-41.7419L85.1602-41.0714C96.9147-38.7253 102.732-33.6615 102.732-24.3484C102.732-13.8581 94.415-7.12854 81.9243-6.16948L81.9243-2.25769C81.9243-0.557172 80.7795 0.58639 79.2154 0.58639ZM76.4881-43.0491L76.4881-52.5004C73.0248-52.1266 70.8679-50.3157 70.8679-47.8522C70.8679-45.5116 72.6043-43.9667 76.008-43.1296ZM81.9243-27.82L81.9243-18.0546C85.8942-18.5608 88.0691-20.2233 88.0691-22.9177C88.0691-25.3828 86.5584-26.7393 82.6489-27.6528Z"/>
  </g>
  <g id="Heavy-L" transform="matrix(1 0 0 1 2558.42 1556)">
   <path d="M78.2532 31.7694C115.056 31.7694 145.278 1.57794 145.278-35.2251C145.278-72.0281 115.026-102.22 78.2231-102.22C41.4446-102.22 11.2588-72.0281 11.2588-35.2251C11.2588 1.57794 41.4748 31.7694 78.2532 31.7694ZM78.2778 0.828196C76.6192 0.828196 75.4956-0.334507 75.4956-2.04331L75.4956-6.12333C64.7786-6.75677 58.3732-11.9569 56.4076-17.8039C56.0148-18.793 55.8596-19.7676 55.8596-20.6475C55.8596-24.0268 58.1304-26.3868 61.9781-26.3868C64.8885-26.3868 66.7897-24.9231 68.109-22.2634C69.0674-19.5177 71.406-17.4562 75.4956-16.8618L75.4956-29.8539L73.0205-30.422C61.922-32.8447 56.0006-37.9499 56.0006-47.0002C56.0006-56.898 64.1239-63.4583 75.4956-64.3073L75.4956-68.4929C75.4956-70.2073 76.6136-71.3398 78.2778-71.3398C79.8672-71.3398 81.0411-70.2017 81.0411-68.4929L81.0411-64.3073C90.8829-63.435 97.3769-58.515 99.2319-52.3118C99.521-51.432 99.7208-50.4573 99.7208-49.5272C99.7208-46.4213 97.4055-44.2844 93.8143-44.2844C91.0031-44.2844 89.0428-45.64 87.5551-48.2739C86.3755-51.0227 84.1956-52.8248 81.0411-53.3834L81.0411-40.9941L83.7545-40.4393C95.3689-38.1632 101.152-33.0554 101.152-23.894C101.152-13.5958 92.9656-7.06913 81.0411-6.13216L81.0411-2.04331C81.0411-0.34012 79.8672 0.828196 78.2778 0.828196ZM75.4956-42.3635L75.4956-53.5619C71.527-53.0768 69.0457-50.8825 69.0457-48.0291C69.0457-45.293 71.0116-43.5105 75.0243-42.444ZM81.0411-28.5894L81.0411-16.8618C85.6861-17.4148 88.1573-19.5334 88.1573-22.701C88.1573-25.5892 86.454-27.2704 81.9174-28.3714Z"/>
  </g>
  <g id="Bold-L" transform="matrix(1 0 0 1 2262.89 1556)">
   <path d="M77.0704 30.5711C113.182 30.5711 142.92 0.870872 142.92-35.2405C142.92-71.3519 113.144-101.052 77.0324-101.052C40.9458-101.052 11.2588-71.3519 11.2588-35.2405C11.2588 0.870872 40.9838 30.5711 77.0704 30.5711ZM77.0951 0.986273C75.4583 0.986273 74.3183-0.169738 74.3183-1.849L74.3183-6.19004C64.2729-6.86249 57.6199-11.9539 55.7152-18.364C55.4304-19.2145 55.2828-20.0738 55.2828-20.8615C55.2828-23.7721 57.2464-25.7941 60.4253-25.7941C62.9283-25.7941 64.5763-24.5228 65.6499-22.0927C66.6088-18.6561 69.4837-16.0876 74.3183-15.4311L74.3183-30.8536L72.4918-31.2905C61.5542-33.7366 55.8014-38.7424 55.8014-47.4094C55.8014-56.8543 63.5545-63.2301 74.3183-64.1262L74.3183-68.412C74.3183-70.1045 75.4451-71.2225 77.0951-71.2225C78.678-71.2225 79.8605-70.0913 79.8605-68.412L79.8605-64.1262C89.2011-63.2609 95.7107-58.3641 97.4969-51.9363C97.7321-51.1486 97.9089-50.2893 97.9089-49.4592C97.9089-46.7371 95.9161-44.861 92.886-44.861C90.4123-44.861 88.7438-46.1251 87.587-48.4749C86.3913-51.8623 83.7054-54.0942 79.8605-54.6995L79.8605-40.0719L82.0402-39.6333C93.463-37.4194 99.1705-32.3025 99.1705-23.3777C99.1705-13.3773 91.1677-7.06691 79.8605-6.16802L79.8605-1.849C79.8605-0.182968 78.678 0.986273 77.0951 0.986273ZM74.3183-41.4735L74.3183-54.8163C69.7123-54.2227 66.7718-51.5595 66.7718-48.1922C66.7718-44.9495 69.0667-42.8823 73.8622-41.5539ZM79.8605-29.5571L79.8605-15.4311C85.3356-16.0232 88.2426-18.7028 88.2426-22.4694C88.2426-25.895 86.2489-27.961 80.9064-29.2851Z"/>
  </g>
  <g id="Semibold-L" transform="matrix(1 0 0 1 1966.99 1556)">
   <path d="M76.2549 29.745C111.889 29.745 141.294 0.383422 141.294-35.2511C141.294-70.8857 111.846-100.247 76.2116-100.247C40.6019-100.247 11.2588-70.8857 11.2588-35.2511C11.2588 0.383422 40.6453 29.745 76.2549 29.745ZM76.2798 1.09525C74.658 1.09525 73.5067-0.0561464 73.5067-1.71504L73.5067-6.23602C63.9243-6.93537 57.1005-11.9519 55.2379-18.7501C55.0275-19.5051 54.8851-20.2849 54.8851-21.009C54.8851-23.5965 56.6371-25.3856 59.3549-25.3856C61.577-25.3856 63.0505-24.2468 63.9546-21.975C64.9138-18.0621 68.1585-15.1441 73.5067-14.4448L73.5067-31.5427L72.1272-31.8892C61.3006-34.3515 55.6641-39.2888 55.6641-47.6916C55.6641-56.8242 63.162-63.0728 73.5067-64.0013L73.5067-68.3563C73.5067-70.0337 74.6395-71.1417 76.2798-71.1417C77.8582-71.1417 79.0466-70.0152 79.0466-68.3563L79.0466-64.0013C88.0416-63.1409 94.562-58.2601 96.3008-51.6775C96.4989-50.9533 96.6598-50.1735 96.6598-49.4123C96.6598-46.9548 94.8893-45.2586 92.246-45.2586C90.005-45.2586 88.5378-46.4595 87.609-48.6134C86.4022-52.441 83.3674-54.9693 79.0466-55.6067L79.0466-39.4361L80.8583-39.0775C92.1491-36.9066 97.8043-31.7834 97.8043-23.0218C97.8043-13.2267 89.9282-7.06538 79.0466-6.19275L79.0466-1.71504C79.0466-0.0746279 77.8582 1.09525 76.2798 1.09525ZM73.5067-40.8599L73.5067-55.681C68.4613-55.0126 65.2041-52.0262 65.2041-48.3047C65.2041-44.7127 67.7259-42.4493 73.0611-40.9403ZM79.0466-30.2243L79.0466-14.4448C85.0939-15.0638 88.3013-18.1302 88.3013-22.3097C88.3013-26.1058 86.1075-28.437 80.2094-29.9149Z"/>
  </g>
  <g id="Medium-L" transform="matrix(1 0 0 1 1670.9 1556)">
   <path d="M75.6366 29.1187C110.91 29.1187 140.062 0.0138167 140.062-35.2592C140.062-70.5322 110.862-99.637 75.5892-99.637C40.3412-99.637 11.2588-70.5322 11.2588-35.2592C11.2588 0.0138167 40.3886 29.1187 75.6366 29.1187ZM75.6616 1.17788C74.0511 1.17788 72.8913 0.0299831 72.8913-1.61347L72.8913-6.27089C63.66-6.99063 56.7068-11.9503 54.876-19.0429C54.722-19.7255 54.5836-20.4449 54.5836-21.1209C54.5836-23.4633 56.175-25.0758 58.5432-25.0758C60.5524-25.0758 61.8935-24.0375 62.6691-21.8858C63.6287-17.6117 67.1537-14.4287 72.8913-13.697L72.8913-32.0653L71.8509-32.3432C61.1083-34.8177 55.56-39.703 55.56-47.9055C55.56-56.8014 62.8643-62.9536 72.8913-63.9066L72.8913-68.314C72.8913-69.98 74.0287-71.0804 75.6616-71.0804C77.2366-71.0804 78.4294-69.9575 78.4294-68.314L78.4294-63.9066C87.1625-63.0499 93.691-58.1812 95.3939-51.4812C95.5638-50.8052 95.7127-50.0858 95.7127-49.3768C95.7127-47.1199 94.1108-45.56 91.7607-45.56C89.6962-45.56 88.3815-46.713 87.6257-48.7185C86.4104-52.8799 83.1111-55.6329 78.4294-56.2947L78.4294-38.954L79.9622-38.6562C91.1528-36.5177 96.7684-31.3898 96.7684-22.752C96.7684-13.1125 88.9883-7.06422 78.4294-6.2115L78.4294-1.61347C78.4294 0.00751993 77.2366 1.17788 75.6616 1.17788ZM72.8913-40.3946L72.8913-56.3367C67.5127-55.6116 64.0155-52.3801 64.0155-48.3899C64.0155-44.5331 66.7092-42.121 72.4537-40.475ZM78.4294-30.7301L78.4294-13.697C84.9106-14.3363 88.3459-17.696 88.3459-22.1886C88.3459-26.2656 86.0003-28.798 79.6809-30.3925Z"/>
  </g>
  <g id="Regular-L" transform="matrix(1 0 0 1 1374.99 1556)">
   <path d="M74.8301 28.3017C109.632 28.3017 138.454-0.468277 138.454-35.2697C138.454-70.0711 109.579-98.8411 74.7774-98.8411C40.0011-98.8411 11.2588-70.0711 11.2588-35.2697C11.2588-0.468277 40.0538 28.3017 74.8301 28.3017ZM74.8553 1.28566C73.2596 1.28566 72.0886 0.142326 72.0886-1.48098L72.0886-6.31637C63.3152-7.06271 56.1931-11.9483 54.4039-19.4248C54.3235-20.0129 54.1903-20.6537 54.1903-21.2668C54.1903-23.2897 55.5723-24.6717 57.4845-24.6717C59.2159-24.6717 60.3844-23.7646 60.9924-21.7694C61.9524-17.0242 65.8431-13.4955 72.0886-12.7215L72.0886-32.7469L71.4904-32.9354C60.8575-35.4258 55.4242-40.2434 55.4242-48.1846C55.4242-56.7716 62.4761-62.798 72.0886-63.7831L72.0886-68.2589C72.0886-69.9099 73.2319-71.0005 74.8553-71.0005C76.4258-71.0005 77.6244-69.8822 77.6244-68.2589L77.6244-63.7831C86.0158-62.9312 92.5549-58.0784 94.211-51.2252C94.3441-50.6121 94.4773-49.9712 94.4773-49.3304C94.4773-47.3352 93.0953-45.9532 91.1277-45.9532C89.2934-45.9532 88.1777-47.0438 87.6475-48.8556C86.4212-53.4523 82.7768-56.4984 77.6244-57.192L77.6244-38.3253L78.7933-38.1066C89.8534-36.0105 95.4173-30.8764 95.4173-22.4C95.4173-12.9636 87.7625-7.06271 77.6244-6.23595L77.6244-1.48098C77.6244 0.114669 76.4258 1.28566 74.8553 1.28566ZM72.0886-39.7877L72.0886-57.192C66.2754-56.3929 62.4651-52.8417 62.4651-48.5011C62.4651-44.2989 65.3832-41.6927 71.6614-39.8681ZM77.6244-31.3899L77.6244-12.7215C84.6716-13.3874 88.4041-17.1297 88.4041-22.0306C88.4041-26.4741 85.8604-29.2688 78.9916-31.0155Z"/>
  </g>
  <g id="Light-L" transform="matrix(1 0 0 1 1079.2 1556)">
   <path d="M73.9141 27.3856C108.257 27.3856 136.603-0.926323 136.603-35.2697C136.603-69.6131 108.224-97.925 73.8804-97.925C39.5239-97.925 11.2588-69.6131 11.2588-35.2697C11.2588-0.926323 39.5576 27.3856 73.9141 27.3856ZM73.901 0.484079C72.5916 0.484079 71.6115-0.449318 71.6115-1.80543L71.6115-6.86985C62.6663-7.52076 55.7351-12.559 54.0985-19.9783C54.0181-20.5282 53.904-21.1117 53.904-21.6485C53.904-23.3469 55.0188-24.4618 56.5303-24.4618C58.0136-24.4618 58.9339-23.65 59.3511-21.9984C60.1965-16.6425 64.7743-12.7321 71.6115-12.0345L71.6115-33.2813L70.8224-33.4888C60.3994-35.9221 55.157-40.5678 55.157-48.051C55.157-56.2372 62.2471-62.1491 71.6115-62.9815L71.6115-67.4383C71.6115-68.8411 72.5449-69.7408 73.901-69.7408C75.2234-69.7408 76.2503-68.7944 76.2503-67.4383L76.2503-62.9815C84.6607-62.2632 91.1617-57.3913 92.6841-50.7481C92.7982-50.2113 92.9123-49.6277 92.9123-49.0442C92.9123-47.3925 91.7975-46.2776 90.1926-46.2776C88.7017-46.2776 87.8151-47.1774 87.4185-48.7411C86.3449-53.624 82.1279-57.0519 76.2503-57.6691L76.2503-37.7145L77.7818-37.4004C88.5937-35.1899 93.8904-30.342 93.8904-22.3427C93.8904-13.498 86.5028-7.52076 76.2503-6.78943L76.2503-1.80543C76.2503-0.49606 75.2234 0.484079 73.901 0.484079ZM71.6115-38.9098L71.6115-57.6691C65.283-56.9845 60.7856-53.147 60.7856-48.253C60.7856-43.5927 64.219-40.8529 71.2224-38.9902ZM76.2503-32.1533L76.2503-12.0345C83.8318-12.6049 88.3086-16.7098 88.3086-22.107C88.3086-27.0085 85.2306-29.9559 77.6174-31.798Z"/>
  </g>
  <g id="Thin-L" transform="matrix(1 0 0 1 783.716 1556)">
   <path d="M72.7024 26.174C106.44 26.174 134.155-1.53213 134.155-35.2697C134.155-69.0073 106.432-96.7134 72.694-96.7134C38.8929-96.7134 11.2588-69.0073 11.2588-35.2697C11.2588-1.53213 38.9013 26.174 72.7024 26.174ZM72.6389-0.576077C71.7082-0.576077 70.9804-1.23181 70.9804-2.23454L70.9804-7.60186C61.8081-8.12656 55.1293-13.3668 53.6946-20.7103C53.6142-21.2097 53.5254-21.7175 53.5254-22.1534C53.5254-23.4227 54.2868-24.1841 55.2682-24.1841C56.4233-24.1841 57.0155-23.4986 57.1803-22.3013C57.8743-16.1376 63.3608-11.7224 70.9804-11.1257L70.9804-33.988L69.9389-34.2209C59.7936-36.5783 54.8037-40.9969 54.8037-47.8743C54.8037-55.5305 61.9442-61.2909 70.9804-61.9213L70.9804-66.3529C70.9804-67.4276 71.6362-68.0749 72.6389-68.0749C73.6332-68.0749 74.4329-67.3556 74.4329-66.3529L74.4329-61.9213C82.8685-61.3798 89.319-56.4826 90.6648-50.117C90.7536-49.6812 90.8425-49.1734 90.8425-48.6655C90.8425-47.4682 90.081-46.7068 88.9557-46.7068C87.9192-46.7068 87.3355-47.3541 87.1156-48.5896C86.2439-53.8512 81.2697-57.7839 74.4329-58.3002L74.4329-36.9068L76.4439-36.4665C86.9278-34.1045 91.8711-29.6353 91.8711-22.267C91.8711-14.2047 84.8369-8.12656 74.4329-7.52144L74.4329-2.23454C74.4329-1.3038 73.6332-0.576077 72.6389-0.576077ZM70.9804-37.7487L70.9804-58.3002C63.9704-57.767 58.5643-53.5509 58.5643-47.9249C58.5643-42.6588 62.6792-39.7423 70.6419-37.8291ZM74.4329-33.163L74.4329-11.1257C82.7212-11.57 88.1824-16.1545 88.1824-22.2079C88.1824-27.7153 84.3976-30.8646 75.8-32.8329Z"/>
  </g>
  <g id="Ultralight-L" transform="matrix(1 0 0 1 487.631 1556)">
   <path d="M72.0819 25.5534C105.509 25.5534 132.9-1.84242 132.9-35.2697C132.9-68.697 105.514-96.0928 72.0864-96.0928C38.5697-96.0928 11.2588-68.697 11.2588-35.2697C11.2588-1.84242 38.5652 25.5534 72.0819 25.5534ZM71.9925-1.11908C71.2557-1.11908 70.6572-1.6326 70.6572-2.45433L70.6572-7.97679C61.3685-8.43685 54.819-13.7805 53.4878-21.0852C53.4074-21.5588 53.3314-22.0278 53.3314-22.4119C53.3314-23.4615 53.9119-24.0419 54.6218-24.0419C55.6088-24.0419 56.0329-23.421 56.0684-22.4564C56.6848-15.8791 62.6368-11.2053 70.6572-10.6603L70.6572-34.35L69.4864-34.5958C59.4833-36.9145 54.6227-41.2167 54.6227-47.7838C54.6227-55.1685 61.789-60.8513 70.6572-61.3783L70.6572-65.7969C70.6572-66.7036 71.1707-67.2216 71.9925-67.2216C72.8187-67.2216 73.502-66.6187 73.502-65.7969L73.502-61.3783C81.9506-60.9273 88.3752-56.0171 89.6305-49.7938C89.7064-49.4097 89.7823-48.9406 89.7823-48.4716C89.7823-47.507 89.2019-46.9265 88.3222-46.9265C87.5184-46.9265 87.0898-47.4446 86.9604-48.512C86.1922-53.9676 80.8301-58.1588 73.502-58.6234L73.502-36.4931L75.7587-35.9881C86.0745-33.5485 90.8368-29.2733 90.8368-22.2282C90.8368-14.5667 83.9836-8.43685 73.502-7.89637L73.502-2.45433C73.502-1.71752 72.8187-1.11908 71.9925-1.11908ZM70.6572-37.154L70.6572-58.6234C63.2981-58.1678 57.4266-53.7577 57.4266-47.7568C57.4266-42.1804 61.8906-39.1734 70.3445-37.2344ZM73.502-33.6802L73.502-10.6603C82.1523-11.0399 88.1178-15.8701 88.1178-22.2596C88.1178-28.0773 83.971-31.33 74.8692-33.363Z"/>
  </g>
  <g id="Black-M" transform="matrix(1 0 0 1 2871.36 1126)">
   <path d="M62.0422 18.116C91.4096 18.116 115.367-5.83621 115.367-35.2035C115.367-64.5709 91.4041-88.5231 62.0367-88.5231C32.6752-88.5231 8.72266-64.5709 8.72266-35.2035C8.72266-5.83621 32.6807 18.116 62.0422 18.116ZM62.048-7.79784C60.8287-7.79784 60.047-8.63696 60.047-9.91306L60.047-12.7707C50.7046-13.172 46.1688-17.4114 44.6089-21.0992C44.1469-22.055 44.022-22.9592 44.022-23.7494C44.022-26.9418 46.1389-29.1729 49.9605-29.1729C52.726-29.1729 54.4845-27.7906 55.8007-25.5115C56.5034-24.1857 57.7655-23.1993 60.047-22.8554L60.047-29.7863L57.1171-30.4245C48.355-32.2478 43.586-36.2898 43.586-43.7054C43.586-51.8989 50.4333-57.2119 60.047-57.7491L60.047-60.8388C60.047-62.1146 60.829-62.9482 62.048-62.9482C63.2044-62.9482 64.043-62.1149 64.043-60.8388L64.043-57.7491C72.4066-57.1084 77.4019-53.2563 78.894-48.8499C79.1902-48.0597 79.3722-47.1555 79.3722-46.3084C79.3722-43.4584 77.1982-41.5127 73.7197-41.5127C71.1655-41.5127 69.2984-42.6318 67.708-45.0029C66.8697-46.2972 65.7252-47.1953 64.043-47.534L64.043-40.8349L67.0483-40.203C76.2418-38.3097 80.7421-34.4632 80.7421-27.1821C80.7421-18.97 74.2222-13.5716 64.043-12.8226L64.043-9.91306C64.043-8.63668 63.2044-7.79784 62.048-7.79784ZM60.047-41.758L60.047-47.7624C57.7281-47.584 56.2428-46.4715 56.2428-44.8232C56.2428-43.2876 57.4606-42.2769 59.6726-41.8203ZM64.043-28.9313L64.043-22.8554C66.611-23.1944 68.1421-24.1396 68.1421-25.8876C68.1421-27.4959 67.0648-28.2883 64.4741-28.8479Z"/>
  </g>
  <g id="Heavy-M" transform="matrix(1 0 0 1 2575.48 1126)">
   <path d="M61.2053 17.2657C90.0667 17.2657 113.704-6.35571 113.704-35.217C113.704-64.0783 90.0502-87.6997 61.1889-87.6997C32.3418-87.6997 8.72266-64.0783 8.72266-35.217C8.72266-6.35571 32.3582 17.2657 61.2053 17.2657ZM61.2195-7.48752C59.9577-7.48752 59.1207-8.36588 59.1207-9.67356L59.1207-12.7101C50.4021-13.1659 45.6088-17.2776 44.0694-21.4698C43.7018-22.3127 43.5794-23.1284 43.5794-23.8545C43.5794-26.707 45.4854-28.7001 48.8086-28.7001C51.2714-28.7001 52.8618-27.4653 54.0043-25.3131C54.732-23.5147 56.3153-22.1673 59.1207-21.7528L59.1207-30.5451L56.7985-31.0646C48.132-32.9207 43.4693-36.9126 43.4693-44.0917C43.4693-51.9755 49.9849-57.152 59.1207-57.763L59.1207-60.9444C59.1207-62.2544 59.9554-63.1163 61.2195-63.1163C62.4235-63.1163 63.3064-62.2521 63.3064-60.9444L63.3064-57.763C71.2279-57.0998 76.2451-53.272 77.7058-48.6243C77.959-47.8982 78.125-47.0825 78.125-46.3105C78.125-43.7221 76.1754-41.947 73.1094-41.947C70.7764-41.947 69.1151-43.027 67.7851-45.2032C66.8999-46.994 65.4362-48.1857 63.3064-48.5815L63.3064-40.1602L65.7674-39.6503C74.8468-37.836 79.3383-33.92 79.3383-26.7433C79.3383-18.6643 72.9216-13.4713 63.3064-12.735L63.3064-9.67356C63.3064-8.36815 62.4235-7.48752 61.2195-7.48752ZM59.1207-41.1687L59.1207-48.756C56.3555-48.4582 54.6164-46.9975 54.6164-45.019C54.6164-43.1391 56.0111-41.9084 58.7514-41.231ZM63.3064-29.613L63.3064-21.7528C66.485-22.1463 68.2371-23.5039 68.2371-25.6687C68.2371-27.6483 67.0209-28.7442 63.8858-29.4782Z"/>
  </g>
  <g id="Bold-M" transform="matrix(1 0 0 1 2279.69 1126)">
   <path d="M60.2692 16.3144C88.5644 16.3144 111.844-6.93686 111.844-35.2321C111.844-63.5273 88.5358-86.7786 60.2405-86.7786C31.9688-86.7786 8.72266-63.5273 8.72266-35.2321C8.72266-6.93686 31.9974 16.3144 60.2692 16.3144ZM60.2926-7.14037C58.9833-7.14037 58.0845-8.06264 58.0845-9.40564L58.0845-12.6423C50.0637-13.1592 44.9825-17.128 43.4659-21.8844C43.2038-22.601 43.0843-23.3176 43.0843-23.972C43.0843-26.4442 44.7543-28.1713 47.52-28.1713C49.6441-28.1713 51.0467-27.1015 51.9947-25.0912C52.7505-22.7641 54.693-21.0128 58.0845-20.5193L58.0845-31.3939L56.4422-31.7806C47.8824-33.6733 43.3389-37.6094 43.3389-44.5239C43.3389-52.0613 49.4833-57.0849 58.0845-57.7785L58.0845-61.0626C58.0845-62.4107 58.9782-63.3044 60.2926-63.3044C61.5499-63.3044 62.4825-62.4056 62.4825-61.0626L62.4825-57.7785C69.9094-57.0901 74.951-53.2896 76.3766-48.3719C76.5817-47.7175 76.7298-47.0009 76.7298-46.3128C76.7298-44.017 75.0313-42.4327 72.4266-42.4327C70.341-42.4327 68.91-43.4691 67.8713-45.4272C66.9337-47.7734 65.1128-49.2936 62.4825-49.7534L62.4825-39.4054L64.3346-39.0319C73.2864-37.306 77.768-33.3124 77.768-26.2523C77.768-18.3223 71.4666-13.3591 62.4825-12.6371L62.4825-9.40564C62.4825-8.06777 61.5499-7.14037 60.2926-7.14037ZM58.0845-40.5096L58.0845-49.8676C54.82-49.4362 52.7971-47.586 52.7971-45.2381C52.7971-42.973 54.3896-41.4961 57.7209-40.5719ZM62.4825-30.3755L62.4825-20.5193C66.3441-20.9739 68.3434-22.7928 68.3434-25.4239C68.3434-27.8188 66.9717-29.2542 63.2276-30.1833Z"/>
  </g>
  <g id="Semibold-M" transform="matrix(1 0 0 1 1983.62 1126)">
   <path d="M59.6238 15.6586C87.5288 15.6586 110.562-7.33749 110.562-35.2425C110.562-63.1475 87.4917-86.1436 59.5867-86.1436C31.7117-86.1436 8.72266-63.1475 8.72266-35.2425C8.72266-7.33749 31.7487 15.6586 59.6238 15.6586ZM59.6537-6.90105C58.3116-6.90105 57.3701-7.85358 57.3701-9.22094L57.3701-12.5955C49.8304-13.1546 44.5507-17.0248 43.0499-22.1702C42.8605-22.7997 42.743-23.448 42.743-24.053C42.743-26.2631 44.2503-27.8066 46.6316-27.8066C48.5223-27.8066 49.7953-26.8507 50.6093-24.9382C51.3845-22.2467 53.5746-20.2169 57.3701-19.6689L57.3701-31.9791L56.1965-32.2743C47.7104-34.1922 43.2489-38.0898 43.2489-44.8219C43.2489-52.1204 49.1375-57.0386 57.3701-57.7892L57.3701-61.1441C57.3701-62.5185 58.3045-63.434 59.6537-63.434C60.9477-63.434 61.9144-62.5114 61.9144-61.1441L61.9144-57.7892C69.0004-57.0835 74.0589-53.3018 75.4603-48.1979C75.6323-47.593 75.7679-46.9446 75.7679-46.3144C75.7679-44.2204 74.2425-42.7676 71.9558-42.7676C70.0409-42.7676 68.7686-43.7739 67.9308-45.5816C66.957-48.3107 64.8899-50.0575 61.9144-50.5613L61.9144-38.8851L63.3468-38.6057C72.2106-36.9406 76.6854-32.8935 76.6854-25.9139C76.6854-18.0865 70.4636-13.2817 61.9144-12.5696L61.9144-9.22094C61.9144-7.86069 60.9477-6.90105 59.6537-6.90105ZM57.3701-40.0552L57.3701-50.6339C53.7615-50.1105 51.5429-47.9916 51.5429-45.3891C51.5429-42.8584 53.2717-41.2119 57.0105-40.1175ZM61.9144-30.9013L61.9144-19.6689C66.2469-20.1657 68.4167-22.3026 68.4167-25.2552C68.4167-27.9364 66.9378-29.6057 62.7739-30.6695Z"/>
  </g>
  <g id="Medium-M" transform="matrix(1 0 0 1 1687.4 1126)">
   <path d="M59.1344 15.1614C86.7435 15.1614 109.59-7.64127 109.59-35.2504C109.59-62.8595 86.7001-85.6621 59.091-85.6621C31.5167-85.6621 8.72266-62.8595 8.72266-35.2504C8.72266-7.64127 31.5601 15.1614 59.1344 15.1614ZM59.1692-6.71958C57.8023-6.71958 56.8285-7.69507 56.8285-9.08089L56.8285-12.5601C49.6535-13.1511 44.2233-16.9466 42.7344-22.3869C42.6002-22.9504 42.4842-23.547 42.4842-24.1144C42.4842-26.1257 43.8681-27.5302 45.9581-27.5302C47.6717-27.5302 48.8465-26.6605 49.5589-24.8222C50.3487-21.8544 52.7266-19.6134 56.8285-19.0242L56.8285-32.4228L56.0102-32.6485C47.58-34.5857 43.1807-38.454 43.1807-45.0478C43.1807-52.1652 48.8753-57.0035 56.8285-57.7973L56.8285-61.2059C56.8285-62.6003 57.7937-63.5323 59.1692-63.5323C60.4911-63.5323 61.4837-62.5917 61.4837-61.2059L61.4837-57.7973C68.3112-57.0784 73.3824-53.311 74.7655-48.066C74.9123-47.4986 75.0386-46.902 75.0386-46.3156C75.0386-44.3746 73.6444-43.0215 71.5989-43.0215C69.8133-43.0215 68.6614-44.005 67.9759-45.6987C66.9746-48.7181 64.7209-50.6366 61.4837-51.1739L61.4837-38.4905L62.5978-38.2825C71.3949-36.6636 75.8645-32.5758 75.8645-25.6573C75.8645-17.9078 69.7031-13.223 61.4837-12.5184L61.4837-9.08089C61.4837-7.70367 60.4911-6.71958 59.1692-6.71958ZM56.8285-39.7106L56.8285-51.215C52.9588-50.6217 50.5918-48.2992 50.5918-45.5036C50.5918-42.7716 52.4241-40.9964 56.4718-39.773ZM61.4837-31.2999L61.4837-19.0242C66.1732-19.5528 68.4722-21.9309 68.4722-25.1272C68.4722-28.0255 66.9121-29.8723 62.4299-31.0381Z"/>
  </g>
  <g id="Regular-M" transform="matrix(1 0 0 1 1391.32 1126)">
   <path d="M58.4961 14.5128C85.7192 14.5128 108.321-8.0375 108.321-35.2606C108.321-62.4838 85.6675-85.0341 58.4443-85.0341C31.2624-85.0341 8.72266-62.4838 8.72266-35.2606C8.72266-8.0375 31.3141 14.5128 58.4961 14.5128ZM58.5373-6.48289C57.1379-6.48289 56.122-7.48831 56.122-8.89822L56.122-12.5139C49.4227-13.1465 43.7962-16.8446 42.323-22.6696C42.2607-23.1469 42.1466-23.676 42.1466-24.1945C42.1466-25.9466 43.3696-27.1696 45.0795-27.1696C46.5622-27.1696 47.6089-26.4124 48.1887-24.6709C48.9977-21.3426 51.6205-18.8263 56.122-18.1832L56.122-33.0016L55.7672-33.1367C47.4099-35.0988 43.0917-38.9291 43.0917-45.3425C43.0917-52.2236 48.5333-56.9578 56.122-57.8079L56.122-61.2864C56.122-62.7069 57.1274-63.6606 58.5373-63.6606C59.8954-63.6606 60.922-62.6963 60.922-61.2864L60.922-57.8079C67.4122-57.0718 72.5001-53.323 73.8592-47.8939C73.9733-47.3754 74.0874-46.8463 74.0874-46.3172C74.0874-44.5757 72.8644-43.3527 71.1334-43.3527C69.5165-43.3527 68.5216-44.3064 68.0347-45.8514C66.9976-49.2495 64.5004-51.392 60.922-51.9729L60.922-37.9759L61.6209-37.8609C70.331-36.3023 74.7938-32.1615 74.7938-25.3225C74.7938-17.6746 68.7111-13.1465 60.922-12.4516L60.922-8.89822C60.922-7.49886 59.8954-6.48289 58.5373-6.48289ZM56.122-39.2612L56.122-51.9729C51.9119-51.2885 49.3514-48.7004 49.3514-45.653C49.3514-42.6583 51.3185-40.7153 55.7692-39.3235ZM60.922-31.8198L60.922-18.1832C66.0772-18.7534 68.5447-21.4461 68.5447-24.9603C68.5447-28.1418 66.8786-30.22 61.9811-31.5188Z"/>
  </g>
  <g id="Light-M" transform="matrix(1 0 0 1 1095.44 1126)">
   <path d="M57.6748 13.6915C84.4872 13.6915 106.662-8.44816 106.662-35.2606C106.662-62.0731 84.4526-84.2128 57.6401-84.2128C30.8346-84.2128 8.72266-62.0731 8.72266-35.2606C8.72266-8.44816 30.8693 13.6915 57.6748 13.6915ZM57.6817-7.20155C56.5391-7.20155 55.6942-8.01875 55.6942-9.1891L55.6942-13.0101C48.8409-13.5571 43.3855-17.3921 42.0492-23.1658C41.9869-23.6089 41.89-24.0866 41.89-24.5367C41.89-25.9979 42.8734-26.9814 44.2239-26.9814C45.4842-26.9814 46.3084-26.3097 46.7172-24.8762C47.4235-21.0004 50.6623-18.1419 55.6942-17.5672L55.6942-33.4807L55.1684-33.633C46.9992-35.5437 42.8522-39.22 42.8522-45.2227C42.8522-51.7445 48.328-56.376 55.6942-57.0893L55.6942-60.5507C55.6942-61.7487 56.5114-62.5312 57.6817-62.5312C58.8175-62.5312 59.69-61.721 59.69-60.5507L59.69-57.0893C66.1973-56.4729 71.251-52.707 72.4904-47.4662C72.5873-47.0161 72.6843-46.5383 72.6843-46.0606C72.6843-44.627 71.7008-43.6436 70.295-43.6436C68.986-43.6436 68.1965-44.4262 67.8294-45.7488C66.9292-49.4035 63.9187-51.8882 59.69-52.4006L59.69-37.4284L60.714-37.2278C69.2017-35.5665 73.4249-31.6824 73.4249-25.2712C73.4249-18.1537 67.5817-13.5571 59.69-12.9478L59.69-9.1891C59.69-8.04641 58.8175-7.20155 57.6817-7.20155ZM55.6942-38.4741L55.6942-52.4006C51.0221-51.8189 47.8456-48.9741 47.8456-45.4305C47.8456-42.0252 50.2747-39.9625 55.3757-38.5364ZM59.69-32.5042L59.69-17.5672C65.3243-18.0519 68.4592-21.0697 68.4592-25.0287C68.4592-28.6209 66.3139-30.836 60.7492-32.2204Z"/>
  </g>
  <g id="Thin-M" transform="matrix(1 0 0 1 799.828 1126)">
   <path d="M56.5885 12.6052C82.8578 12.6052 104.466-8.9913 104.466-35.2606C104.466-61.53 82.8458-83.1265 56.5765-83.1265C30.2689-83.1265 8.72266-61.53 8.72266-35.2606C8.72266-8.9913 30.2809 12.6052 56.5885 12.6052ZM56.5502-8.15203C55.747-8.15203 55.1284-8.7203 55.1284-9.57382L55.1284-13.6664C48.0715-14.1003 42.8424-18.1163 41.6871-23.8221C41.6248-24.2199 41.5505-24.6298 41.5505-24.9893C41.5505-26.0658 42.2171-26.7324 43.0924-26.7324C44.0585-26.7324 44.5885-26.1739 44.7709-25.1477C45.3414-20.5478 49.3949-17.2366 55.1284-16.7525L55.1284-34.1143L54.3763-34.2892C46.4561-36.1321 42.5354-39.6047 42.5354-45.0643C42.5354-51.1109 48.0565-55.6066 55.1284-56.1388L55.1284-59.5776C55.1284-60.4814 55.6967-61.0376 56.5502-61.0376C57.3917-61.0376 58.0606-60.4311 58.0606-59.5776L58.0606-56.1388C64.5906-55.6809 69.599-51.8923 70.6799-46.9004C70.7542-46.5408 70.8285-46.131 70.8285-45.7211C70.8285-44.6949 70.1619-44.0283 69.1861-44.0283C68.2845-44.0283 67.7665-44.5846 67.5578-45.613C66.8387-49.6072 63.1492-52.5445 58.0606-52.9664L58.0606-36.7042L59.5146-36.3904C67.708-34.5934 71.6145-31.0487 71.6145-25.2033C71.6145-18.7874 66.0881-14.1003 58.0606-13.6041L58.0606-9.57382C58.0606-8.77059 57.3917-8.15203 56.5502-8.15203ZM55.1284-37.4331L55.1284-52.9664C49.8453-52.5205 45.8541-49.3362 45.8541-45.1363C45.8541-41.1879 48.8943-38.9667 54.8552-37.4954ZM58.0606-33.4095L58.0606-16.7525C64.3285-17.124 68.346-20.5718 68.346-25.1192C68.346-29.2546 65.5671-31.6507 59.1198-33.1482Z"/>
  </g>
  <g id="Ultralight-M" transform="matrix(1 0 0 1 503.679 1126)">
   <path d="M56.0321 12.0488C82.0233 12.0488 103.342-9.26949 103.342-35.2606C103.342-61.2518 82.0228-82.5701 56.0317-82.5701C29.9791-82.5701 8.72266-61.2518 8.72266-35.2606C8.72266-9.26949 29.9795 12.0488 56.0321 12.0488ZM55.9707-8.63887C55.3413-8.63887 54.8386-9.07963 54.8386-9.77087L54.8386-14.0025C47.6774-14.3785 42.5642-18.4872 41.5017-24.1582C41.4394-24.5329 41.3766-24.908 41.3766-25.2212C41.3766-26.1006 41.881-26.6049 42.5128-26.6049C43.3283-26.6049 43.7076-26.1044 43.7741-25.2868C44.275-20.3159 48.7458-16.773 54.8386-16.3352L54.8386-34.4389L53.9706-34.6254C46.1779-36.4335 42.3731-39.8017 42.3731-44.9831C42.3731-50.7863 47.9174-55.2125 54.8386-55.652L54.8386-59.0791C54.8386-59.8323 55.2794-60.2726 55.9707-60.2726C56.6615-60.2726 57.226-59.7704 57.226-59.0791L57.226-55.652C63.7676-55.2752 68.7528-51.475 69.7526-46.6106C69.8153-46.2974 69.8781-45.9223 69.8781-45.5472C69.8781-44.7297 69.3737-44.2254 68.6181-44.2254C67.9252-44.2254 67.5463-44.6657 67.4187-45.5434C66.7923-49.7115 62.7551-52.8807 57.226-53.2562L57.226-36.3333L58.9002-35.9616C66.943-34.095 70.6872-30.7242 70.6872-25.1685C70.6872-19.1119 65.3231-14.3785 57.226-13.9402L57.226-9.77087C57.226-9.14151 56.6615-8.63887 55.9707-8.63887ZM54.8386-36.8999L54.8386-53.2562C49.2426-52.8798 44.8341-49.5217 44.8341-44.9856C44.8341-40.759 48.1872-38.4567 54.5886-36.9622ZM57.226-33.8731L57.226-16.3352C63.8185-16.6488 68.288-20.3168 68.288-25.1656C68.288-29.5791 65.1846-32.068 58.2852-33.6235Z"/>
  </g>
  <g id="Black-S" transform="matrix(1 0 0 1 2884.57 696)">
   <path d="M48.8281 6.78711C71.9727 6.78711 90.8203-12.0605 90.8203-35.2051C90.8203-58.3496 71.9727-77.1973 48.8281-77.1973C25.6836-77.1973 6.83594-58.3496 6.83594-35.2051C6.83594-12.0605 25.6836 6.78711 48.8281 6.78711ZM48.8281-13.8672C47.9004-13.8672 47.3145-14.502 47.3145-15.4785L47.3145-17.6758C39.7949-17.9688 36.3281-21.3379 35.1074-24.0723C34.7168-24.8535 34.6191-25.5859 34.6191-26.2207C34.6191-28.8086 36.3281-30.6152 39.4531-30.6152C41.6992-30.6152 43.1152-29.4922 44.1895-27.6855C44.7266-26.7578 45.6543-26.0742 47.3145-25.8301L47.3145-30.7617L44.8242-31.2988C37.9395-32.7148 34.1797-35.8887 34.1797-41.748C34.1797-48.2422 39.6484-52.4414 47.3145-52.832L47.3145-55.2246C47.3145-56.2012 47.9004-56.8359 48.8281-56.8359C49.707-56.8359 50.3418-56.2012 50.3418-55.2246L50.3418-52.832C57.0312-52.3438 60.9375-49.3164 62.1094-45.9473C62.3535-45.3125 62.5-44.5801 62.5-43.8965C62.5-41.6016 60.7422-40.0391 57.9102-40.0391C55.8594-40.0391 54.3457-40.918 53.0273-42.8223C52.3926-43.7012 51.5625-44.3359 50.3418-44.5801L50.3418-39.7949L52.8809-39.2578C60.1074-37.7441 63.623-34.7656 63.623-29.0527C63.623-22.6074 58.4961-18.3105 50.3418-17.7246L50.3418-15.4785C50.3418-14.502 49.707-13.8672 48.8281-13.8672ZM47.3145-40.4785L47.3145-44.7754C45.6055-44.6777 44.4824-43.8965 44.4824-42.6758C44.4824-41.5527 45.4102-40.8203 47.0215-40.5273ZM50.3418-30.127L50.3418-25.8301C52.1973-26.0742 53.3691-26.709 53.3691-27.9785C53.3691-29.1504 52.5391-29.6875 50.6348-30.0781Z"/>
  </g>
  <g id="Heavy-S" transform="matrix(1 0 0 1 2588.47 696)">
   <path d="M48.2173 6.16479C70.9816 6.16479 89.6102-12.4524 89.6102-35.2166C89.6102-57.9808 70.97-76.598 48.2058-76.598C25.4531-76.598 6.83594-57.9808 6.83594-35.2166C6.83594-12.4524 25.4646 6.16479 48.2173 6.16479ZM48.2289-13.5099C47.232-13.5099 46.5769-14.2023 46.5769-15.2365L46.5769-17.5605C39.6105-17.9111 35.9017-21.1535 34.681-24.3258C34.3711-25.0149 34.2734-25.6781 34.2734-26.2668C34.2734-28.6012 35.8326-30.2349 38.5773-30.2349C40.5929-30.2349 41.8936-29.2271 42.8411-27.4896C43.4128-26.2277 44.5364-25.279 46.5769-24.9657L46.5769-31.3495L44.6283-31.7829C37.8012-33.2334 34.1105-36.3842 34.1105-42.0938C34.1105-48.369 39.2912-52.4645 46.5769-52.9358L46.5769-55.409C46.5769-56.4432 47.232-57.124 48.2289-57.124C49.1769-57.124 49.8693-56.4432 49.8693-55.409L49.8693-52.9358C56.1784-52.4129 60.1077-49.4086 61.2681-45.809C61.4777-45.2203 61.6126-44.557 61.6126-43.9311C61.6126-41.8205 60.0161-40.3733 57.4953-40.3733C55.5943-40.3733 54.2305-41.2407 53.1195-43.0067C52.4272-44.2774 51.3896-45.1196 49.8693-45.4214L49.8693-39.2878L51.9013-38.866C59.0587-37.433 62.5974-34.3623 62.5974-28.684C62.5974-22.2847 57.528-18.1723 49.8693-17.5863L49.8693-15.2365C49.8693-14.2023 49.1769-13.5099 48.2289-13.5099ZM46.5769-40.0752L46.5769-45.5706C44.5452-45.3577 43.2839-44.3114 43.2839-42.8717C43.2839-41.5066 44.3038-40.6013 46.2839-40.124ZM49.8693-30.6225L49.8693-24.9657C52.1857-25.2675 53.4613-26.2134 53.4613-27.7826C53.4613-29.2195 52.5736-29.9987 50.289-30.5276Z"/>
  </g>
  <g id="Bold-S" transform="matrix(1 0 0 1 2292.43 696)">
   <path d="M47.5342 5.46875C69.873 5.46875 88.2568-12.8906 88.2568-35.2295C88.2568-57.5684 69.8486-75.9277 47.5098-75.9277C25.1953-75.9277 6.83594-57.5684 6.83594-35.2295C6.83594-12.8906 25.2197 5.46875 47.5342 5.46875ZM47.5586-13.1104C46.4844-13.1104 45.752-13.8672 45.752-14.9658L45.752-17.4316C39.4043-17.8467 35.4248-20.9473 34.2041-24.6094C33.9844-25.1953 33.8867-25.7812 33.8867-26.3184C33.8867-28.3691 35.2783-29.8096 37.5977-29.8096C39.3555-29.8096 40.5273-28.9307 41.333-27.2705C41.9434-25.6348 43.2861-24.3896 45.752-23.999L45.752-32.0068L44.4092-32.3242C37.6465-33.8135 34.0332-36.9385 34.0332-42.4805C34.0332-48.5107 38.8916-52.4902 45.752-53.0518L45.752-55.6152C45.752-56.7139 46.4844-57.4463 47.5586-57.4463C48.584-57.4463 49.3408-56.7139 49.3408-55.6152L49.3408-53.0518C55.2246-52.4902 59.1797-49.5117 60.3271-45.6543C60.498-45.1172 60.6201-44.5312 60.6201-43.9697C60.6201-42.0654 59.2041-40.7471 57.0312-40.7471C55.2979-40.7471 54.1016-41.6016 53.2227-43.2129C52.4658-44.9219 51.1963-45.9961 49.3408-46.3623L49.3408-38.7207L50.8057-38.4277C57.8857-37.085 61.4502-33.9111 61.4502-28.2715C61.4502-21.9238 56.4453-18.0176 49.3408-17.4316L49.3408-14.9658C49.3408-13.8672 48.584-13.1104 47.5586-13.1104ZM45.752-39.624L45.752-46.46C43.3594-46.1182 41.9434-44.7754 41.9434-43.0908C41.9434-41.4551 43.0664-40.3564 45.459-39.6729ZM49.3408-31.1768L49.3408-23.999C52.1729-24.3652 53.5645-25.6592 53.5645-27.5635C53.5645-29.2969 52.6123-30.3467 49.9023-31.0303Z"/>
  </g>
  <g id="Semibold-S" transform="matrix(1 0 0 1 1996.19 696)">
   <path d="M47.0632 4.98887C69.1088 4.98887 87.3237-13.1928 87.3237-35.2384C87.3237-57.284 69.0755-75.4656 47.0299-75.4656C25.0176-75.4656 6.83594-57.284 6.83594-35.2384C6.83594-13.1928 25.0509 4.98887 47.0632 4.98887ZM47.0965-12.8349C45.9689-12.8349 45.1832-13.6361 45.1832-14.7792L45.1832-17.3428C39.2621-17.8022 35.096-20.8051 33.8753-24.8049C33.7178-25.3197 33.6201-25.8523 33.6201-26.3539C33.6201-28.2092 34.8962-29.5163 36.9223-29.5163C38.5023-29.5163 39.5854-28.7263 40.2933-27.1194C40.9303-25.226 42.4241-23.7765 45.1832-23.3325L45.1832-32.4601L44.2581-32.6975C37.5398-34.2134 33.9799-37.3206 33.9799-42.7471C33.9799-48.6085 38.6161-52.508 45.1832-53.1317L45.1832-55.7574C45.1832-56.9005 45.9689-57.6685 47.0965-57.6685C48.1752-57.6685 48.9765-56.9005 48.9765-55.7574L48.9765-53.1317C54.567-52.5436 58.5398-49.5828 59.6784-45.5477C59.8227-45.0461 59.9358-44.5135 59.9358-43.9964C59.9358-42.2343 58.6442-41.0048 56.7113-41.0048C55.0935-41.0048 54.0127-41.8504 53.2938-43.3551C52.4925-45.3662 51.063-46.6004 48.9765-47.011L48.9765-38.3297L50.0503-38.1256C57.0771-36.845 60.6593-33.6001 60.6593-27.9871C60.6593-21.675 55.6988-17.9109 48.9765-17.325L48.9765-14.7792C48.9765-13.6361 48.1752-12.8349 47.0965-12.8349ZM45.1832-39.313L45.1832-47.0731C42.5418-46.6425 41.0191-45.0953 41.0191-43.2419C41.0191-41.4195 42.2133-40.1876 44.8902-39.3618ZM48.9765-31.5589L48.9765-23.3325C52.164-23.7432 53.6355-25.2771 53.6355-27.4124C53.6355-29.3502 52.639-30.5866 49.6357-31.3769Z"/>
  </g>
  <g id="Medium-S" transform="matrix(1 0 0 1 1699.83 696)">
   <path d="M46.7061 4.625C68.5293 4.625 86.6162-13.4219 86.6162-35.2451C86.6162-57.0684 68.4893-75.1152 46.666-75.1152C24.8828-75.1152 6.83594-57.0684 6.83594-35.2451C6.83594-13.4219 24.9229 4.625 46.7061 4.625ZM46.7461-12.626C45.5781-12.626 44.752-13.4609 44.752-14.6377L44.752-17.2754C39.1543-17.7686 34.8467-20.6973 33.626-24.9531C33.5156-25.4141 33.418-25.9062 33.418-26.3809C33.418-28.0879 34.6064-29.2939 36.4102-29.2939C37.8555-29.2939 38.8711-28.5713 39.5049-27.0049C40.1621-24.916 41.7705-23.3115 44.752-22.8271L44.752-32.8037L44.1436-32.9805C37.459-34.5166 33.9395-37.6104 33.9395-42.9492C33.9395-48.6826 38.4072-52.5215 44.752-53.1924L44.752-55.8652C44.752-57.042 45.5781-57.8369 46.7461-57.8369C47.8652-57.8369 48.7002-57.042 48.7002-55.8652L48.7002-53.1924C54.0684-52.584 58.0547-49.6367 59.1865-45.4668C59.3105-44.9922 59.417-44.5 59.417-44.0166C59.417-42.3623 58.2197-41.2002 56.4688-41.2002C54.9385-41.2002 53.9453-42.0391 53.3477-43.4629C52.5127-45.7031 50.9619-47.0586 48.7002-47.5029L48.7002-38.0332L49.4775-37.8965C56.4639-36.6631 60.0596-33.3643 60.0596-27.7715C60.0596-21.4863 55.1328-17.8301 48.7002-17.2441L48.7002-14.6377C48.7002-13.4609 47.8652-12.626 46.7461-12.626ZM44.752-39.0771L44.752-47.5381C41.9219-47.04 40.3184-45.3379 40.3184-43.3564C40.3184-41.3926 41.5664-40.0596 44.459-39.126ZM48.7002-31.8486L48.7002-22.8271C52.1572-23.2715 53.6895-24.9873 53.6895-27.2979C53.6895-29.3906 52.6592-30.7686 49.4336-31.6396Z"/>
  </g>
  <g id="Regular-S" transform="matrix(1 0 0 1 1403.58 696)">
   <path d="M46.2402 4.15039C67.7734 4.15039 85.6934-13.7207 85.6934-35.2539C85.6934-56.7871 67.7246-74.6582 46.1914-74.6582C24.707-74.6582 6.83594-56.7871 6.83594-35.2539C6.83594-13.7207 24.7559 4.15039 46.2402 4.15039ZM46.2891-12.3535C45.0684-12.3535 44.1895-13.2324 44.1895-14.4531L44.1895-17.1875C39.0137-17.7246 34.5215-20.5566 33.3008-25.1465C33.252-25.5371 33.1543-25.9766 33.1543-26.416C33.1543-27.9297 34.2285-29.0039 35.7422-29.0039C37.0117-29.0039 37.9395-28.3691 38.4766-26.8555C39.1602-24.5117 40.918-22.7051 44.1895-22.168L44.1895-33.252L43.9941-33.3496C37.3535-34.9121 33.8867-37.9883 33.8867-43.2129C33.8867-48.7793 38.1348-52.5391 44.1895-53.2715L44.1895-56.0059C44.1895-57.2266 45.0684-58.0566 46.2891-58.0566C47.4609-58.0566 48.3398-57.2266 48.3398-56.0059L48.3398-53.2715C53.418-52.6367 57.4219-49.707 58.5449-45.3613C58.6426-44.9219 58.7402-44.4824 58.7402-44.043C58.7402-42.5293 57.666-41.4551 56.1523-41.4551C54.7363-41.4551 53.8574-42.2852 53.418-43.6035C52.5391-46.1426 50.8301-47.6562 48.3398-48.1445L48.3398-37.6465L48.7305-37.5977C55.6641-36.4258 59.2773-33.0566 59.2773-27.4902C59.2773-21.2402 54.3945-17.7246 48.3398-17.1387L48.3398-14.4531C48.3398-13.2324 47.4609-12.3535 46.2891-12.3535ZM44.1895-38.7695L44.1895-48.1445C41.1133-47.5586 39.4043-45.6543 39.4043-43.5059C39.4043-41.3574 40.7227-39.8926 43.8965-38.8184ZM48.3398-32.2266L48.3398-22.168C52.1484-22.6562 53.7598-24.6094 53.7598-27.1484C53.7598-29.4434 52.6855-31.0059 49.1699-31.9824Z"/>
  </g>
  <g id="Light-S" transform="matrix(1 0 0 1 1107.6 696)">
   <path d="M45.5137 3.42383C66.6836 3.42383 84.2251-14.084 84.2251-35.2539C84.2251-56.4238 66.6499-73.9316 45.48-73.9316C24.3286-73.9316 6.83594-56.4238 6.83594-35.2539C6.83594-14.084 24.3623 3.42383 45.5137 3.42383ZM45.5322-12.9893C44.5386-12.9893 43.811-13.7017 43.811-14.7104L43.811-17.6265C38.499-18.0879 34.1582-21.041 33.0586-25.5854C33.0098-25.9458 32.9272-26.3398 32.9272-26.7187C32.9272-27.9751 33.7896-28.8374 34.9854-28.8374C36.0581-28.8374 36.7891-28.2783 37.1748-27.0371C37.7676-24.209 40.0703-22.0996 43.811-21.6231L43.811-33.6758L43.4644-33.7886C36.9902-35.3057 33.6748-38.2456 33.6748-43.1069C33.6748-48.3555 37.9531-52.0244 43.811-52.6357L43.811-55.355C43.811-56.3789 44.5234-57.0576 45.5322-57.0576C46.5073-57.0576 47.25-56.3638 47.25-55.355L47.25-52.6357C52.3433-52.1069 56.3169-49.1621 57.334-44.9829C57.4165-44.604 57.499-44.21 57.499-43.8159C57.499-42.5747 56.6367-41.7124 55.4107-41.7124C54.2671-41.7124 53.5698-42.3911 53.2363-43.5127C52.4785-46.2788 50.3154-48.0952 47.25-48.5229L47.25-37.1621L47.9282-37.0376C54.665-35.7749 58.0664-32.6328 58.0664-27.4448C58.0664-21.6641 53.3955-18.0879 47.25-17.5776L47.25-14.7104C47.25-13.7168 46.5073-12.9893 45.5322-12.9893ZM43.811-38.0732L43.811-48.5229C40.3262-48.0278 38.0723-45.8965 38.0723-43.3091C38.0723-40.7974 39.7993-39.2266 43.5483-38.1221ZM47.25-32.832L47.25-21.6231C51.4824-22.0356 53.6841-24.2764 53.6841-27.209C53.6841-29.8672 52.186-31.5508 48.0801-32.603Z"/>
  </g>
  <g id="Thin-S" transform="matrix(1 0 0 1 811.863 696)">
   <path d="M44.5527 2.4629C65.2422 2.4629 82.2832-14.5644 82.2832-35.2539C82.2832-55.9434 65.2285-72.9707 44.5391-72.9707C23.8281-72.9707 6.83594-55.9434 6.83594-35.2539C6.83594-14.5644 23.8418 2.4629 44.5527 2.4629ZM44.5313-13.8301C43.8379-13.8301 43.3106-14.3223 43.3106-15.0508L43.3106-18.207C37.8184-18.5684 33.6777-21.6816 32.7383-26.166C32.6895-26.4863 32.627-26.8203 32.627-27.1191C32.627-28.0352 33.209-28.6172 33.9844-28.6172C34.7969-28.6172 35.2676-28.1582 35.4531-27.2773C35.9258-23.8086 38.9492-21.2988 43.3106-20.9024L43.3106-34.2363L42.7637-34.3691C36.5098-35.8262 33.3945-38.5859 33.3945-42.9668C33.3945-47.7949 37.7129-51.3438 43.3106-51.7949L43.3106-54.4942C43.3106-55.2578 43.8027-55.7363 44.5313-55.7363C45.2461-55.7363 45.8086-55.2227 45.8086-54.4942L45.8086-51.7949C50.9219-51.4063 54.8555-48.4414 55.7324-44.4824C55.7949-44.1836 55.8574-43.8496 55.8574-43.5156C55.8574-42.6348 55.2754-42.0527 54.4297-42.0527C53.6465-42.0527 53.1895-42.5312 52.9961-43.3926C52.3984-46.459 49.6348-48.6758 45.8086-49.0234L45.8086-36.5215L46.8672-36.2969C53.3438-34.9141 56.4649-32.0723 56.4649-27.3848C56.4649-22.2246 52.0742-18.5684 45.8086-18.1582L45.8086-15.0508C45.8086-14.3574 45.2461-13.8301 44.5313-13.8301ZM43.3106-37.1524L43.3106-49.0234C39.2852-48.6484 36.3106-46.2168 36.3106-43.0488C36.3106-40.0567 38.5781-38.3457 43.0879-37.2012ZM45.8086-33.6328L45.8086-20.9024C50.6016-21.2149 53.584-23.8359 53.584-27.2891C53.584-30.4277 51.5254-32.2715 46.6387-33.4238Z"/>
  </g>
  <g id="Ultralight-S" transform="matrix(1 0 0 1 515.649 696)">
   <path d="M44.0606 1.97072C64.5039 1.97072 81.2886-14.8105 81.2886-35.2539C81.2886-55.6973 64.5005-72.4785 44.0571-72.4785C23.5718-72.4785 6.83594-55.6973 6.83594-35.2539C6.83594-14.8105 23.5752 1.97072 44.0606 1.97072ZM44.0186-14.2607C43.479-14.2607 43.0542-14.6401 43.0542-15.2251L43.0542-18.5044C37.4697-18.8144 33.4316-22.0098 32.5742-26.4634C32.5254-26.7632 32.4731-27.0664 32.4731-27.3242C32.4731-28.0659 32.9116-28.5044 33.4717-28.5044C34.1509-28.5044 34.4883-28.0967 34.5713-27.4004C34.9825-23.6035 38.375-20.8887 43.0542-20.5332L43.0542-34.5234L42.4048-34.6665C36.2637-36.0928 33.251-38.7602 33.251-42.895C33.251-47.5078 37.5898-50.9951 43.0542-51.3643L43.0542-54.0532C43.0542-54.6836 43.4336-55.0596 44.0186-55.0596C44.6001-55.0596 45.0703-54.6382 45.0703-54.0532L45.0703-51.3643C50.1939-51.0474 54.107-48.0723 54.9121-44.2261C54.9644-43.9683 55.0166-43.665 55.0166-43.3618C55.0166-42.6655 54.5781-42.227 53.9273-42.227C53.3286-42.227 52.9946-42.603 52.8731-43.3311C52.3574-46.5513 49.2861-48.9731 45.0703-49.2798L45.0703-36.1934L46.3237-35.9175C52.667-34.4732 55.6446-31.7852 55.6446-27.354C55.6446-22.5117 51.3975-18.8144 45.0703-18.4556L45.0703-15.2251C45.0703-14.6855 44.6001-14.2607 44.0186-14.2607ZM43.0542-36.6807L43.0542-49.2798C38.752-48.9663 35.4082-46.3809 35.4082-42.9155C35.4082-39.6773 37.9527-37.8945 42.8521-36.7295ZM45.0703-34.043L45.0703-20.5332C50.1504-20.7944 53.5327-23.6104 53.5327-27.3301C53.5327-30.7148 51.187-32.6406 45.9004-33.8442Z"/>
  </g>
 </g>
</svg>
